<svg id="svg" version="1.1" width="400" height="400" viewBox="0 0 400 400" xmlns="http://www.w3.org/2000/svg" xmlns:xlink="http://www.w3.org/1999/xlink" ><g id="svgg"><path id="path0" d="M33.467 41.467 C 33.320 41.613,33.200 44.673,33.200 48.267 L 33.200 54.800 34.200 54.800 L 35.200 54.800 35.200 202.754 C 35.200 333.220,35.129 350.844,34.602 351.854 C 33.804 353.386,33.865 354.806,34.777 355.900 C 35.701 357.007,36.184 357.084,35.519 356.018 C 35.250 355.588,35.128 355.138,35.248 355.019 C 35.503 354.764,378.440 354.707,378.695 354.962 C 378.789 355.056,378.492 355.508,378.033 355.967 C 377.243 356.757,377.239 356.800,377.957 356.800 C 379.084 356.800,379.200 356.105,379.200 349.367 L 379.200 343.200 364.200 343.200 L 349.200 343.200 349.200 258.164 C 349.200 173.591,349.204 173.125,350.001 172.464 C 350.824 171.781,351.242 168.639,350.639 167.663 C 349.992 166.616,345.200 167.089,345.200 168.200 C 345.200 168.993,344.998 169.200,344.226 169.200 C 343.406 169.200,343.282 169.358,343.434 170.200 C 343.615 171.199,343.611 171.200,340.408 171.200 C 337.253 171.200,337.200 171.216,337.200 172.200 C 337.200 173.053,337.009 173.206,335.900 173.240 C 334.916 173.270,334.795 173.343,335.400 173.540 C 337.419 174.196,336.518 175.183,333.933 175.147 C 331.100 175.107,329.017 176.615,329.477 178.372 C 329.683 179.159,329.532 179.200,326.447 179.200 C 323.343 179.200,323.201 179.240,323.212 180.100 C 323.223 180.904,323.268 180.925,323.632 180.300 C 324.186 179.349,325.200 179.414,325.200 180.400 C 325.200 181.104,324.923 181.204,322.900 181.232 C 321.635 181.249,320.825 181.354,321.100 181.465 C 321.968 181.815,321.676 183.134,320.700 183.272 L 319.800 183.400 319.707 263.173 C 319.655 307.049,319.475 343.051,319.307 343.178 C 319.138 343.305,316.345 343.349,313.101 343.275 L 307.202 343.141 307.101 267.304 C 307.017 204.141,306.910 191.437,306.461 191.287 C 306.036 191.145,306.015 191.280,306.361 191.927 C 306.675 192.514,306.800 214.149,306.800 267.974 L 306.800 343.200 305.800 343.200 L 304.800 343.200 304.800 268.623 L 304.800 194.045 303.906 193.419 C 303.138 192.881,303.082 192.681,303.509 191.996 C 303.971 191.258,303.905 191.200,302.603 191.200 C 301.373 191.200,301.200 191.323,301.200 192.200 C 301.200 192.933,300.987 193.200,300.400 193.200 C 299.813 193.200,299.600 193.467,299.600 194.200 C 299.600 195.183,299.547 195.200,296.400 195.200 C 293.374 195.200,293.200 195.248,293.200 196.076 C 293.200 196.912,293.225 196.918,293.742 196.211 C 294.358 195.369,295.600 195.620,295.600 196.587 C 295.600 197.055,295.130 197.200,293.610 197.200 C 291.652 197.200,291.626 197.216,292.000 198.200 L 292.380 199.200 289.239 199.200 C 285.658 199.200,285.040 199.593,285.124 201.818 L 285.176 203.200 282.188 203.200 C 279.352 203.200,279.201 203.246,279.212 204.100 C 279.223 204.904,279.268 204.925,279.632 204.300 C 280.186 203.349,281.200 203.414,281.200 204.400 C 281.200 205.081,280.933 205.200,279.400 205.200 C 277.747 205.200,277.600 205.281,277.600 206.200 C 277.600 207.076,277.427 207.200,276.200 207.200 C 272.895 207.200,273.200 200.413,273.200 274.026 C 273.200 339.861,273.220 340.800,274.614 340.800 C 274.998 340.800,275.200 341.213,275.200 342.000 L 275.200 343.200 269.200 343.200 L 263.200 343.200 263.200 281.096 C 263.200 219.426,263.206 218.989,264.000 218.493 C 265.166 217.765,265.155 214.218,263.985 213.592 C 262.938 213.031,261.710 213.424,261.394 214.420 C 261.234 214.924,260.786 215.200,260.130 215.200 C 259.245 215.200,259.146 215.330,259.364 216.200 C 259.607 217.166,259.548 217.200,257.634 217.200 C 255.778 217.200,255.645 217.268,255.527 218.284 C 255.405 219.326,255.318 219.363,253.300 219.254 C 251.281 219.145,251.200 219.180,251.200 220.170 C 251.200 220.933,250.993 221.200,250.400 221.200 C 249.427 221.200,249.393 220.892,250.262 219.931 C 250.884 219.244,250.872 219.200,250.062 219.200 C 249.409 219.200,249.200 219.443,249.200 220.200 C 249.200 221.133,249.067 221.200,247.200 221.200 C 245.333 221.200,245.200 221.267,245.200 222.200 C 245.200 223.017,244.998 223.206,244.100 223.232 C 243.495 223.249,243.225 223.354,243.500 223.465 C 244.685 223.943,244.033 225.200,242.600 225.200 C 241.373 225.200,241.200 225.324,241.200 226.200 C 241.200 227.000,241.000 227.200,240.200 227.200 C 239.650 227.200,239.200 226.998,239.200 226.751 C 239.200 226.455,238.962 226.486,238.500 226.844 C 237.918 227.295,237.927 227.238,238.553 226.503 C 238.968 226.017,239.450 225.708,239.626 225.816 C 239.801 225.924,240.058 225.830,240.196 225.607 C 240.335 225.381,240.080 225.200,239.624 225.200 C 238.423 225.200,237.200 226.613,237.200 228.000 C 237.200 229.165,237.144 229.200,235.300 229.200 L 233.400 229.200 233.400 286.300 C 233.400 343.161,233.397 343.400,232.600 343.318 C 232.160 343.273,228.875 343.215,225.300 343.188 C 218.908 343.141,218.800 343.126,218.795 342.270 C 218.793 341.792,218.730 318.450,218.655 290.400 C 218.498 231.732,218.585 237.200,217.806 237.200 C 217.426 237.200,217.200 236.827,217.200 236.200 C 217.200 235.400,217.000 235.200,216.200 235.200 C 215.428 235.200,215.200 234.994,215.200 234.295 C 215.200 233.744,214.852 233.235,214.309 232.995 C 213.690 232.721,213.315 232.080,213.085 230.900 C 212.831 229.598,212.571 229.200,211.976 229.200 C 211.475 229.200,211.200 228.925,211.200 228.424 C 211.200 227.997,210.994 227.520,210.742 227.364 C 210.419 227.165,210.362 227.395,210.549 228.140 C 210.784 229.077,210.698 229.200,209.808 229.200 C 209.086 229.200,208.800 228.985,208.800 228.443 C 208.800 227.963,208.422 227.592,207.765 227.427 C 206.775 227.178,206.741 227.080,207.002 225.184 C 207.269 223.245,207.251 223.200,206.238 223.200 C 205.397 223.200,205.200 223.010,205.200 222.200 C 205.200 221.650,205.058 221.200,204.884 221.200 C 204.711 221.200,204.576 221.695,204.584 222.300 C 204.597 223.211,204.428 223.400,203.600 223.400 C 203.046 223.400,202.641 223.189,202.691 222.927 C 203.370 219.396,203.347 219.200,202.251 219.200 C 201.397 219.200,201.200 219.013,201.200 218.200 C 201.200 217.400,201.000 217.200,200.200 217.200 C 199.400 217.200,199.200 217.000,199.200 216.200 C 199.200 215.413,198.997 215.200,198.245 215.200 C 197.422 215.200,197.254 214.955,197.024 213.420 C 196.834 212.152,196.533 211.569,195.979 211.393 C 195.550 211.257,195.200 210.888,195.200 210.573 C 195.200 210.258,195.037 210.000,194.837 210.000 C 194.638 210.000,194.569 210.360,194.684 210.800 C 194.854 211.449,194.696 211.600,193.847 211.600 C 192.946 211.600,192.800 211.429,192.800 210.376 C 192.800 209.703,192.965 209.255,193.166 209.379 C 193.380 209.511,193.410 209.146,193.239 208.503 C 192.957 207.444,192.830 207.395,190.071 207.282 L 187.198 207.165 187.299 274.864 L 187.400 342.564 188.400 342.842 C 188.950 342.995,186.655 343.138,183.301 343.160 L 177.202 343.200 177.101 266.300 L 177.000 189.400 175.200 189.346 C 174.076 189.312,173.850 189.363,174.599 189.482 C 175.713 189.659,176.379 190.185,176.394 190.900 C 176.397 191.065,174.759 191.200,172.753 191.200 L 169.107 191.200 169.298 192.200 C 169.467 193.086,169.353 193.200,168.296 193.200 C 167.092 193.200,167.203 192.572,168.600 191.490 C 168.820 191.319,168.190 191.229,167.200 191.290 C 165.678 191.383,165.380 191.539,165.272 192.300 C 165.172 193.004,164.884 193.200,163.949 193.200 C 163.240 193.200,162.855 193.366,163.004 193.607 C 163.142 193.830,163.385 193.933,163.545 193.834 C 163.704 193.736,163.860 194.003,163.892 194.428 C 163.939 195.052,163.687 195.200,162.575 195.200 C 161.125 195.200,160.898 194.612,162.000 193.714 C 162.531 193.282,162.528 193.224,161.975 193.213 C 160.905 193.191,159.085 195.407,159.388 196.362 C 159.649 197.183,159.550 197.200,154.427 197.200 L 149.200 197.200 149.200 198.200 C 149.200 198.778,148.970 199.200,148.654 199.200 C 147.640 199.200,147.589 202.741,147.606 272.964 C 147.615 311.450,147.482 343.044,147.311 343.174 C 147.140 343.304,144.345 343.349,141.100 343.275 L 135.200 343.141 135.102 276.270 L 135.004 209.400 134.802 276.200 C 134.601 342.666,134.596 343.000,133.800 343.000 C 133.004 343.000,133.000 342.700,132.899 275.490 L 132.798 207.979 131.773 207.590 C 131.209 207.375,130.085 207.194,129.274 207.187 L 127.800 207.173 128.700 206.423 C 129.889 205.430,129.835 205.120,128.500 205.273 C 127.712 205.364,127.364 205.656,127.272 206.300 C 127.202 206.795,126.867 207.200,126.529 207.200 C 126.072 207.200,125.978 207.458,126.164 208.200 C 126.397 209.128,126.312 209.200,124.974 209.200 C 123.333 209.200,123.266 208.505,124.832 207.706 C 125.791 207.216,125.788 207.212,124.500 207.206 C 123.378 207.201,123.200 207.337,123.200 208.200 C 123.200 209.083,123.025 209.204,121.700 209.232 C 120.875 209.249,120.425 209.354,120.700 209.465 C 122.549 210.211,121.119 211.200,118.192 211.200 L 115.185 211.200 115.442 212.225 C 115.692 213.221,115.649 213.247,113.950 213.125 C 112.523 213.023,111.579 212.297,112.700 212.164 C 114.367 211.967,114.798 211.231,113.200 211.311 C 111.671 211.387,111.381 211.535,111.272 212.300 C 111.159 213.094,110.913 213.200,109.172 213.200 C 107.335 213.200,107.200 213.269,107.200 214.200 C 107.200 215.046,107.014 215.200,105.992 215.200 C 104.904 215.200,104.810 215.299,105.036 216.200 C 105.255 217.075,105.157 217.200,104.243 217.200 C 103.583 217.200,103.200 216.980,103.200 216.600 C 103.200 216.270,103.470 216.000,103.800 216.000 C 104.130 216.000,104.400 215.820,104.400 215.600 C 104.400 215.037,102.260 215.100,101.680 215.680 C 101.311 216.049,101.200 230.809,101.200 279.680 L 101.200 343.200 96.200 343.200 L 91.200 343.200 91.200 282.200 L 91.200 221.200 89.455 221.200 C 87.810 221.200,87.722 221.257,87.902 222.200 C 88.113 223.303,88.119 223.301,84.950 223.207 C 82.954 223.148,82.906 223.173,83.097 224.173 C 83.285 225.156,83.213 225.200,81.447 225.200 C 79.072 225.200,79.018 224.069,81.376 223.703 C 82.822 223.478,82.541 223.200,80.867 223.200 C 79.356 223.200,79.200 223.293,79.200 224.200 C 79.200 224.993,78.998 225.200,78.226 225.200 C 77.406 225.200,77.282 225.358,77.434 226.200 C 77.607 227.154,77.527 227.199,75.708 227.187 L 73.800 227.175 74.957 226.158 L 76.113 225.141 74.757 225.270 C 73.703 225.371,73.371 225.601,73.272 226.300 C 73.202 226.795,72.879 227.200,72.555 227.200 C 72.230 227.200,71.994 227.425,72.030 227.700 C 72.185 228.892,71.932 229.200,70.800 229.200 C 69.429 229.200,69.329 228.963,70.262 227.931 C 70.884 227.244,70.872 227.200,70.062 227.200 C 69.409 227.200,69.200 227.443,69.200 228.200 C 69.200 229.046,69.014 229.200,67.992 229.200 C 66.904 229.200,66.810 229.299,67.036 230.200 C 67.277 231.161,67.213 231.200,65.394 231.200 C 63.715 231.200,63.561 231.129,64.027 230.568 C 64.315 230.220,64.937 230.009,65.409 230.100 C 65.938 230.201,66.267 230.060,66.267 229.732 C 66.267 229.382,65.742 229.200,64.733 229.200 C 63.364 229.200,63.200 229.307,63.200 230.200 C 63.200 230.886,62.980 231.200,62.500 231.200 C 61.613 231.200,61.710 224.719,61.645 288.600 L 61.590 343.400 55.295 343.259 C 51.833 343.182,48.791 342.948,48.536 342.740 C 48.236 342.496,47.970 342.525,47.786 342.823 C 46.924 344.217,46.812 337.120,46.811 281.000 C 46.809 212.111,46.645 216.800,49.052 216.800 C 50.533 216.800,50.800 216.678,50.800 216.000 C 50.800 215.560,50.620 215.200,50.400 215.200 C 50.180 215.200,50.000 215.380,50.000 215.600 C 50.000 216.105,48.127 216.129,47.817 215.628 C 47.416 214.978,48.167 214.836,52.339 214.770 C 56.283 214.708,57.136 214.468,56.584 213.574 C 56.411 213.295,56.061 213.383,55.568 213.829 C 54.953 214.385,54.704 214.418,54.208 214.006 C 53.030 213.029,53.637 212.800,57.400 212.800 C 61.187 212.800,61.200 212.796,61.200 211.800 C 61.200 210.906,61.364 210.800,62.745 210.800 C 64.176 210.800,64.275 210.727,64.098 209.800 C 63.922 208.882,64.026 208.800,65.353 208.800 C 66.869 208.800,67.225 209.390,66.300 210.370 C 65.896 210.798,65.916 210.865,66.400 210.719 C 66.730 210.619,67.058 210.146,67.128 209.669 C 67.234 208.946,67.520 208.800,68.828 208.800 C 69.693 208.800,70.400 208.609,70.400 208.376 C 70.400 208.143,70.237 208.054,70.037 208.177 C 69.838 208.300,69.769 208.041,69.884 207.601 C 70.042 206.995,70.429 206.800,71.470 206.800 C 72.286 206.800,72.747 206.963,72.600 207.200 C 72.464 207.420,72.543 207.600,72.776 207.600 C 73.009 207.600,73.200 207.420,73.200 207.200 C 73.200 206.980,74.109 206.800,75.219 206.800 C 77.588 206.800,79.399 205.352,79.085 203.710 C 78.923 202.864,79.048 202.800,80.855 202.800 C 82.920 202.800,83.215 203.128,82.128 204.215 C 81.499 204.844,81.506 204.877,82.228 204.739 C 82.663 204.656,83.056 204.200,83.128 203.696 C 83.198 203.203,83.513 202.800,83.828 202.800 C 84.171 202.800,84.400 202.401,84.400 201.800 C 84.400 200.854,84.519 200.800,86.614 200.800 C 88.800 200.800,89.316 201.804,87.505 202.534 C 87.227 202.645,87.402 202.751,87.892 202.768 C 88.524 202.791,88.858 202.508,89.036 201.800 C 89.194 201.170,89.569 200.800,90.051 200.800 C 90.666 200.800,90.766 200.605,90.564 199.800 C 90.336 198.889,90.427 198.800,91.600 198.800 C 92.782 198.800,92.866 198.884,92.629 199.828 C 92.393 200.766,92.468 200.845,93.485 200.728 C 94.279 200.637,94.636 200.347,94.725 199.720 C 94.833 198.961,95.137 198.824,96.925 198.720 C 98.729 198.616,99.017 198.482,99.128 197.700 C 99.239 196.919,99.502 196.796,101.128 196.768 C 102.158 196.751,102.775 196.646,102.500 196.535 C 101.315 196.057,101.967 194.800,103.400 194.800 C 104.948 194.800,105.091 195.016,104.198 196.002 C 103.678 196.577,103.676 196.667,104.181 196.667 C 104.502 196.667,104.672 196.517,104.559 196.333 C 104.445 196.150,104.543 196.000,104.776 196.000 C 105.009 196.000,105.200 195.730,105.200 195.400 C 105.200 194.944,105.705 194.797,107.300 194.788 C 108.921 194.778,109.240 194.683,108.700 194.368 C 107.393 193.607,107.851 192.722,109.500 192.822 C 112.101 192.978,112.400 192.873,112.400 191.800 C 112.400 190.956,112.587 190.800,113.600 190.800 C 114.858 190.800,115.174 191.466,114.320 192.320 C 113.947 192.693,113.991 192.800,114.520 192.800 C 114.979 192.800,115.200 192.475,115.200 191.800 C 115.200 190.865,115.899 190.521,117.317 190.758 C 117.492 190.788,117.447 190.461,117.217 190.032 C 116.585 188.850,116.649 188.800,118.800 188.800 C 120.940 188.800,121.210 189.012,120.101 189.823 C 119.302 190.407,119.654 191.019,120.583 190.662 C 120.922 190.532,121.200 190.059,121.200 189.613 C 121.200 189.025,121.462 188.800,122.145 188.800 C 122.936 188.800,123.058 188.638,122.898 187.800 C 122.716 186.850,122.799 186.800,124.553 186.800 C 126.580 186.800,126.874 187.223,125.511 188.177 L 124.622 188.800 125.668 188.800 C 126.449 188.800,126.777 188.548,126.964 187.800 C 127.102 187.250,127.490 186.800,127.825 186.800 C 128.161 186.800,128.406 186.575,128.370 186.300 C 128.215 185.104,128.467 184.800,129.618 184.800 C 130.934 184.800,131.193 185.931,130.000 186.472 C 129.601 186.653,129.758 186.753,130.471 186.772 C 131.503 186.799,132.800 185.919,132.800 185.192 C 132.800 185.000,133.745 184.787,134.900 184.721 C 136.729 184.616,137.016 184.484,137.128 183.700 C 137.218 183.066,137.526 182.800,138.172 182.800 C 138.934 182.800,139.057 182.631,138.898 181.800 C 138.727 180.906,138.839 180.800,139.953 180.800 C 140.639 180.800,141.200 180.991,141.200 181.224 C 141.200 181.457,141.380 181.536,141.600 181.400 C 141.820 181.264,142.000 181.262,142.000 181.396 C 142.000 181.529,141.415 181.893,140.700 182.204 L 139.400 182.769 141.092 182.784 C 142.562 182.798,142.817 182.671,143.031 181.818 C 143.255 180.926,143.504 180.825,145.739 180.718 C 147.848 180.617,148.256 180.471,148.595 179.700 C 148.925 178.948,149.303 178.800,150.895 178.800 C 152.660 178.800,152.800 178.727,152.800 177.800 C 152.800 176.864,152.935 176.798,154.900 176.768 C 156.055 176.751,156.775 176.646,156.500 176.535 C 155.315 176.057,155.967 174.800,157.400 174.800 C 158.948 174.800,159.091 175.016,158.198 176.002 C 157.678 176.577,157.676 176.667,158.181 176.667 C 158.502 176.667,158.672 176.517,158.559 176.333 C 158.445 176.150,158.543 176.000,158.776 176.000 C 159.009 176.000,159.200 175.730,159.200 175.400 C 159.200 175.056,159.561 174.800,160.047 174.800 C 160.734 174.800,160.857 174.612,160.702 173.800 C 160.524 172.869,160.620 172.800,162.104 172.800 C 163.717 172.800,163.745 173.305,162.200 174.513 C 161.980 174.685,162.430 174.775,163.200 174.713 C 164.305 174.624,164.627 174.410,164.728 173.700 C 164.798 173.205,165.113 172.800,165.428 172.800 C 165.771 172.800,166.000 172.401,166.000 171.800 C 166.000 170.820,166.061 170.800,169.080 170.800 C 171.476 170.800,172.053 170.693,171.680 170.320 C 170.658 169.298,171.156 168.800,173.200 168.800 L 175.200 168.800 175.200 170.800 L 175.200 172.800 177.381 172.800 L 179.562 172.800 179.325 174.800 C 179.094 176.755,179.113 176.800,180.144 176.800 C 181.004 176.800,181.200 176.986,181.200 177.800 C 181.200 178.733,181.333 178.800,183.200 178.800 L 185.200 178.800 185.200 180.800 C 185.200 182.667,185.267 182.800,186.200 182.800 C 187.000 182.800,187.200 183.000,187.200 183.800 C 187.200 184.594,187.401 184.800,188.178 184.800 C 189.061 184.800,189.168 184.985,189.278 186.700 L 189.400 188.600 191.300 188.722 L 193.200 188.844 193.200 190.822 C 193.200 192.610,193.286 192.799,194.100 192.788 C 194.904 192.777,194.925 192.732,194.300 192.368 C 193.349 191.814,193.414 190.800,194.400 190.800 C 195.093 190.800,195.200 191.067,195.200 192.800 L 195.200 194.800 197.300 194.800 L 199.400 194.800 199.261 196.800 L 199.123 198.800 201.343 198.800 L 203.562 198.800 203.325 200.800 C 203.094 202.755,203.113 202.800,204.144 202.800 C 205.004 202.800,205.200 202.986,205.200 203.800 C 205.200 204.600,205.400 204.800,206.200 204.800 C 207.005 204.800,207.200 204.999,207.200 205.818 C 207.200 206.378,207.650 207.286,208.200 207.836 C 208.750 208.386,209.200 209.278,209.200 209.818 C 209.200 210.738,209.334 210.800,211.341 210.800 L 213.483 210.800 213.290 212.800 L 213.098 214.800 215.549 214.800 C 217.897 214.800,218.000 214.842,218.000 215.800 C 218.000 216.668,218.177 216.800,219.345 216.800 C 220.563 216.800,220.671 216.706,220.498 215.800 C 220.327 214.906,220.439 214.800,221.553 214.800 C 222.872 214.800,223.177 215.440,222.300 216.370 C 221.896 216.798,221.916 216.865,222.400 216.719 C 222.730 216.619,223.058 216.146,223.128 215.669 C 223.210 215.109,223.540 214.800,224.056 214.800 C 224.784 214.800,224.800 214.743,224.229 214.171 C 223.224 213.166,223.487 212.800,225.214 212.800 C 226.837 212.800,227.025 213.921,225.505 214.534 C 225.227 214.645,225.402 214.751,225.892 214.768 C 226.524 214.791,226.858 214.508,227.036 213.800 C 227.239 212.988,227.533 212.800,228.594 212.800 C 230.260 212.800,230.932 211.982,230.725 210.206 C 230.572 208.894,230.635 208.800,231.680 208.800 C 232.861 208.800,233.151 209.489,232.320 210.320 C 231.947 210.693,231.991 210.800,232.520 210.800 C 232.979 210.800,233.200 210.475,233.200 209.800 C 233.200 209.016,233.404 208.800,234.145 208.800 C 234.936 208.800,235.058 208.638,234.898 207.800 C 234.733 206.939,234.853 206.800,235.753 206.800 C 236.945 206.800,237.084 207.258,236.171 208.171 C 235.600 208.743,235.618 208.800,236.371 208.800 C 236.989 208.800,237.200 208.545,237.200 207.800 C 237.200 207.178,237.427 206.800,237.800 206.800 C 238.173 206.800,238.400 206.422,238.400 205.800 C 238.400 204.956,238.587 204.800,239.600 204.800 C 240.935 204.800,241.114 205.229,240.171 206.171 C 239.600 206.743,239.618 206.800,240.371 206.800 C 240.989 206.800,241.200 206.545,241.200 205.800 C 241.200 205.061,241.412 204.800,242.014 204.800 C 242.695 204.800,242.760 204.673,242.414 204.026 C 241.802 202.883,241.870 202.800,243.400 202.800 C 244.870 202.800,245.214 203.401,244.300 204.370 C 243.896 204.798,243.916 204.865,244.400 204.719 C 244.730 204.619,245.058 204.146,245.128 203.669 C 245.236 202.931,245.516 202.800,246.985 202.800 C 248.955 202.800,249.275 202.375,248.926 200.223 L 248.695 198.800 250.348 198.800 C 252.192 198.800,252.440 199.247,251.111 200.177 C 250.226 200.797,250.228 200.800,251.483 200.800 C 252.487 200.800,252.770 200.616,252.872 199.900 C 252.964 199.256,253.312 198.964,254.100 198.873 C 254.964 198.774,255.200 198.538,255.200 197.773 C 255.200 196.991,255.405 196.800,256.243 196.800 C 257.157 196.800,257.255 196.675,257.036 195.800 C 256.818 194.932,256.917 194.800,257.792 194.800 C 258.947 194.800,259.076 195.267,258.171 196.171 C 257.600 196.743,257.618 196.800,258.371 196.800 C 258.989 196.800,259.200 196.545,259.200 195.800 C 259.200 194.996,259.399 194.800,260.214 194.800 C 261.093 194.800,261.173 194.697,260.814 194.026 C 260.211 192.900,260.275 192.800,261.600 192.800 C 262.858 192.800,263.174 193.466,262.320 194.320 C 261.947 194.693,261.991 194.800,262.520 194.800 C 262.975 194.800,263.200 194.476,263.200 193.822 C 263.200 192.939,263.385 192.832,265.100 192.722 C 266.721 192.618,267.019 192.468,267.128 191.700 C 267.198 191.205,267.488 190.800,267.772 190.800 C 268.108 190.800,268.222 190.449,268.098 189.800 C 267.922 188.882,268.026 188.800,269.353 188.800 C 270.941 188.800,271.154 189.189,270.128 190.215 C 269.499 190.844,269.506 190.877,270.228 190.739 C 270.656 190.658,271.056 190.202,271.125 189.718 C 271.227 189.002,271.553 188.821,272.925 188.722 L 274.600 188.600 274.699 186.834 C 274.817 184.718,274.827 184.705,276.263 184.870 L 277.400 185.000 276.500 185.900 C 275.656 186.744,275.648 186.800,276.371 186.800 C 276.795 186.800,277.496 186.350,277.929 185.800 C 278.466 185.117,279.109 184.800,279.958 184.800 C 281.016 184.800,281.200 184.652,281.200 183.800 C 281.200 183.048,281.410 182.800,282.047 182.800 C 282.734 182.800,282.857 182.612,282.702 181.800 C 282.534 180.922,282.650 180.800,283.655 180.800 C 284.939 180.800,285.104 181.239,284.171 182.171 C 283.600 182.743,283.618 182.800,284.371 182.800 C 284.989 182.800,285.200 182.545,285.200 181.800 C 285.200 181.172,285.426 180.800,285.808 180.800 C 286.256 180.800,286.349 180.538,286.164 179.800 C 285.911 178.790,287.754 178.458,291.849 178.778 C 292.881 178.858,293.225 178.082,292.986 176.211 L 292.805 174.800 294.602 174.800 C 296.572 174.800,296.728 174.975,295.738 176.069 C 295.116 176.755,295.128 176.800,295.930 176.800 C 296.508 176.800,296.866 176.476,297.036 175.800 C 297.229 175.029,297.545 174.800,298.415 174.800 C 299.512 174.800,300.800 173.921,300.800 173.171 C 300.800 172.967,301.340 172.800,302.000 172.800 C 303.013 172.800,303.200 172.644,303.200 171.800 C 303.200 171.067,303.413 170.800,304.000 170.800 C 304.587 170.800,304.800 170.533,304.800 169.800 C 304.800 169.000,305.000 168.800,305.800 168.800 C 306.948 168.800,307.075 169.268,306.171 170.171 C 305.600 170.743,305.618 170.800,306.371 170.800 C 306.989 170.800,307.200 170.545,307.200 169.800 C 307.200 169.067,307.413 168.800,308.000 168.800 C 308.587 168.800,308.800 168.533,308.800 167.800 C 308.800 167.019,309.004 166.800,309.733 166.800 C 310.296 166.800,310.667 167.038,310.667 167.400 C 310.667 167.730,310.517 168.000,310.333 168.000 C 310.150 168.000,310.000 168.180,310.000 168.400 C 310.000 168.620,310.270 168.800,310.600 168.800 C 310.973 168.800,311.200 168.422,311.200 167.800 C 311.200 167.250,311.380 166.800,311.600 166.800 C 311.820 166.800,312.000 166.350,312.000 165.800 C 312.000 164.924,312.173 164.800,313.400 164.800 C 314.870 164.800,315.214 165.401,314.300 166.370 C 313.896 166.798,313.916 166.865,314.400 166.719 C 314.730 166.619,315.058 166.146,315.128 165.669 C 315.237 164.927,315.515 164.800,317.028 164.800 C 318.944 164.800,319.007 164.704,318.824 162.075 C 318.724 160.638,321.865 160.172,322.321 161.556 C 322.443 161.926,322.332 162.005,321.990 161.794 C 321.666 161.594,321.575 161.636,321.743 161.908 C 321.890 162.145,321.693 162.431,321.305 162.544 C 320.891 162.663,321.013 162.717,321.600 162.674 C 322.359 162.618,322.592 162.383,322.568 161.700 C 322.541 160.941,322.744 160.800,323.868 160.800 C 325.022 160.800,325.200 160.666,325.200 159.800 C 325.200 159.067,325.413 158.800,326.000 158.800 C 326.587 158.800,326.800 158.533,326.800 157.800 C 326.800 157.000,327.000 156.800,327.800 156.800 C 328.948 156.800,329.075 157.268,328.171 158.171 C 327.600 158.743,327.618 158.800,328.371 158.800 C 328.989 158.800,329.200 158.545,329.200 157.800 C 329.200 157.220,329.430 156.800,329.748 156.800 C 330.064 156.800,330.275 156.419,330.248 155.900 C 330.198 154.965,330.214 154.961,334.045 154.834 C 334.937 154.805,335.061 154.654,334.898 153.800 C 334.744 152.995,334.868 152.800,335.530 152.800 C 336.674 152.800,336.934 153.409,336.132 154.211 C 335.498 154.845,335.504 154.877,336.228 154.740 C 336.839 154.623,337.025 154.198,337.122 152.696 L 337.244 150.800 339.036 150.800 C 340.825 150.800,341.118 151.884,339.505 152.534 C 339.227 152.645,339.402 152.751,339.892 152.768 C 340.519 152.791,340.858 152.509,341.030 151.822 C 341.226 151.042,341.571 150.819,342.729 150.722 C 343.809 150.631,344.311 150.343,344.685 149.600 C 345.180 148.616,345.188 148.624,345.194 150.067 C 345.202 152.007,345.542 152.807,346.343 152.768 C 346.762 152.748,346.818 152.663,346.498 152.534 C 346.221 152.423,346.114 152.139,346.259 151.904 C 346.416 151.651,346.335 151.593,346.062 151.762 C 345.808 151.919,345.600 151.863,345.600 151.638 C 345.600 151.412,345.960 151.035,346.400 150.800 C 347.118 150.416,347.200 150.496,347.200 151.586 C 347.200 152.614,347.353 152.800,348.200 152.800 C 349.127 152.800,349.200 152.939,349.200 154.716 C 349.200 156.533,349.255 156.631,350.276 156.616 C 351.100 156.604,351.410 156.835,351.594 157.600 C 352.003 159.296,355.000 159.484,355.000 157.814 C 355.000 156.808,355.154 156.608,355.900 156.648 C 356.717 156.691,356.800 156.515,356.800 154.748 C 356.800 152.974,356.883 152.800,357.733 152.800 C 358.296 152.800,358.667 153.038,358.667 153.400 C 358.667 153.730,358.517 154.000,358.333 154.000 C 358.150 154.000,358.000 154.180,358.000 154.400 C 358.000 154.620,358.270 154.800,358.600 154.800 C 359.053 154.800,359.200 154.311,359.200 152.800 C 359.200 150.933,359.267 150.800,360.200 150.800 C 361.227 150.800,361.441 150.060,361.214 147.285 C 361.148 146.478,361.268 146.402,362.229 146.643 L 363.319 146.916 363.045 144.858 C 362.779 142.850,362.797 142.800,363.786 142.800 C 364.963 142.800,365.076 143.267,364.128 144.215 C 363.499 144.844,363.506 144.877,364.228 144.740 C 364.839 144.623,365.025 144.198,365.122 142.696 C 365.232 140.985,365.339 140.800,366.222 140.800 C 367.129 140.800,367.200 140.655,367.200 138.800 C 367.200 136.916,367.260 136.800,368.233 136.800 C 369.234 136.800,369.260 136.736,369.075 134.758 L 368.883 132.717 370.097 132.959 L 371.310 133.202 371.052 131.001 C 370.799 128.849,370.815 128.800,371.797 128.800 C 372.865 128.800,373.115 129.525,372.320 130.320 C 371.947 130.693,371.991 130.800,372.520 130.800 C 372.979 130.800,373.200 130.475,373.200 129.800 C 373.200 129.250,373.545 128.455,373.966 128.034 C 374.590 127.410,374.671 126.999,374.401 125.804 C 373.795 123.118,374.721 123.227,352.349 123.213 C 329.489 123.198,331.077 122.953,331.278 126.468 L 331.400 128.600 333.400 128.600 L 335.400 128.600 335.261 130.734 C 335.122 132.855,335.128 132.867,336.221 132.734 C 337.314 132.601,337.320 132.613,337.360 135.123 C 337.395 137.318,337.530 137.746,338.400 138.414 L 339.400 139.182 337.300 139.191 C 335.329 139.199,335.200 139.261,335.200 140.200 C 335.200 141.017,334.998 141.206,334.100 141.232 C 333.495 141.249,333.225 141.354,333.500 141.465 C 335.042 142.087,333.968 143.200,331.826 143.200 C 329.726 143.200,329.659 143.234,329.834 144.200 C 330.034 145.302,327.890 145.754,327.465 144.700 C 327.354 144.425,327.249 144.875,327.232 145.700 C 327.200 147.178,327.177 147.200,325.600 147.200 C 324.720 147.200,324.000 147.020,324.000 146.800 C 324.000 146.580,323.997 146.281,323.993 146.136 C 323.989 145.990,324.561 145.808,325.264 145.731 C 327.158 145.524,327.174 145.200,325.290 145.200 C 323.379 145.200,323.099 145.516,323.128 147.637 L 323.150 149.200 321.313 149.200 C 319.327 149.200,319.654 147.885,321.742 147.477 C 322.564 147.316,322.561 147.307,321.681 147.254 C 321.161 147.224,320.359 147.634,319.835 148.200 C 319.325 148.750,318.524 149.200,318.054 149.200 C 317.467 149.200,317.200 149.450,317.200 150.000 C 317.200 150.440,317.380 150.800,317.600 150.800 C 317.820 150.800,318.000 150.620,318.000 150.400 C 318.000 150.180,318.270 150.000,318.600 150.000 C 318.930 150.000,319.200 150.270,319.200 150.600 C 319.200 151.051,318.717 151.200,317.255 151.200 C 315.397 151.200,315.319 151.244,315.502 152.200 C 315.687 153.168,315.624 153.200,313.502 153.200 C 311.381 153.200,311.317 153.232,311.502 154.200 L 311.693 155.200 308.447 155.200 C 305.250 155.200,305.200 155.215,305.200 156.200 C 305.200 156.969,304.992 157.201,304.300 157.206 C 303.783 157.210,303.587 157.337,303.839 157.506 C 305.002 158.283,304.284 159.253,302.633 159.135 C 301.067 159.024,301.005 159.064,301.129 160.110 C 301.239 161.047,301.113 161.200,300.229 161.200 C 299.663 161.200,299.200 160.998,299.200 160.751 C 299.200 160.455,298.962 160.486,298.500 160.844 C 297.948 161.271,297.964 161.194,298.575 160.479 C 299.001 159.980,299.586 159.662,299.875 159.773 C 300.164 159.884,300.400 159.801,300.400 159.587 C 300.400 157.767,297.491 159.944,297.441 161.802 L 297.400 163.328 294.300 163.238 C 291.297 163.151,291.200 163.177,291.212 164.074 C 291.223 164.896,291.270 164.921,291.632 164.300 C 292.186 163.349,293.200 163.414,293.200 164.400 C 293.200 165.129,292.933 165.200,290.200 165.200 C 287.267 165.200,287.200 165.222,287.200 166.200 C 287.200 167.017,286.998 167.206,286.100 167.232 C 285.495 167.249,285.225 167.354,285.500 167.465 C 287.373 168.221,285.911 169.171,282.700 169.284 C 279.062 169.412,279.377 169.136,279.239 172.313 C 279.205 173.099,279.008 173.212,277.811 173.132 C 276.556 173.047,276.479 172.975,277.011 172.388 C 277.790 171.527,277.754 171.200,276.880 171.200 C 275.758 171.200,275.200 172.024,275.200 173.680 C 275.200 174.933,275.060 175.200,274.400 175.200 C 273.414 175.200,273.349 174.186,274.300 173.632 C 274.925 173.268,274.904 173.223,274.100 173.212 C 273.403 173.203,273.200 173.426,273.200 174.200 C 273.200 174.984,272.996 175.200,272.255 175.200 C 271.464 175.200,271.342 175.362,271.502 176.200 C 271.686 177.161,271.614 177.200,269.647 177.200 C 267.730 177.200,267.600 177.264,267.600 178.200 C 267.600 179.183,267.547 179.200,264.400 179.200 C 261.345 179.200,261.201 179.241,261.212 180.100 C 261.223 180.904,261.268 180.925,261.632 180.300 C 262.186 179.349,263.200 179.414,263.200 180.400 C 263.200 181.052,262.933 181.200,261.757 181.200 C 260.417 181.200,260.331 181.272,260.564 182.200 C 260.801 183.142,260.723 183.200,259.208 183.200 C 258.191 183.200,257.598 183.016,257.594 182.700 C 257.589 182.326,257.512 182.319,257.289 182.670 C 257.124 182.929,256.272 183.199,255.395 183.270 C 254.196 183.368,253.702 183.624,253.405 184.300 C 253.163 184.852,252.660 185.200,252.105 185.200 C 251.406 185.200,251.200 185.428,251.200 186.200 C 251.200 186.984,250.996 187.200,250.255 187.200 C 249.464 187.200,249.342 187.362,249.502 188.200 L 249.693 189.200 246.447 189.200 C 243.250 189.200,243.200 189.215,243.200 190.200 C 243.200 190.822,242.973 191.200,242.600 191.200 C 242.227 191.200,242.000 191.578,242.000 192.200 C 242.000 193.188,241.960 193.200,238.600 193.200 L 235.200 193.200 235.200 195.200 L 235.200 197.200 232.270 197.200 C 229.661 197.200,229.236 197.310,228.400 198.200 C 227.828 198.809,227.019 199.200,226.330 199.200 C 225.467 199.200,225.200 199.389,225.200 200.000 C 225.200 200.458,225.467 200.800,225.824 200.800 C 226.167 200.800,226.355 200.650,226.241 200.467 C 226.128 200.283,226.297 200.133,226.618 200.133 C 226.938 200.133,227.200 200.373,227.200 200.667 C 227.200 201.032,226.633 201.200,225.400 201.200 C 223.747 201.200,223.600 201.281,223.600 202.200 C 223.600 203.156,223.493 203.200,221.200 203.200 C 219.067 203.200,218.800 203.111,218.800 202.400 C 218.800 201.942,219.067 201.600,219.424 201.600 C 219.793 201.600,219.931 201.788,219.762 202.062 C 219.593 202.335,219.651 202.416,219.904 202.259 C 220.139 202.114,220.423 202.221,220.534 202.498 C 220.661 202.811,220.749 202.747,220.768 202.327 C 220.786 201.957,220.440 201.540,220.000 201.400 C 219.560 201.260,219.200 200.888,219.200 200.573 C 219.200 200.258,219.009 200.000,218.776 200.000 C 218.543 200.000,218.464 199.820,218.600 199.600 C 218.736 199.380,218.657 199.200,218.424 199.200 C 217.887 199.200,217.871 199.873,218.400 200.200 C 219.193 200.690,218.828 201.660,217.900 201.528 C 217.009 201.401,216.297 199.600,217.138 199.600 C 217.369 199.600,217.412 199.157,217.243 198.523 C 216.948 197.421,215.035 196.497,214.578 197.235 C 213.696 198.662,212.716 197.535,212.983 195.400 C 213.254 193.232,213.242 193.200,212.229 193.200 C 211.398 193.200,211.200 193.007,211.200 192.200 C 211.200 191.400,211.000 191.200,210.200 191.200 C 209.400 191.200,209.200 191.000,209.200 190.200 C 209.200 189.400,209.000 189.200,208.200 189.200 C 207.400 189.200,207.200 189.000,207.200 188.200 C 207.200 187.400,207.000 187.200,206.200 187.200 C 205.400 187.200,205.200 187.000,205.200 186.200 C 205.200 185.400,205.000 185.200,204.200 185.200 C 203.377 185.200,203.199 185.005,203.195 184.100 C 203.185 182.216,202.751 181.200,201.953 181.200 C 201.539 181.200,201.200 180.930,201.200 180.600 C 201.200 180.270,201.026 180.000,200.813 180.000 C 200.599 180.000,200.529 180.270,200.655 180.600 C 200.823 181.036,200.608 181.200,199.871 181.200 C 199.123 181.200,198.822 180.963,198.728 180.300 C 198.645 179.718,198.278 179.354,197.690 179.271 C 196.842 179.151,196.798 179.008,197.042 177.171 C 197.297 175.243,197.280 175.200,196.252 175.200 C 195.397 175.200,195.200 175.013,195.200 174.200 C 195.200 173.650,195.058 173.200,194.884 173.200 C 194.711 173.200,194.576 173.693,194.584 174.295 C 194.596 175.128,194.409 175.389,193.800 175.388 C 193.086 175.386,193.014 175.162,193.129 173.293 C 193.252 171.278,193.219 171.200,192.229 171.200 C 191.398 171.200,191.200 171.007,191.200 170.200 C 191.200 169.400,191.000 169.200,190.200 169.200 C 189.400 169.200,189.200 169.000,189.200 168.200 C 189.200 167.400,189.000 167.200,188.200 167.200 C 187.400 167.200,187.200 167.000,187.200 166.200 C 187.200 165.356,187.013 165.200,186.000 165.200 C 185.340 165.200,184.800 165.016,184.800 164.792 C 184.800 164.568,185.250 164.466,185.800 164.566 C 187.027 164.788,187.095 164.252,185.942 163.444 C 185.413 163.074,184.646 162.931,183.942 163.072 C 183.061 163.248,182.800 163.152,182.800 162.650 C 182.800 162.046,183.175 161.858,183.900 162.100 C 184.065 162.155,184.142 162.380,184.071 162.600 C 184.001 162.820,184.156 162.791,184.417 162.535 C 184.967 161.995,184.602 161.200,183.804 161.200 C 183.502 161.200,183.198 160.795,183.128 160.300 C 183.013 159.489,182.806 159.410,181.026 159.504 C 178.809 159.622,178.277 159.176,178.845 157.681 C 179.512 155.927,178.963 155.200,176.973 155.200 C 175.348 155.200,175.200 155.284,175.200 156.200 C 175.200 157.178,175.133 157.200,172.200 157.200 C 169.282 157.200,169.200 157.227,169.200 158.182 C 169.200 159.115,169.068 159.169,166.500 159.282 C 164.143 159.385,163.750 159.514,163.405 160.300 C 163.188 160.795,162.672 161.200,162.259 161.200 C 161.672 161.200,161.549 161.420,161.698 162.200 C 161.889 163.197,161.880 163.200,158.645 163.246 C 156.860 163.272,155.715 163.375,156.100 163.476 C 158.192 164.022,156.796 165.200,154.055 165.200 C 151.344 165.200,151.313 165.212,151.502 166.200 C 151.680 167.130,151.583 167.200,150.113 167.200 C 148.093 167.200,147.729 166.817,148.882 165.902 L 149.800 165.174 148.600 165.287 C 147.703 165.371,147.368 165.627,147.272 166.300 C 147.192 166.866,146.867 167.200,146.399 167.200 C 145.822 167.200,145.694 167.426,145.834 168.200 C 145.995 169.086,145.878 169.200,144.808 169.200 C 143.548 169.200,143.018 167.901,144.100 167.465 C 144.399 167.344,144.318 167.250,143.900 167.232 C 143.412 167.210,143.200 167.502,143.200 168.200 C 143.200 169.000,143.000 169.200,142.200 169.200 C 141.400 169.200,141.200 169.400,141.200 170.200 C 141.200 171.178,141.133 171.200,138.200 171.200 C 135.267 171.200,135.200 171.222,135.200 172.200 C 135.200 173.093,135.036 173.200,133.667 173.200 C 132.591 173.200,132.133 173.026,132.133 172.618 C 132.133 172.297,132.283 172.128,132.467 172.241 C 132.650 172.355,132.800 172.236,132.800 171.977 C 132.800 171.704,133.135 171.594,133.600 171.716 C 134.039 171.831,134.500 171.762,134.623 171.562 C 134.746 171.363,134.027 171.200,133.024 171.200 C 131.345 171.200,131.200 171.280,131.200 172.200 C 131.200 173.135,131.068 173.200,129.182 173.200 C 127.562 173.200,126.966 173.398,126.164 174.200 C 125.366 174.998,124.762 175.200,123.182 175.200 C 121.335 175.200,121.200 175.268,121.200 176.200 C 121.200 177.114,121.050 177.200,119.455 177.200 C 117.810 177.200,117.722 177.257,117.902 178.200 C 118.113 179.303,115.892 179.759,115.465 178.700 C 115.304 178.300,115.257 178.300,115.232 178.700 C 115.213 178.999,114.598 179.213,113.700 179.232 C 112.875 179.249,112.425 179.354,112.700 179.465 C 114.080 180.022,113.197 181.200,111.400 181.200 C 110.410 181.200,109.600 181.020,109.600 180.800 C 109.600 180.580,109.735 180.445,109.900 180.500 C 110.065 180.555,110.234 180.420,110.276 180.200 C 110.318 179.980,110.768 179.675,111.276 179.522 C 112.059 179.285,112.017 179.255,111.000 179.322 C 110.185 179.375,109.673 179.689,109.405 180.300 C 109.188 180.795,108.783 181.200,108.505 181.200 C 108.227 181.200,108.000 181.650,108.000 182.200 C 108.000 183.174,107.925 183.200,105.120 183.200 C 102.880 183.200,102.347 183.307,102.720 183.680 C 103.720 184.680,103.245 185.200,101.330 185.200 L 99.461 185.200 100.400 184.200 L 101.339 183.200 100.270 183.200 C 99.395 183.200,99.200 183.383,99.200 184.200 C 99.200 184.950,98.990 185.200,98.357 185.200 C 97.667 185.200,97.557 185.374,97.754 186.158 C 98.045 187.319,97.616 187.497,95.205 187.212 L 93.410 187.000 94.605 186.064 L 95.800 185.128 94.600 185.264 C 93.712 185.365,93.367 185.634,93.272 186.300 C 93.192 186.866,92.867 187.200,92.399 187.200 C 91.822 187.200,91.694 187.426,91.834 188.200 C 91.999 189.108,91.889 189.200,90.643 189.200 C 89.191 189.200,88.857 188.315,90.028 187.574 C 90.510 187.269,90.501 187.211,89.970 187.206 C 89.623 187.203,88.917 187.650,88.400 188.200 C 87.626 189.024,87.085 189.200,85.330 189.200 C 83.325 189.200,83.200 189.259,83.200 190.200 C 83.200 191.000,83.000 191.200,82.200 191.200 C 81.186 191.200,80.864 191.745,81.607 192.204 C 82.453 192.727,81.479 193.200,79.556 193.200 L 77.559 193.200 78.638 192.200 L 79.717 191.200 78.458 191.200 C 77.383 191.200,77.200 191.345,77.200 192.200 C 77.200 193.146,77.081 193.200,74.981 193.200 C 73.128 193.200,72.609 193.365,71.835 194.200 C 71.325 194.750,70.520 195.200,70.047 195.200 C 69.327 195.200,69.226 195.365,69.436 196.200 L 69.687 197.200 66.543 197.206 C 64.815 197.209,63.580 197.344,63.800 197.506 C 65.185 198.524,64.415 199.200,61.873 199.200 C 59.343 199.200,59.313 199.213,59.506 200.219 C 59.691 201.188,59.620 201.234,58.065 201.142 C 56.420 201.045,56.352 200.624,57.800 199.485 C 58.020 199.312,57.660 199.222,57.000 199.285 C 56.207 199.361,55.666 199.705,55.405 200.300 C 55.188 200.795,54.780 201.200,54.498 201.200 C 54.150 201.200,54.066 201.523,54.236 202.200 L 54.487 203.200 50.743 203.154 C 48.685 203.128,47.360 203.017,47.800 202.907 C 48.240 202.797,48.732 202.503,48.894 202.254 C 49.229 201.736,49.316 107.351,48.981 107.686 C 48.860 107.806,48.774 128.856,48.790 154.464 C 48.820 202.884,48.791 203.772,47.266 202.200 C 47.019 201.946,46.796 173.187,46.655 123.374 C 46.532 80.240,46.315 44.645,46.173 44.274 C 45.948 43.688,45.212 43.600,40.557 43.600 L 35.200 43.600 35.200 42.633 C 35.200 42.102,35.425 41.576,35.700 41.465 C 35.975 41.354,35.645 41.249,34.967 41.232 C 34.288 41.214,33.613 41.320,33.467 41.467 M48.428 41.476 C 48.518 42.515,49.144 43.396,49.172 42.524 C 49.187 42.042,49.020 41.536,48.800 41.400 C 48.580 41.264,48.413 41.298,48.428 41.476 M48.954 48.400 C 48.954 51.150,49.018 52.275,49.096 50.900 C 49.174 49.525,49.174 47.275,49.096 45.900 C 49.018 44.525,48.954 45.650,48.954 48.400 M35.200 50.880 C 35.200 51.526,35.082 51.642,34.755 51.315 C 34.510 51.070,34.431 50.674,34.578 50.435 C 34.992 49.765,35.200 49.914,35.200 50.880 M48.643 54.633 C 48.297 55.533,48.394 58.454,48.800 59.400 C 49.033 59.943,49.153 59.204,49.172 57.100 C 49.200 53.980,49.090 53.467,48.643 54.633 M48.987 83.800 C 48.987 96.560,49.038 101.838,49.100 95.529 C 49.162 89.219,49.162 78.779,49.100 72.329 C 49.038 65.878,48.987 71.040,48.987 83.800 M333.200 127.216 C 333.200 127.893,333.106 127.944,332.644 127.516 C 332.242 127.142,332.214 126.919,332.544 126.706 C 333.184 126.293,333.200 126.305,333.200 127.216 M373.680 127.680 C 373.307 128.053,373.200 127.947,373.200 127.200 C 373.200 126.453,373.307 126.347,373.680 126.720 C 374.053 127.093,374.053 127.307,373.680 127.680 M369.867 133.867 C 369.406 134.327,369.575 134.800,370.200 134.800 C 370.530 134.800,370.800 134.530,370.800 134.200 C 370.800 133.575,370.327 133.406,369.867 133.867 M368.516 135.600 C 368.401 136.040,368.079 136.400,367.800 136.400 C 367.521 136.400,367.199 136.040,367.084 135.600 C 366.919 134.970,367.072 134.800,367.800 134.800 C 368.528 134.800,368.681 134.970,368.516 135.600 M337.200 140.600 C 337.200 140.930,336.846 141.200,336.413 141.200 C 335.877 141.200,335.699 141.008,335.855 140.600 C 335.982 140.270,336.336 140.000,336.643 140.000 C 336.949 140.000,337.200 140.270,337.200 140.600 M331.200 142.062 C 331.200 142.899,331.224 142.903,332.000 142.200 C 332.440 141.802,332.800 141.414,332.800 141.338 C 332.800 141.262,332.440 141.200,332.000 141.200 C 331.447 141.200,331.200 141.467,331.200 142.062 M361.969 147.220 C 361.953 147.319,361.878 147.715,361.805 148.100 C 361.657 148.873,362.199 149.049,362.622 148.365 C 362.769 148.126,362.690 147.730,362.445 147.485 C 362.200 147.240,361.986 147.121,361.969 147.220 M343.355 149.500 C 343.167 150.098,343.227 150.087,343.767 149.424 C 344.115 148.996,344.400 148.839,344.400 149.075 C 344.400 149.634,343.534 150.269,342.900 150.175 C 342.625 150.134,342.209 150.078,341.976 150.050 C 341.743 150.023,341.655 149.835,341.779 149.634 C 341.903 149.433,341.779 149.177,341.502 149.066 C 341.226 148.954,341.579 148.849,342.287 148.832 C 343.338 148.806,343.534 148.929,343.355 149.500 M309.200 154.062 C 309.200 154.899,309.224 154.903,310.000 154.200 C 310.440 153.802,310.800 153.414,310.800 153.338 C 310.800 153.262,310.440 153.200,310.000 153.200 C 309.447 153.200,309.200 153.467,309.200 154.062 M307.316 156.400 C 307.482 157.036,307.328 157.200,306.563 157.200 C 305.473 157.200,305.385 157.010,306.100 156.198 C 306.788 155.417,307.071 155.464,307.316 156.400 M177.200 156.600 C 177.200 156.930,176.908 157.200,176.551 157.200 C 176.020 157.200,175.992 157.091,176.400 156.600 C 176.674 156.270,176.966 156.000,177.049 156.000 C 177.132 156.000,177.200 156.270,177.200 156.600 M180.481 157.982 C 181.033 158.866,181.422 158.755,181.062 157.817 C 180.932 157.478,180.638 157.200,180.409 157.200 C 180.146 157.200,180.172 157.487,180.481 157.982 M301.384 157.627 C 301.239 157.861,301.216 158.149,301.333 158.267 C 301.620 158.553,302.400 158.048,302.400 157.576 C 302.400 157.065,301.709 157.099,301.384 157.627 M171.529 158.533 C 171.623 159.016,171.375 159.200,170.629 159.200 C 169.473 159.200,169.377 159.019,170.100 158.199 C 170.718 157.499,171.358 157.648,171.529 158.533 M324.400 159.600 C 324.165 160.040,323.708 160.400,323.386 160.400 C 323.064 160.400,322.800 160.040,322.800 159.600 C 322.800 159.010,323.067 158.800,323.814 158.800 C 324.704 158.800,324.776 158.898,324.400 159.600 M350.600 159.600 C 350.998 160.040,351.369 160.400,351.425 160.400 C 351.480 160.400,351.431 160.040,351.316 159.600 C 351.201 159.160,350.830 158.800,350.491 158.800 C 349.974 158.800,349.991 158.927,350.600 159.600 M166.000 160.600 C 166.000 160.939,165.642 161.200,165.176 161.200 C 164.720 161.200,164.465 161.019,164.604 160.793 C 164.742 160.570,165.023 160.491,165.228 160.617 C 165.432 160.744,165.600 160.657,165.600 160.424 C 165.600 160.191,165.690 160.000,165.800 160.000 C 165.910 160.000,166.000 160.270,166.000 160.600 M318.400 163.151 C 318.400 163.676,317.366 164.433,317.063 164.130 C 316.516 163.582,316.831 162.800,317.600 162.800 C 318.040 162.800,318.400 162.958,318.400 163.151 M153.206 164.100 C 153.211 164.763,153.304 164.856,153.559 164.453 C 153.750 164.152,154.152 163.750,154.453 163.559 C 154.856 163.304,154.763 163.211,154.100 163.206 C 153.430 163.202,153.202 163.430,153.206 164.100 M289.600 166.400 C 289.600 166.987,289.333 167.200,288.600 167.200 C 287.508 167.200,287.334 166.826,288.080 166.080 C 288.816 165.344,289.600 165.509,289.600 166.400 M283.206 168.100 C 283.211 168.763,283.304 168.856,283.559 168.453 C 283.750 168.152,284.152 167.750,284.453 167.559 C 284.856 167.304,284.763 167.211,284.100 167.206 C 283.430 167.202,283.202 167.430,283.206 168.100 M347.200 168.400 C 347.200 168.844,346.933 169.200,346.600 169.200 C 345.877 169.200,345.827 168.733,346.480 168.080 C 347.126 167.434,347.200 167.468,347.200 168.400 M137.200 170.062 C 137.200 170.899,137.224 170.903,138.000 170.200 C 138.440 169.802,138.800 169.414,138.800 169.338 C 138.800 169.262,138.440 169.200,138.000 169.200 C 137.447 169.200,137.200 169.467,137.200 170.062 M341.200 170.062 C 341.200 170.899,341.224 170.903,342.000 170.200 C 342.440 169.802,342.800 169.414,342.800 169.338 C 342.800 169.262,342.440 169.200,342.000 169.200 C 341.447 169.200,341.200 169.467,341.200 170.062 M281.750 169.919 C 282.130 170.533,281.301 171.269,280.380 171.135 C 279.493 171.006,279.483 170.968,280.154 170.300 C 280.916 169.542,281.440 169.417,281.750 169.919 M177.194 171.700 C 177.189 172.363,177.096 172.456,176.841 172.053 C 176.650 171.752,176.248 171.350,175.947 171.159 C 175.544 170.904,175.637 170.811,176.300 170.806 C 176.970 170.802,177.198 171.030,177.194 171.700 M302.134 171.100 C 302.234 171.265,302.065 171.632,301.758 171.916 C 301.294 172.344,301.200 172.293,301.200 171.616 C 301.200 170.819,301.773 170.503,302.134 171.100 M339.827 172.500 C 339.904 173.026,339.648 173.200,338.800 173.200 C 337.835 173.200,337.448 172.528,337.969 171.755 C 338.229 171.370,339.751 171.980,339.827 172.500 M299.896 173.312 C 299.832 173.503,299.650 173.647,299.490 173.630 C 299.330 173.614,298.750 173.600,298.200 173.600 C 297.650 173.600,297.200 173.414,297.200 173.187 C 297.200 172.961,297.833 172.818,298.606 172.870 C 299.379 172.922,299.960 173.121,299.896 173.312 M333.384 173.627 C 333.239 173.861,333.216 174.149,333.333 174.267 C 333.620 174.553,334.400 174.048,334.400 173.576 C 334.400 173.065,333.709 173.099,333.384 173.627 M123.915 176.318 C 123.523 176.802,123.519 176.882,123.900 176.653 C 124.175 176.488,124.400 176.543,124.400 176.776 C 124.400 177.009,123.770 177.200,123.000 177.200 C 121.502 177.200,121.340 177.044,122.051 176.283 C 122.793 175.490,124.559 175.523,123.915 176.318 M152.130 177.361 C 152.248 177.669,152.239 178.028,152.109 178.157 C 151.827 178.440,150.800 177.650,150.800 177.151 C 150.800 176.579,151.896 176.752,152.130 177.361 M183.200 177.175 C 183.200 177.381,182.840 177.523,182.400 177.490 C 181.960 177.457,181.600 177.288,181.600 177.115 C 181.600 176.942,181.960 176.800,182.400 176.800 C 182.840 176.800,183.200 176.969,183.200 177.175 M292.466 177.151 C 292.172 177.337,291.947 177.604,291.966 177.745 C 291.985 177.885,291.910 178.000,291.800 178.000 C 291.690 178.000,291.420 178.000,291.200 178.000 C 290.980 178.000,290.800 177.730,290.800 177.400 C 290.800 177.011,291.186 176.802,291.900 176.806 C 292.656 176.810,292.833 176.918,292.466 177.151 M197.834 177.478 C 198.073 177.655,198.483 178.160,198.745 178.600 C 199.195 179.356,199.215 179.346,199.111 178.404 C 199.040 177.766,198.713 177.363,198.200 177.283 C 197.725 177.208,197.576 177.287,197.834 177.478 M183.206 179.900 C 183.203 180.395,183.380 180.800,183.600 180.800 C 184.101 180.800,184.101 180.376,183.600 179.600 C 183.286 179.115,183.211 179.172,183.206 179.900 M280.452 183.337 C 280.207 183.632,280.112 183.979,280.240 184.107 C 280.368 184.235,280.142 184.291,279.737 184.232 C 278.494 184.050,278.566 182.800,279.820 182.800 C 280.676 182.800,280.806 182.910,280.452 183.337 M255.600 184.624 C 255.600 184.941,255.308 185.200,254.951 185.200 C 254.453 185.200,254.406 185.075,254.748 184.663 C 254.993 184.368,255.060 183.979,254.897 183.799 C 254.733 183.619,254.825 183.601,255.100 183.759 C 255.375 183.918,255.600 184.307,255.600 184.624 M253.200 186.400 C 253.200 186.933,252.933 187.200,252.400 187.200 C 251.629 187.200,251.316 186.417,251.867 185.867 C 252.417 185.316,253.200 185.629,253.200 186.400 M274.000 187.200 C 274.000 188.406,272.968 188.685,272.673 187.559 C 272.530 187.010,272.685 186.800,273.237 186.800 C 273.657 186.800,274.000 186.980,274.000 187.200 M171.200 190.062 C 171.200 190.914,171.211 190.915,172.100 190.166 C 172.595 189.750,173.075 189.362,173.167 189.304 C 173.258 189.247,172.853 189.200,172.267 189.200 C 171.441 189.200,171.200 189.395,171.200 190.062 M245.200 190.400 C 245.200 190.933,244.933 191.200,244.400 191.200 C 243.493 191.200,243.375 190.785,244.080 190.080 C 244.785 189.375,245.200 189.493,245.200 190.400 M266.293 191.634 C 266.337 192.230,266.181 192.402,265.745 192.234 C 265.409 192.105,265.059 192.000,264.967 192.000 C 264.875 192.000,264.800 191.730,264.800 191.400 C 264.800 190.451,266.220 190.674,266.293 191.634 M74.916 194.400 C 75.082 195.036,74.928 195.200,74.163 195.200 C 73.633 195.200,73.200 194.998,73.200 194.751 C 73.200 194.457,72.958 194.492,72.500 194.851 C 71.865 195.349,71.851 195.335,72.353 194.695 C 72.777 194.154,73.033 194.096,73.453 194.444 C 73.954 194.860,74.168 194.664,74.047 193.900 C 73.939 193.213,74.724 193.665,74.916 194.400 M109.867 193.867 C 109.406 194.327,109.575 194.800,110.200 194.800 C 110.530 194.800,110.800 194.530,110.800 194.200 C 110.800 193.575,110.327 193.406,109.867 193.867 M237.600 194.643 C 237.600 194.970,237.188 195.200,236.600 195.200 C 235.523 195.200,235.334 194.826,236.049 194.111 C 236.607 193.553,237.600 193.894,237.600 194.643 M67.200 196.062 C 67.200 196.899,67.224 196.903,68.000 196.200 C 68.440 195.802,68.800 195.414,68.800 195.338 C 68.800 195.262,68.440 195.200,68.000 195.200 C 67.447 195.200,67.200 195.467,67.200 196.062 M155.206 196.100 C 155.211 196.763,155.304 196.856,155.559 196.453 C 155.750 196.152,156.152 195.750,156.453 195.559 C 156.856 195.304,156.763 195.211,156.100 195.206 C 155.430 195.202,155.202 195.430,155.206 196.100 M231.338 195.817 C 231.208 196.157,231.209 196.542,231.341 196.674 C 231.626 196.959,232.800 196.055,232.800 195.551 C 232.800 194.947,231.587 195.168,231.338 195.817 M254.172 197.155 C 254.293 197.350,254.133 197.723,253.818 197.985 C 253.351 198.373,253.257 198.308,253.308 197.630 C 253.373 196.769,253.791 196.539,254.172 197.155 M231.200 198.400 C 231.200 198.987,230.933 199.200,230.200 199.200 C 229.111 199.200,229.085 199.166,229.443 198.233 C 229.803 197.294,231.200 197.427,231.200 198.400 M248.130 201.063 C 248.492 201.425,247.595 202.444,247.155 202.172 C 246.603 201.831,246.737 200.800,247.333 200.800 C 247.627 200.800,247.985 200.918,248.130 201.063 M133.293 206.000 C 133.568 206.440,134.030 206.800,134.320 206.800 C 134.610 206.800,134.737 206.979,134.602 207.197 C 134.467 207.415,134.541 207.910,134.766 208.297 C 135.108 208.884,135.178 208.791,135.188 207.733 C 135.206 205.865,134.829 205.200,133.754 205.200 C 132.893 205.200,132.845 205.283,133.293 206.000 M192.000 208.643 C 192.000 208.949,191.730 209.200,191.400 209.200 C 191.070 209.200,190.800 209.009,190.800 208.776 C 190.800 208.543,190.575 208.488,190.300 208.653 C 189.937 208.871,189.945 208.774,190.329 208.301 C 190.923 207.568,192.000 207.788,192.000 208.643 M211.200 209.600 C 211.200 210.507,210.785 210.625,210.080 209.920 C 209.375 209.215,209.493 208.800,210.400 208.800 C 210.933 208.800,211.200 209.067,211.200 209.600 M117.200 210.076 C 117.200 210.847,117.260 210.877,117.700 210.322 C 117.975 209.976,118.470 209.596,118.800 209.478 C 119.132 209.359,118.908 209.249,118.300 209.232 C 117.425 209.206,117.200 209.379,117.200 210.076 M60.257 211.400 C 59.927 211.730,59.394 212.000,59.071 212.000 C 58.749 212.000,58.382 211.730,58.255 211.400 C 58.077 210.936,58.347 210.800,59.441 210.800 C 60.700 210.800,60.790 210.867,60.257 211.400 M229.355 211.500 C 229.167 212.098,229.227 212.087,229.767 211.424 C 230.115 210.996,230.400 210.825,230.400 211.044 C 230.400 211.706,229.537 212.351,228.951 212.126 C 228.216 211.844,228.244 210.800,228.987 210.800 C 229.364 210.800,229.496 211.051,229.355 211.500 M47.600 217.551 C 47.600 217.744,47.873 218.129,48.207 218.406 C 48.747 218.854,48.803 225.772,48.707 280.055 C 48.648 313.685,48.735 341.200,48.900 341.200 C 49.065 341.200,49.200 313.570,49.200 279.800 C 49.200 240.460,49.061 218.400,48.813 218.400 C 48.599 218.400,48.529 218.130,48.655 217.800 C 48.801 217.420,48.650 217.200,48.243 217.200 C 47.889 217.200,47.600 217.358,47.600 217.551 M248.118 222.408 C 248.294 223.080,248.124 223.200,246.998 223.200 C 245.942 223.200,245.159 222.125,245.969 221.787 C 246.804 221.439,247.951 221.771,248.118 222.408 M241.338 223.817 C 241.208 224.157,241.209 224.542,241.341 224.674 C 241.626 224.959,242.800 224.055,242.800 223.551 C 242.800 222.947,241.587 223.168,241.338 223.817 M208.300 225.933 C 209.098 226.769,209.409 226.721,209.062 225.817 C 208.932 225.478,208.549 225.200,208.213 225.200 C 207.694 225.200,207.708 225.313,208.300 225.933 M219.600 237.551 C 219.600 237.744,219.859 238.117,220.176 238.380 C 220.493 238.643,220.828 239.250,220.922 239.729 C 221.060 240.441,221.101 240.399,221.146 239.500 C 221.175 238.895,221.026 238.400,220.813 238.400 C 220.599 238.400,220.529 238.130,220.655 237.800 C 220.801 237.420,220.650 237.200,220.243 237.200 C 219.889 237.200,219.600 237.358,219.600 237.551 M220.893 242.000 C 220.893 242.770,220.975 243.085,221.076 242.700 C 221.176 242.315,221.176 241.685,221.076 241.300 C 220.975 240.915,220.893 241.230,220.893 242.000 " stroke="none" fill="#000000" fill-rule="evenodd"></path><path id="path1" d="M35.700 41.457 C 35.425 41.572,35.200 42.102,35.200 42.633 L 35.200 43.600 40.557 43.600 C 45.212 43.600,45.948 43.688,46.173 44.274 C 46.315 44.645,46.532 80.240,46.655 123.374 C 46.796 173.187,47.019 201.946,47.266 202.200 C 48.914 203.899,49.018 195.458,48.727 83.600 C 48.658 57.221,48.658 57.118,48.765 48.471 C 48.862 40.546,49.518 41.276,42.285 41.260 C 38.938 41.253,35.975 41.342,35.700 41.457 M34.578 50.435 C 34.431 50.674,34.510 51.070,34.755 51.315 C 35.082 51.642,35.200 51.526,35.200 50.880 C 35.200 49.914,34.992 49.765,34.578 50.435 M332.544 126.706 C 332.214 126.919,332.242 127.142,332.644 127.516 C 333.106 127.944,333.200 127.893,333.200 127.216 C 333.200 126.305,333.184 126.293,332.544 126.706 M373.200 127.200 C 373.200 127.947,373.307 128.053,373.680 127.680 C 374.053 127.307,374.053 127.093,373.680 126.720 C 373.307 126.347,373.200 126.453,373.200 127.200 M333.661 128.754 C 332.872 129.254,333.271 130.580,334.252 130.721 C 334.844 130.806,335.165 130.576,335.329 129.952 C 335.705 128.513,334.925 127.953,333.661 128.754 M370.800 129.576 C 370.800 130.597,371.489 130.990,372.218 130.385 C 373.133 129.626,372.915 128.800,371.800 128.800 C 371.077 128.800,370.800 129.015,370.800 129.576 M336.127 132.708 C 335.061 132.879,335.028 134.292,336.082 134.626 C 337.041 134.930,337.481 134.598,337.409 133.625 C 337.335 132.620,337.214 132.534,336.127 132.708 M369.004 133.700 C 369.130 134.907,369.101 134.895,369.937 134.100 C 370.785 133.294,370.669 132.800,369.631 132.800 C 369.121 132.800,368.937 133.064,369.004 133.700 M367.084 135.600 C 367.199 136.040,367.521 136.400,367.800 136.400 C 368.079 136.400,368.401 136.040,368.516 135.600 C 368.681 134.970,368.528 134.800,367.800 134.800 C 367.072 134.800,366.919 134.970,367.084 135.600 M335.855 140.600 C 335.699 141.008,335.877 141.200,336.413 141.200 C 336.846 141.200,337.200 140.930,337.200 140.600 C 337.200 140.270,336.949 140.000,336.643 140.000 C 336.336 140.000,335.982 140.270,335.855 140.600 M331.973 142.229 L 331.061 143.200 332.530 143.200 C 333.706 143.200,334.000 143.048,334.000 142.443 C 334.000 141.265,332.979 141.158,331.973 142.229 M362.800 143.576 C 362.800 144.656,363.417 144.926,364.168 144.175 C 365.074 143.268,364.949 142.800,363.800 142.800 C 363.077 142.800,362.800 143.015,362.800 143.576 M327.747 143.781 C 327.068 144.508,327.597 145.200,328.831 145.200 C 329.800 145.200,329.973 145.054,329.862 144.331 C 329.718 143.383,328.430 143.049,327.747 143.781 M326.738 145.396 C 326.630 145.503,325.967 145.654,325.264 145.731 C 324.561 145.808,323.989 145.990,323.993 146.136 C 323.997 146.281,324.000 146.580,324.000 146.800 C 324.000 147.020,324.720 147.200,325.600 147.200 C 327.040 147.200,327.200 147.100,327.200 146.200 C 327.200 145.198,327.103 145.030,326.738 145.396 M361.279 147.604 L 361.371 148.807 362.185 147.990 C 362.888 147.286,362.918 147.121,362.400 146.793 C 361.415 146.168,361.182 146.336,361.279 147.604 M321.742 147.502 C 319.649 147.850,319.328 149.200,321.338 149.200 C 322.914 149.200,323.200 149.081,323.200 148.424 C 323.200 147.502,322.895 147.310,321.742 147.502 M341.502 149.066 C 341.779 149.177,341.903 149.433,341.779 149.634 C 341.655 149.835,341.743 150.023,341.976 150.050 C 342.209 150.078,342.625 150.134,342.900 150.175 C 343.534 150.269,344.400 149.634,344.400 149.075 C 344.400 148.839,344.115 148.996,343.767 149.424 C 343.227 150.087,343.167 150.098,343.355 149.500 C 343.534 148.929,343.338 148.806,342.287 148.832 C 341.579 148.849,341.226 148.954,341.502 149.066 M317.684 150.615 C 317.248 151.110,317.325 151.200,318.184 151.200 C 318.820 151.200,319.200 150.976,319.200 150.600 C 319.200 149.841,318.360 149.849,317.684 150.615 M346.204 150.944 C 345.420 151.520,345.425 151.546,346.504 152.546 C 347.107 153.105,347.600 153.840,347.600 154.181 C 347.600 154.533,347.945 154.800,348.400 154.800 C 348.987 154.800,349.200 154.533,349.200 153.800 C 349.200 153.007,348.998 152.800,348.225 152.800 C 347.433 152.800,347.227 152.572,347.125 151.579 C 347.008 150.435,346.949 150.395,346.204 150.944 M337.200 151.740 C 337.200 152.632,337.937 152.846,339.686 152.463 C 341.201 152.131,340.663 150.800,339.014 150.800 C 337.376 150.800,337.200 150.891,337.200 151.740 M313.798 151.765 C 312.986 152.715,313.199 153.200,314.428 153.200 C 315.459 153.200,315.635 153.061,315.528 152.336 C 315.385 151.372,314.410 151.050,313.798 151.765 M334.800 153.576 C 334.800 154.658,335.417 154.926,336.171 154.171 C 336.926 153.417,336.658 152.800,335.576 152.800 C 335.075 152.800,334.800 153.075,334.800 153.576 M356.800 153.733 C 356.800 154.715,357.570 154.978,358.218 154.218 C 358.960 153.346,358.799 152.800,357.800 152.800 C 357.019 152.800,356.800 153.004,356.800 153.733 M309.988 154.212 L 309.061 155.200 310.330 155.200 C 311.320 155.200,311.600 155.029,311.600 154.424 C 311.600 153.212,311.002 153.134,309.988 154.212 M330.298 155.100 C 329.568 156.564,331.985 157.523,332.759 156.077 C 332.986 155.652,333.058 155.192,332.919 155.053 C 332.565 154.699,330.479 154.736,330.298 155.100 M306.100 156.198 C 305.385 157.010,305.473 157.200,306.563 157.200 C 307.328 157.200,307.482 157.036,307.316 156.400 C 307.071 155.464,306.788 155.417,306.100 156.198 M176.400 156.600 C 175.992 157.091,176.020 157.200,176.551 157.200 C 176.908 157.200,177.200 156.930,177.200 156.600 C 177.200 156.270,177.132 156.000,177.049 156.000 C 176.966 156.000,176.674 156.270,176.400 156.600 M349.484 156.650 C 348.740 157.393,349.209 158.800,350.200 158.800 C 351.115 158.800,351.434 159.318,351.247 160.500 C 351.130 161.246,354.381 160.783,354.803 159.994 C 355.285 159.094,355.038 158.917,353.016 158.717 C 352.128 158.629,351.773 158.349,351.599 157.600 C 351.373 156.626,350.085 156.048,349.484 156.650 M355.027 156.706 C 354.653 157.081,354.771 158.800,355.171 158.800 C 355.746 158.800,356.853 157.558,356.696 157.089 C 356.540 156.620,355.379 156.354,355.027 156.706 M326.800 157.800 C 326.800 158.948,327.268 159.075,328.171 158.171 C 329.075 157.268,328.948 156.800,327.800 156.800 C 327.000 156.800,326.800 157.000,326.800 157.800 M178.712 157.900 C 178.421 159.020,178.796 159.600,179.810 159.600 C 181.062 159.600,181.298 159.118,180.561 158.065 C 179.829 157.021,178.960 156.943,178.712 157.900 M301.933 158.034 C 301.106 158.902,301.375 159.200,302.982 159.200 C 304.090 159.200,305.106 157.684,304.075 157.569 C 303.924 157.553,303.530 157.493,303.200 157.436 C 302.870 157.380,302.300 157.649,301.933 158.034 M170.100 158.199 C 169.377 159.019,169.473 159.200,170.629 159.200 C 171.375 159.200,171.623 159.016,171.529 158.533 C 171.358 157.648,170.718 157.499,170.100 158.199 M322.800 159.600 C 322.800 160.040,323.064 160.400,323.386 160.400 C 323.708 160.400,324.165 160.040,324.400 159.600 C 324.776 158.898,324.704 158.800,323.814 158.800 C 323.067 158.800,322.800 159.010,322.800 159.600 M300.400 159.564 C 300.400 159.790,300.164 159.884,299.875 159.773 C 299.586 159.662,299.001 159.980,298.575 160.479 C 297.964 161.194,297.948 161.271,298.500 160.844 C 298.962 160.486,299.200 160.455,299.200 160.751 C 299.200 160.998,299.650 161.200,300.200 161.200 C 301.231 161.200,301.655 159.928,300.800 159.400 C 300.580 159.264,300.400 159.338,300.400 159.564 M165.600 160.424 C 165.600 160.657,165.432 160.744,165.228 160.617 C 165.023 160.491,164.742 160.570,164.604 160.793 C 164.465 161.019,164.720 161.200,165.176 161.200 C 165.642 161.200,166.000 160.939,166.000 160.600 C 166.000 160.270,165.910 160.000,165.800 160.000 C 165.690 160.000,165.600 160.191,165.600 160.424 M318.800 161.780 C 318.800 162.898,319.568 163.096,321.319 162.431 C 323.177 161.724,322.903 160.948,320.761 160.850 C 318.902 160.765,318.800 160.814,318.800 161.780 M159.762 161.895 C 158.861 162.796,159.104 163.200,160.545 163.200 C 161.737 163.200,161.869 163.095,161.711 162.267 C 161.510 161.220,160.609 161.048,159.762 161.895 M295.829 161.829 C 294.951 162.706,295.042 163.077,296.191 163.296 C 297.386 163.525,297.600 163.348,297.600 162.133 C 297.600 161.051,296.752 160.905,295.829 161.829 M183.300 161.887 C 182.505 162.173,182.721 163.200,183.576 163.200 C 184.003 163.200,184.451 163.040,184.572 162.845 C 184.866 162.369,183.927 161.662,183.300 161.887 M316.800 163.333 C 316.800 164.164,317.273 164.437,317.863 163.948 C 318.639 163.304,318.523 162.800,317.600 162.800 C 317.160 162.800,316.800 163.040,316.800 163.333 M154.495 163.467 C 152.871 164.121,153.177 165.200,154.986 165.200 C 156.533 165.200,156.800 165.082,156.800 164.400 C 156.800 163.960,156.635 163.600,156.433 163.600 C 156.231 163.600,155.826 163.524,155.533 163.432 C 155.240 163.339,154.773 163.355,154.495 163.467 M185.608 164.209 C 186.030 164.718,186.006 164.777,185.457 164.566 C 185.091 164.426,184.800 164.511,184.800 164.757 C 184.800 165.001,185.278 165.200,185.862 165.200 C 186.899 165.200,186.907 165.181,186.200 164.400 C 185.357 163.469,184.860 163.309,185.608 164.209 M291.600 164.400 C 291.224 165.102,291.296 165.200,292.186 165.200 C 292.933 165.200,293.200 164.990,293.200 164.400 C 293.200 163.960,292.936 163.600,292.614 163.600 C 292.292 163.600,291.835 163.960,291.600 164.400 M312.000 165.800 C 312.000 166.908,313.415 167.225,314.320 166.320 C 315.225 165.415,314.853 164.800,313.400 164.800 C 312.173 164.800,312.000 164.924,312.000 165.800 M148.836 165.973 C 147.724 166.812,148.122 167.200,150.094 167.200 C 151.485 167.200,151.642 167.101,151.528 166.300 C 151.371 165.194,150.077 165.037,148.836 165.973 M288.080 166.080 C 287.334 166.826,287.508 167.200,288.600 167.200 C 289.333 167.200,289.600 166.987,289.600 166.400 C 289.600 165.509,288.816 165.344,288.080 166.080 M308.800 167.733 C 308.800 168.715,309.570 168.978,310.218 168.218 C 310.960 167.346,310.799 166.800,309.800 166.800 C 309.019 166.800,308.800 167.004,308.800 167.733 M144.100 167.491 C 143.011 167.873,143.553 169.200,144.797 169.200 C 145.800 169.200,145.973 169.059,145.863 168.333 C 145.731 167.473,145.062 167.154,144.100 167.491 M284.495 167.494 C 283.086 167.985,283.151 169.200,284.586 169.200 C 285.707 169.200,286.000 169.043,286.000 168.443 C 286.000 167.634,285.321 167.206,284.495 167.494 M346.480 168.080 C 345.827 168.733,345.877 169.200,346.600 169.200 C 346.933 169.200,347.200 168.844,347.200 168.400 C 347.200 167.468,347.126 167.434,346.480 168.080 M171.200 169.351 C 171.200 170.175,172.025 170.639,173.700 170.756 C 175.072 170.852,175.200 170.774,175.200 169.831 C 175.200 168.861,175.083 168.800,173.200 168.800 C 171.768 168.800,171.200 168.956,171.200 169.351 M304.800 169.800 C 304.800 170.948,305.268 171.075,306.171 170.171 C 307.075 169.268,306.948 168.800,305.800 168.800 C 305.000 168.800,304.800 169.000,304.800 169.800 M137.932 170.273 L 137.061 171.200 139.130 171.200 C 141.028 171.200,141.200 171.123,141.200 170.273 C 141.200 169.509,140.988 169.345,140.001 169.345 C 139.265 169.345,138.467 169.703,137.932 170.273 M341.999 170.202 L 341.061 171.200 342.328 171.200 C 343.363 171.200,343.573 171.056,343.474 170.410 C 343.285 169.170,343.005 169.130,341.999 170.202 M280.066 170.421 C 279.646 170.873,278.953 171.268,278.526 171.300 C 276.920 171.421,276.293 173.029,277.812 173.132 C 278.923 173.206,279.163 173.072,279.271 172.311 C 279.359 171.690,279.718 171.355,280.400 171.260 C 281.441 171.114,282.090 170.469,281.750 169.919 C 281.423 169.391,280.873 169.555,280.066 170.421 M166.000 171.813 C 166.000 172.719,166.145 172.815,167.386 172.732 C 168.148 172.680,168.694 172.561,168.600 172.467 C 168.505 172.372,168.608 171.958,168.828 171.547 C 169.188 170.875,169.066 170.800,167.614 170.800 C 166.154 170.800,166.000 170.896,166.000 171.813 M175.947 171.159 C 176.248 171.350,176.650 171.752,176.841 172.053 C 177.096 172.456,177.189 172.363,177.194 171.700 C 177.198 171.030,176.970 170.802,176.300 170.806 C 175.637 170.811,175.544 170.904,175.947 171.159 M301.200 171.616 C 301.200 172.293,301.294 172.344,301.758 171.916 C 302.334 171.384,302.239 170.800,301.576 170.800 C 301.369 170.800,301.200 171.167,301.200 171.616 M134.623 171.562 C 134.500 171.762,134.039 171.831,133.600 171.716 C 133.135 171.594,132.800 171.704,132.800 171.977 C 132.800 172.236,132.650 172.355,132.467 172.241 C 132.283 172.128,132.133 172.297,132.133 172.618 C 132.133 173.026,132.591 173.200,133.667 173.200 C 135.036 173.200,135.200 173.093,135.200 172.200 C 135.200 171.159,135.005 170.944,134.623 171.562 M337.969 171.755 C 337.448 172.528,337.835 173.200,338.800 173.200 C 340.184 173.200,340.243 171.827,338.862 171.755 C 338.388 171.730,337.986 171.730,337.969 171.755 M160.702 173.800 C 160.973 175.215,161.892 175.103,163.149 173.500 C 163.652 172.859,163.565 172.800,162.104 172.800 C 160.620 172.800,160.524 172.869,160.702 173.800 M177.271 173.457 C 177.478 174.508,178.743 175.125,179.205 174.400 C 179.901 173.308,179.636 172.800,178.371 172.800 C 177.445 172.800,177.173 172.962,177.271 173.457 M297.200 173.187 C 297.200 173.414,297.650 173.600,298.200 173.600 C 298.750 173.600,299.330 173.614,299.490 173.630 C 299.650 173.647,299.832 173.503,299.896 173.312 C 299.960 173.121,299.379 172.922,298.606 172.870 C 297.833 172.818,297.200 172.961,297.200 173.187 M192.956 173.770 C 192.594 174.714,193.057 175.550,193.875 175.430 C 194.845 175.288,194.865 173.462,193.899 173.276 C 193.513 173.202,193.089 173.424,192.956 173.770 M274.300 173.632 C 273.349 174.186,273.414 175.200,274.400 175.200 C 274.987 175.200,275.200 174.933,275.200 174.200 C 275.200 173.065,275.236 173.087,274.300 173.632 M333.933 174.050 C 333.097 174.908,333.378 175.200,335.042 175.200 C 336.086 175.200,336.339 175.045,336.292 174.431 C 336.216 173.415,334.779 173.183,333.933 174.050 M156.000 175.557 C 156.000 177.010,158.442 177.111,158.663 175.667 C 158.777 174.918,158.605 174.800,157.397 174.800 C 156.293 174.800,156.000 174.959,156.000 175.557 M292.830 175.300 C 292.980 176.457,292.745 176.800,291.800 176.800 C 291.178 176.800,290.800 177.027,290.800 177.400 C 290.800 177.946,291.050 178.073,291.900 177.960 C 292.065 177.938,292.160 177.774,292.112 177.595 C 292.009 177.218,294.431 176.297,294.732 176.599 C 294.982 176.848,296.400 175.606,296.400 175.138 C 296.400 174.952,295.582 174.800,294.582 174.800 C 293.360 174.800,292.786 174.964,292.830 175.300 M269.798 175.765 C 268.986 176.715,269.199 177.200,270.428 177.200 C 271.459 177.200,271.635 177.061,271.528 176.336 C 271.385 175.372,270.410 175.050,269.798 175.765 M122.051 176.283 C 121.340 177.044,121.502 177.200,123.000 177.200 C 123.770 177.200,124.400 177.009,124.400 176.776 C 124.400 176.543,124.175 176.488,123.900 176.653 C 123.519 176.882,123.523 176.802,123.915 176.318 C 124.559 175.523,122.793 175.490,122.051 176.283 M150.800 177.151 C 150.800 177.650,151.827 178.440,152.109 178.157 C 152.496 177.771,151.958 176.800,151.357 176.800 C 151.051 176.800,150.800 176.958,150.800 177.151 M181.600 177.115 C 181.600 177.288,181.960 177.457,182.400 177.490 C 182.840 177.523,183.200 177.381,183.200 177.175 C 183.200 176.969,182.840 176.800,182.400 176.800 C 181.960 176.800,181.600 176.942,181.600 177.115 M115.747 177.781 C 115.062 178.514,115.601 179.200,116.861 179.200 C 117.860 179.200,118.035 179.057,117.928 178.331 C 117.788 177.382,116.438 177.041,115.747 177.781 M197.039 177.494 C 196.456 178.077,196.856 179.152,197.700 179.272 C 198.278 179.354,198.646 179.722,198.728 180.300 C 198.820 180.951,199.124 181.200,199.825 181.200 C 200.846 181.200,201.067 179.459,200.060 179.350 C 199.807 179.322,199.432 179.278,199.227 179.250 C 199.022 179.222,198.745 178.857,198.612 178.437 C 198.357 177.634,197.445 177.088,197.039 177.494 M265.762 177.895 C 264.885 178.772,265.094 179.200,266.400 179.200 C 267.390 179.200,267.600 179.037,267.600 178.267 C 267.600 177.204,266.646 177.011,265.762 177.895 M327.829 177.829 C 326.887 178.770,327.064 179.200,328.396 179.200 C 329.426 179.200,329.580 179.062,329.508 178.200 C 329.414 177.059,328.746 176.911,327.829 177.829 M183.673 179.800 C 183.923 180.350,184.370 180.800,184.664 180.800 C 184.969 180.800,185.200 180.369,185.200 179.800 C 185.200 179.002,184.999 178.800,184.209 178.800 C 183.296 178.800,183.253 178.880,183.673 179.800 M286.000 179.167 C 286.000 181.012,288.559 181.571,288.898 179.800 C 289.075 178.873,288.976 178.800,287.545 178.800 C 286.695 178.800,286.000 178.965,286.000 179.167 M111.400 179.517 C 110.460 179.716,109.600 180.352,109.600 180.849 C 109.600 181.042,110.410 181.200,111.400 181.200 C 112.899 181.200,113.200 181.074,113.200 180.443 C 113.200 179.588,112.578 179.268,111.400 179.517 M261.600 180.400 C 261.224 181.102,261.296 181.200,262.186 181.200 C 262.933 181.200,263.200 180.990,263.200 180.400 C 263.200 179.960,262.936 179.600,262.614 179.600 C 262.292 179.600,261.835 179.960,261.600 180.400 M323.600 180.400 C 323.224 181.102,323.296 181.200,324.186 181.200 C 324.933 181.200,325.200 180.990,325.200 180.400 C 325.200 179.960,324.936 179.600,324.614 179.600 C 324.292 179.600,323.835 179.960,323.600 180.400 M138.800 181.576 C 138.800 182.003,138.937 182.437,139.104 182.541 C 139.458 182.760,142.000 181.755,142.000 181.396 C 142.000 181.262,141.820 181.264,141.600 181.400 C 141.380 181.536,141.200 181.457,141.200 181.224 C 141.200 180.991,140.660 180.800,140.000 180.800 C 139.079 180.800,138.800 180.980,138.800 181.576 M282.702 181.800 C 282.923 182.958,283.292 183.051,284.171 182.171 C 285.104 181.239,284.939 180.800,283.655 180.800 C 282.650 180.800,282.534 180.922,282.702 181.800 M105.829 181.829 C 104.853 182.804,105.076 183.200,106.600 183.200 C 107.827 183.200,108.000 183.076,108.000 182.200 C 108.000 181.025,106.832 180.825,105.829 181.829 M257.722 181.807 C 256.987 182.594,257.663 183.200,259.276 183.200 C 260.579 183.200,260.839 183.080,260.643 182.567 C 260.509 182.219,260.400 181.807,260.400 181.650 C 260.400 181.213,258.155 181.344,257.722 181.807 M319.812 181.846 C 319.475 182.182,319.200 182.582,319.200 182.734 C 319.200 182.886,318.795 183.188,318.300 183.405 L 317.400 183.800 317.299 263.473 L 317.198 343.145 318.039 343.412 C 319.621 343.915,319.612 344.365,319.707 263.173 L 319.800 183.400 320.700 183.272 C 321.258 183.193,321.600 182.867,321.600 182.415 C 321.600 181.425,320.562 181.095,319.812 181.846 M278.871 183.462 C 278.942 183.826,279.331 184.173,279.737 184.232 C 280.142 184.291,280.368 184.235,280.240 184.107 C 280.112 183.979,280.207 183.632,280.452 183.337 C 280.806 182.910,280.676 182.800,279.820 182.800 C 279.031 182.800,278.776 182.978,278.871 183.462 M100.362 184.240 L 99.461 185.200 101.330 185.200 C 103.208 185.200,103.885 184.475,102.700 183.735 C 101.783 183.162,101.271 183.272,100.362 184.240 M254.897 183.799 C 255.060 183.979,254.993 184.368,254.748 184.663 C 254.406 185.075,254.453 185.200,254.951 185.200 C 255.715 185.200,255.821 184.175,255.100 183.759 C 254.825 183.601,254.733 183.619,254.897 183.799 M128.280 185.336 C 127.931 186.246,128.604 186.864,129.655 186.601 C 131.119 186.233,131.090 184.800,129.618 184.800 C 128.995 184.800,128.393 185.041,128.280 185.336 M274.719 185.972 C 274.549 187.128,274.562 187.137,275.625 186.587 C 277.234 185.755,277.452 184.800,276.033 184.800 C 275.076 184.800,274.863 184.990,274.719 185.972 M94.537 186.153 L 93.429 187.106 95.344 187.258 C 97.646 187.441,98.042 187.247,97.738 186.086 C 97.427 184.896,95.962 184.927,94.537 186.153 M251.867 185.867 C 251.316 186.417,251.629 187.200,252.400 187.200 C 252.933 187.200,253.200 186.933,253.200 186.400 C 253.200 185.629,252.417 185.316,251.867 185.867 M122.872 187.696 C 123.033 188.826,124.148 189.057,125.420 188.224 C 126.887 187.263,126.611 186.800,124.572 186.800 C 122.908 186.800,122.756 186.880,122.872 187.696 M272.673 187.559 C 272.863 188.283,273.689 188.507,273.900 187.891 C 274.154 187.153,273.939 186.800,273.237 186.800 C 272.685 186.800,272.530 187.010,272.673 187.559 M89.982 187.611 C 88.852 188.310,89.217 189.200,90.633 189.200 C 91.804 189.200,91.976 189.078,91.863 188.333 C 91.722 187.411,90.849 187.075,89.982 187.611 M247.798 187.765 C 246.986 188.715,247.199 189.200,248.428 189.200 C 249.459 189.200,249.635 189.061,249.528 188.336 C 249.385 187.372,248.410 187.050,247.798 187.765 M116.942 189.728 C 117.014 190.884,119.004 190.993,120.099 189.900 C 121.112 188.888,121.011 188.800,118.842 188.800 C 117.045 188.800,116.889 188.876,116.942 189.728 M191.200 189.320 C 191.200 189.606,191.416 190.056,191.680 190.320 C 192.474 191.114,193.200 190.865,193.200 189.800 C 193.200 189.000,193.000 188.800,192.200 188.800 C 191.646 188.800,191.200 189.032,191.200 189.320 M268.072 189.696 C 268.230 190.805,269.286 191.057,270.151 190.191 C 271.151 189.192,270.932 188.800,269.372 188.800 C 268.122 188.800,267.960 188.911,268.072 189.696 M172.050 190.249 L 171.000 191.175 173.700 191.187 C 175.185 191.194,176.397 191.065,176.394 190.900 C 176.363 189.383,173.517 188.957,172.050 190.249 M244.080 190.080 C 243.375 190.785,243.493 191.200,244.400 191.200 C 244.933 191.200,245.200 190.933,245.200 190.400 C 245.200 189.493,244.785 189.375,244.080 190.080 M112.400 191.800 C 112.400 192.895,113.459 193.181,114.320 192.320 C 115.174 191.466,114.858 190.800,113.600 190.800 C 112.587 190.800,112.400 190.956,112.400 191.800 M193.600 191.386 C 193.600 191.708,193.960 192.165,194.400 192.400 C 195.102 192.776,195.200 192.704,195.200 191.814 C 195.200 191.067,194.990 190.800,194.400 190.800 C 193.960 190.800,193.600 191.064,193.600 191.386 M264.800 191.400 C 264.800 191.730,264.875 192.000,264.967 192.000 C 265.059 192.000,265.409 192.105,265.745 192.234 C 266.181 192.402,266.337 192.230,266.293 191.634 C 266.220 190.674,264.800 190.451,264.800 191.400 M78.566 192.267 L 77.559 193.200 79.556 193.200 C 81.742 193.200,82.172 192.921,81.465 191.961 C 80.807 191.068,79.737 191.181,78.566 192.267 M168.061 192.023 C 167.309 192.828,167.258 193.023,167.774 193.129 C 168.998 193.382,169.455 193.031,169.211 192.023 L 168.975 191.046 168.061 192.023 M239.570 191.385 C 238.674 191.835,239.450 193.200,240.603 193.200 C 241.829 193.200,242.000 193.077,242.000 192.194 C 242.000 191.332,240.602 190.867,239.570 191.385 M303.683 191.677 C 302.988 192.372,303.086 192.936,304.000 193.507 C 304.795 194.004,304.800 194.440,304.800 268.603 L 304.800 343.200 305.800 343.200 L 306.800 343.200 306.794 267.900 C 306.790 223.314,306.639 192.365,306.423 192.024 C 305.947 191.272,304.297 191.063,303.683 191.677 M108.000 193.386 C 108.000 194.391,109.316 194.763,110.067 193.970 C 110.878 193.114,110.627 192.800,109.133 192.800 C 108.405 192.800,108.000 193.009,108.000 193.386 M260.400 193.124 C 260.400 194.119,261.526 194.960,262.157 194.436 C 263.199 193.571,262.937 192.800,261.600 192.800 C 260.940 192.800,260.400 192.946,260.400 193.124 M161.999 193.735 C 160.892 194.600,161.128 195.200,162.575 195.200 C 163.694 195.200,163.939 195.054,163.891 194.417 C 163.859 193.987,163.752 193.715,163.653 193.814 C 163.554 193.912,163.277 193.830,163.036 193.630 C 162.767 193.407,162.366 193.447,161.999 193.735 M297.680 193.680 C 296.826 194.534,297.142 195.200,298.400 195.200 C 299.413 195.200,299.600 195.044,299.600 194.200 C 299.600 193.105,298.541 192.819,297.680 193.680 M74.047 193.900 C 74.168 194.664,73.954 194.860,73.453 194.444 C 73.033 194.096,72.777 194.154,72.353 194.695 C 71.851 195.335,71.865 195.349,72.500 194.851 C 72.958 194.492,73.200 194.457,73.200 194.751 C 73.200 194.998,73.633 195.200,74.163 195.200 C 74.928 195.200,75.082 195.036,74.916 194.400 C 74.724 193.665,73.939 193.213,74.047 193.900 M236.049 194.111 C 235.334 194.826,235.523 195.200,236.600 195.200 C 237.188 195.200,237.600 194.970,237.600 194.643 C 237.600 193.894,236.607 193.553,236.049 194.111 M102.000 195.557 C 102.000 197.010,104.442 197.111,104.663 195.667 C 104.777 194.918,104.605 194.800,103.397 194.800 C 102.293 194.800,102.000 194.959,102.000 195.557 M197.292 195.800 C 197.352 196.533,197.605 196.800,198.241 196.800 C 198.847 196.800,199.164 196.500,199.298 195.800 C 199.466 194.923,199.349 194.800,198.349 194.800 C 197.378 194.800,197.221 194.948,197.292 195.800 M256.828 195.100 C 256.956 196.463,257.451 196.892,258.122 196.220 C 259.073 195.270,258.966 194.800,257.800 194.800 C 257.250 194.800,256.813 194.935,256.828 195.100 M68.004 196.196 L 67.061 197.200 68.330 197.200 C 69.599 197.200,69.908 196.704,69.268 195.696 C 69.030 195.321,68.705 195.449,68.004 196.196 M155.900 196.100 L 155.000 197.000 157.144 197.122 C 159.621 197.264,159.644 197.253,159.337 196.083 C 159.024 194.883,157.107 194.893,155.900 196.100 M212.800 196.400 C 212.800 197.663,213.777 198.063,214.674 197.166 C 215.395 196.445,214.812 195.200,213.753 195.200 C 212.961 195.200,212.800 195.402,212.800 196.400 M232.114 196.300 L 231.229 197.200 233.214 197.200 C 235.018 197.200,235.200 197.116,235.200 196.283 C 235.200 195.045,233.339 195.056,232.114 196.300 M293.613 196.376 C 293.212 197.126,293.284 197.200,294.415 197.200 C 295.381 197.200,295.629 197.045,295.525 196.505 C 295.330 195.496,294.127 195.415,293.613 196.376 M253.308 197.630 C 253.257 198.308,253.351 198.373,253.818 197.985 C 254.133 197.723,254.293 197.350,254.172 197.155 C 253.791 196.539,253.373 196.769,253.308 197.630 M61.777 197.788 C 60.924 198.790,61.214 199.200,62.775 199.200 C 64.134 199.200,65.230 197.755,64.015 197.567 C 62.670 197.358,62.094 197.415,61.777 197.788 M289.790 197.775 C 288.922 198.792,289.208 199.200,290.787 199.200 C 292.265 199.200,292.351 199.138,292.042 198.300 C 291.682 197.329,290.421 197.034,289.790 197.775 M229.443 198.233 C 229.085 199.166,229.111 199.200,230.200 199.200 C 230.933 199.200,231.200 198.987,231.200 198.400 C 231.200 197.427,229.803 197.294,229.443 198.233 M90.406 199.300 C 90.422 200.636,91.752 201.209,92.494 200.200 C 93.119 199.350,92.768 198.800,91.600 198.800 C 90.903 198.800,90.403 199.010,90.406 199.300 M201.200 199.573 C 201.200 200.532,202.753 201.117,203.244 200.343 C 203.896 199.314,203.614 198.800,202.400 198.800 C 201.481 198.800,201.200 198.981,201.200 199.573 M248.800 199.800 C 248.800 200.977,249.748 201.132,251.111 200.177 C 252.430 199.254,252.195 198.800,250.400 198.800 C 248.960 198.800,248.800 198.900,248.800 199.800 M57.754 199.543 C 56.357 200.557,56.447 201.046,58.045 201.141 C 59.506 201.227,59.648 201.152,59.530 200.354 C 59.402 199.483,58.440 199.045,57.754 199.543 M145.680 199.680 C 145.310 200.050,145.200 216.581,145.200 271.653 L 145.200 343.146 146.040 343.413 C 147.610 343.911,147.605 344.116,147.703 271.077 L 147.800 199.200 146.980 199.200 C 146.529 199.200,145.944 199.416,145.680 199.680 M217.261 199.561 C 216.450 200.064,216.882 201.382,217.904 201.528 C 218.478 201.610,218.800 201.933,218.800 202.428 C 218.800 202.988,219.079 203.200,219.814 203.200 C 220.704 203.200,220.776 203.102,220.400 202.400 C 220.165 201.960,219.708 201.600,219.386 201.600 C 218.868 201.600,218.594 200.840,218.763 199.870 C 218.794 199.689,218.651 199.645,218.444 199.773 C 218.237 199.900,218.008 199.830,217.934 199.615 C 217.857 199.392,217.569 199.369,217.261 199.561 M226.222 200.436 C 226.326 200.603,226.093 200.822,225.705 200.923 C 225.265 201.038,225.414 201.125,226.100 201.154 C 226.773 201.182,227.200 200.993,227.200 200.667 C 227.200 200.373,226.938 200.133,226.618 200.133 C 226.297 200.133,226.119 200.270,226.222 200.436 M84.400 201.800 C 84.400 203.371,87.556 203.177,88.425 201.553 C 88.797 200.858,88.658 200.800,86.614 200.800 C 84.519 200.800,84.400 200.854,84.400 201.800 M246.800 201.376 C 246.800 201.693,246.960 202.051,247.155 202.172 C 247.595 202.444,248.492 201.425,248.130 201.063 C 247.654 200.587,246.800 200.788,246.800 201.376 M51.680 201.680 C 50.731 202.629,51.151 203.200,52.800 203.200 C 54.408 203.200,54.605 203.001,54.157 201.833 C 53.871 201.087,52.366 200.994,51.680 201.680 M221.680 201.680 C 220.826 202.534,221.142 203.200,222.400 203.200 C 223.413 203.200,223.600 203.044,223.600 202.200 C 223.600 201.105,222.541 200.819,221.680 201.680 M283.832 201.825 C 282.926 202.732,283.051 203.200,284.200 203.200 C 284.923 203.200,285.200 202.985,285.200 202.424 C 285.200 201.344,284.583 201.074,283.832 201.825 M79.086 203.717 C 79.302 204.846,81.213 205.130,82.168 204.175 C 83.214 203.129,82.899 202.800,80.855 202.800 C 79.044 202.800,78.923 202.863,79.086 203.717 M242.000 203.124 C 242.000 204.089,243.175 204.987,243.877 204.557 C 245.243 203.720,245.009 202.800,243.429 202.800 C 242.643 202.800,242.000 202.946,242.000 203.124 M279.600 204.400 C 279.224 205.102,279.296 205.200,280.186 205.200 C 280.933 205.200,281.200 204.990,281.200 204.400 C 281.200 203.960,280.936 203.600,280.614 203.600 C 280.292 203.600,279.835 203.960,279.600 204.400 M238.400 205.800 C 238.400 206.948,239.222 207.120,240.171 206.171 C 241.114 205.229,240.935 204.800,239.600 204.800 C 238.587 204.800,238.400 204.956,238.400 205.800 M128.808 206.264 L 127.817 207.200 129.282 207.200 C 130.088 207.200,131.210 207.376,131.774 207.590 L 132.800 207.980 132.800 275.403 C 132.800 346.744,132.749 344.611,134.423 342.937 C 135.087 342.273,134.875 206.800,134.211 206.800 C 133.981 206.800,133.585 206.468,133.331 206.062 C 132.642 204.958,130.070 205.074,128.808 206.264 M275.829 205.829 C 274.886 206.771,275.065 207.200,276.400 207.200 C 277.413 207.200,277.600 207.044,277.600 206.200 C 277.600 205.052,276.778 204.880,275.829 205.829 M69.884 207.601 C 69.769 208.041,69.838 208.300,70.037 208.177 C 70.237 208.054,70.400 208.132,70.400 208.352 C 70.400 209.379,72.465 208.421,72.700 207.284 C 72.887 206.381,70.122 206.691,69.884 207.601 M234.800 207.576 C 234.800 208.656,235.417 208.926,236.168 208.175 C 237.074 207.268,236.949 206.800,235.800 206.800 C 235.077 206.800,234.800 207.015,234.800 207.576 M124.831 207.714 C 123.268 208.499,123.332 209.200,124.967 209.200 C 126.441 209.200,126.537 209.088,126.071 207.914 C 125.839 207.329,125.655 207.299,124.831 207.714 M190.329 208.301 C 189.945 208.774,189.937 208.871,190.300 208.653 C 190.575 208.488,190.800 208.543,190.800 208.776 C 190.800 209.009,191.070 209.200,191.400 209.200 C 192.163 209.200,192.186 208.157,191.429 207.867 C 191.115 207.746,190.620 207.941,190.329 208.301 M64.000 209.613 C 64.000 211.192,66.415 211.055,66.729 209.457 C 66.830 208.946,66.541 208.800,65.429 208.800 C 64.259 208.800,64.000 208.947,64.000 209.613 M209.600 209.120 C 209.600 209.296,209.816 209.656,210.080 209.920 C 210.785 210.625,211.200 210.507,211.200 209.600 C 211.200 209.067,210.933 208.800,210.400 208.800 C 209.960 208.800,209.600 208.944,209.600 209.120 M230.702 209.800 C 230.908 210.879,231.553 211.087,232.320 210.320 C 233.158 209.482,232.860 208.800,231.655 208.800 C 230.650 208.800,230.534 208.922,230.702 209.800 M118.556 209.619 C 116.715 210.304,117.087 211.200,119.213 211.200 C 120.953 211.200,122.474 209.730,120.900 209.569 C 120.735 209.553,120.330 209.486,120.000 209.421 C 119.670 209.357,119.020 209.446,118.556 209.619 M192.800 210.455 C 192.800 211.414,192.965 211.600,193.814 211.600 C 194.689 211.600,194.807 211.449,194.680 210.500 C 194.463 208.876,192.800 208.835,192.800 210.455 M58.255 211.400 C 58.382 211.730,58.749 212.000,59.071 212.000 C 59.394 212.000,59.927 211.730,60.257 211.400 C 60.790 210.867,60.700 210.800,59.441 210.800 C 58.347 210.800,58.077 210.936,58.255 211.400 M211.271 211.691 C 211.399 212.591,213.200 213.309,213.200 212.461 C 213.200 212.243,213.294 211.819,213.410 211.519 C 213.556 211.139,213.241 210.943,212.381 210.877 C 211.300 210.795,211.159 210.899,211.271 211.691 M228.400 211.357 C 228.400 211.664,228.648 212.010,228.951 212.126 C 229.537 212.351,230.400 211.706,230.400 211.044 C 230.400 210.825,230.115 210.996,229.767 211.424 C 229.227 212.087,229.167 212.098,229.355 211.500 C 229.496 211.051,229.364 210.800,228.987 210.800 C 228.664 210.800,228.400 211.051,228.400 211.357 M113.875 211.795 C 113.273 212.107,112.695 212.371,112.590 212.381 C 111.606 212.478,112.576 213.027,113.900 213.123 C 115.613 213.247,116.001 212.850,115.279 211.714 C 115.039 211.337,114.722 211.355,113.875 211.795 M53.689 213.266 C 53.774 213.522,54.276 214.017,54.805 214.366 C 55.333 214.715,55.641 214.795,55.487 214.545 C 55.175 214.035,56.127 213.060,56.537 213.470 C 56.682 213.615,56.800 213.523,56.800 213.267 C 56.800 212.987,56.144 212.800,55.167 212.800 C 54.102 212.800,53.587 212.962,53.689 213.266 M223.600 213.171 C 223.600 214.668,225.678 214.949,226.425 213.553 C 226.789 212.874,226.671 212.800,225.214 212.800 C 224.326 212.800,223.600 212.967,223.600 213.171 M47.878 215.056 C 47.455 215.478,47.993 216.000,48.852 216.000 C 49.295 216.000,49.927 215.730,50.257 215.400 C 50.790 214.867,50.706 214.800,49.495 214.800 C 48.746 214.800,48.018 214.915,47.878 215.056 M215.272 215.700 C 215.476 217.137,218.000 217.253,218.000 215.825 C 218.000 214.916,217.838 214.800,216.572 214.800 C 215.320 214.800,215.160 214.911,215.272 215.700 M220.400 215.613 C 220.400 216.620,221.408 217.057,222.205 216.396 C 223.204 215.567,222.913 214.800,221.600 214.800 C 220.660 214.800,220.400 214.976,220.400 215.613 M104.406 215.500 C 104.403 215.775,104.130 216.000,103.800 216.000 C 103.470 216.000,103.200 216.270,103.200 216.600 C 103.200 216.973,103.578 217.200,104.200 217.200 C 105.243 217.200,105.460 216.621,104.800 215.600 C 104.542 215.200,104.410 215.167,104.406 215.500 M257.829 215.829 C 256.878 216.779,257.067 217.200,258.443 217.200 C 259.412 217.200,259.632 217.061,259.443 216.567 C 259.309 216.219,259.200 215.769,259.200 215.567 C 259.200 215.002,258.526 215.131,257.829 215.829 M47.059 218.405 C 46.666 220.369,46.761 342.120,47.156 342.743 C 47.400 343.127,47.581 343.154,47.778 342.836 C 47.930 342.589,48.217 342.487,48.416 342.610 C 48.629 342.741,48.782 317.336,48.790 280.391 C 48.799 241.366,48.662 218.038,48.426 218.184 C 48.219 218.312,47.885 218.123,47.684 217.764 C 47.388 217.236,47.268 217.359,47.059 218.405 M253.680 217.680 C 252.915 218.445,253.120 219.091,254.191 219.296 C 255.386 219.525,255.600 219.348,255.600 218.133 C 255.600 217.103,254.513 216.847,253.680 217.680 M250.262 219.931 C 249.393 220.892,249.427 221.200,250.400 221.200 C 250.987 221.200,251.200 220.933,251.200 220.200 C 251.200 219.005,251.121 218.983,250.262 219.931 M85.695 221.665 C 84.920 222.440,85.111 223.090,86.174 223.293 C 87.437 223.534,88.115 223.095,87.935 222.152 C 87.765 221.260,86.398 220.962,85.695 221.665 M202.700 222.210 C 202.483 223.344,203.130 223.866,204.228 223.445 C 205.158 223.088,204.791 221.427,203.751 221.279 C 203.107 221.187,202.853 221.413,202.700 222.210 M245.969 221.787 C 245.159 222.125,245.942 223.200,246.998 223.200 C 248.124 223.200,248.294 223.080,248.118 222.408 C 247.951 221.771,246.804 221.439,245.969 221.787 M81.700 223.634 C 81.205 223.821,80.800 223.868,80.800 223.738 C 80.800 223.608,80.530 223.726,80.200 224.000 C 79.177 224.849,79.529 225.200,81.400 225.200 C 82.915 225.200,83.200 225.077,83.200 224.424 C 83.200 223.419,82.811 223.214,81.700 223.634 M242.800 223.626 C 242.800 224.048,239.981 225.859,239.548 225.715 C 239.409 225.669,238.959 226.027,238.548 226.509 C 237.916 227.250,237.909 227.302,238.500 226.844 C 238.962 226.486,239.200 226.455,239.200 226.751 C 239.200 226.998,239.650 227.200,240.200 227.200 C 241.000 227.200,241.200 227.000,241.200 226.200 C 241.200 225.324,241.373 225.200,242.600 225.200 C 244.090 225.200,244.667 223.942,243.400 223.455 C 243.070 223.329,242.800 223.406,242.800 223.626 M74.884 226.220 L 73.800 227.175 75.697 227.187 C 77.421 227.199,77.583 227.120,77.463 226.333 C 77.280 225.133,76.174 225.085,74.884 226.220 M206.800 226.192 C 206.800 226.917,207.069 227.252,207.800 227.436 C 208.426 227.593,208.800 227.970,208.800 228.443 C 208.800 228.992,209.087 229.200,209.843 229.200 C 210.629 229.200,210.826 229.045,210.643 228.567 C 210.509 228.219,210.400 227.769,210.400 227.567 C 210.400 227.365,210.242 227.245,210.048 227.300 C 209.855 227.355,209.233 226.905,208.667 226.300 C 207.391 224.936,206.800 224.902,206.800 226.192 M70.248 227.947 C 69.335 228.956,69.434 229.200,70.757 229.200 C 71.903 229.200,72.571 228.466,72.063 227.764 C 71.609 227.136,70.919 227.205,70.248 227.947 M235.782 227.782 C 235.040 228.654,235.201 229.200,236.200 229.200 C 236.981 229.200,237.200 228.996,237.200 228.267 C 237.200 227.285,236.430 227.022,235.782 227.782 M66.359 229.400 C 66.329 229.620,66.318 229.908,66.333 230.041 C 66.348 230.173,65.953 230.204,65.456 230.109 C 64.937 230.009,64.327 230.205,64.027 230.568 C 63.561 231.129,63.711 231.200,65.351 231.200 C 66.567 231.200,67.198 231.029,67.194 230.700 C 67.186 230.053,66.429 228.874,66.359 229.400 M231.417 229.516 C 231.304 229.630,231.207 255.234,231.203 286.414 L 231.195 343.105 232.090 343.340 C 233.619 343.739,233.605 344.316,233.501 286.179 L 233.400 229.400 232.512 229.355 C 232.023 229.331,231.530 229.403,231.417 229.516 M59.695 231.665 C 58.849 232.511,58.985 343.032,59.833 343.357 C 61.688 344.069,61.587 347.141,61.628 288.700 C 61.649 258.505,61.696 233.260,61.733 232.600 C 61.807 231.273,60.628 230.732,59.695 231.665 M218.311 238.109 C 218.232 238.599,218.312 239.540,218.488 240.200 C 218.664 240.860,218.803 263.900,218.797 291.400 C 218.790 318.900,218.788 341.817,218.792 342.327 C 218.799 343.100,218.982 343.232,219.900 343.127 L 221.000 343.000 221.000 291.600 C 221.000 241.687,220.952 238.384,220.218 237.715 C 220.027 237.541,220.003 237.669,220.166 238.000 C 220.427 238.533,220.400 238.533,219.928 238.000 C 219.114 237.080,218.468 237.124,218.311 238.109 M37.100 354.722 C 35.176 354.845,34.719 355.359,35.680 356.320 C 36.052 356.692,74.587 356.800,206.680 356.800 L 377.200 356.800 378.095 355.905 C 378.796 355.204,378.862 354.985,378.395 354.897 C 377.578 354.743,39.472 354.570,37.100 354.722 " stroke="none" fill="#4a4a4a" fill-rule="evenodd"></path><path id="path2" d="" stroke="none" fill="#999999" fill-rule="evenodd"></path><path id="path3" d="M397.765 28.948 C 397.649 29.249,397.613 30.464,397.684 31.648 L 397.813 33.800 398.007 31.099 C 398.201 28.381,398.152 27.939,397.765 28.948 M397.698 379.800 L 397.606 395.400 398.674 395.896 C 400.048 396.534,400.310 396.301,399.004 395.602 L 398.009 395.070 397.900 379.635 L 397.790 364.200 397.698 379.800 " stroke="none" fill="#c6c6c6" fill-rule="evenodd"></path><path id="path4" d="M397.829 23.829 C 396.947 24.710,396.996 27.088,397.900 27.324 C 398.567 27.498,398.567 27.509,397.900 27.554 C 397.234 27.598,397.205 36.604,397.293 211.500 C 397.344 312.645,397.482 388.380,397.600 379.800 L 397.814 364.200 397.907 379.556 C 398.004 395.610,398.038 395.917,399.700 395.987 C 399.865 395.994,400.000 312.120,400.000 209.600 C 400.000 25.768,399.989 23.200,399.229 23.200 C 398.804 23.200,398.174 23.483,397.829 23.829 M398.007 31.099 L 397.813 33.800 397.684 31.648 C 397.570 29.758,397.739 28.402,398.087 28.399 C 398.149 28.399,398.113 29.614,398.007 31.099 M397.297 396.100 C 397.388 396.375,398.078 396.657,398.831 396.727 C 400.135 396.847,400.162 396.824,399.400 396.239 C 398.430 395.495,397.069 395.404,397.297 396.100 M5.680 397.680 C 5.416 397.944,5.200 398.574,5.200 399.080 L 5.200 400.000 202.600 400.000 L 400.000 400.000 400.000 398.843 C 400.000 397.719,399.421 397.200,398.167 397.200 C 397.855 397.200,397.645 397.335,397.700 397.500 C 397.810 397.831,397.463 398.003,396.700 397.994 C 396.367 397.990,396.400 397.858,396.800 397.600 C 397.188 397.349,328.221 397.210,201.780 397.206 C 50.158 397.201,6.052 397.308,5.680 397.680 " stroke="none" fill="#ffffff" fill-rule="evenodd"></path></g></svg>