<svg id="svg" version="1.1" width="400" height="400" viewBox="0 0 400 400" xmlns="http://www.w3.org/2000/svg" xmlns:xlink="http://www.w3.org/1999/xlink" ><g id="svgg"><path id="path0" d="M397.828 23.829 C 397.258 24.399,397.208 41.768,397.300 210.529 L 397.400 396.600 398.700 396.725 L 400.000 396.851 400.000 210.025 C 400.000 25.773,399.989 23.200,399.229 23.200 C 398.804 23.200,398.174 23.483,397.828 23.829 M48.914 56.600 C 48.917 57.700,48.995 58.103,49.087 57.495 C 49.179 56.886,49.177 55.986,49.082 55.495 C 48.987 55.003,48.911 55.500,48.914 56.600 M373.731 127.434 C 373.480 127.965,373.432 128.400,373.624 128.400 C 374.113 128.400,374.868 126.889,374.495 126.658 C 374.325 126.554,373.982 126.903,373.731 127.434 M350.000 158.951 C 350.000 159.034,350.270 159.326,350.600 159.600 C 351.091 160.008,351.200 159.980,351.200 159.449 C 351.200 159.092,350.930 158.800,350.600 158.800 C 350.270 158.800,350.000 158.868,350.000 158.951 M185.600 163.668 C 186.602 164.645,187.110 164.825,186.618 164.029 C 186.473 163.795,185.960 163.399,185.478 163.149 C 184.683 162.736,184.694 162.785,185.600 163.668 M5.680 397.680 C 5.416 397.944,5.200 398.574,5.200 399.080 L 5.200 400.000 202.600 400.000 L 400.000 400.000 400.000 398.600 L 400.000 397.200 203.080 397.200 C 50.453 397.200,6.052 397.308,5.680 397.680 " stroke="none" fill="#000000" fill-rule="evenodd"></path><path id="path1" d="M373.500 125.829 C 373.335 125.996,373.200 126.589,373.200 127.147 C 373.200 127.875,373.322 128.038,373.634 127.726 C 373.872 127.488,374.007 126.894,373.934 126.408 C 373.860 125.922,373.665 125.661,373.500 125.829 M338.000 137.218 C 338.000 137.374,338.260 137.718,338.577 137.981 C 339.048 138.372,339.144 138.319,339.097 137.697 C 339.045 137.004,338.000 136.548,338.000 137.218 M361.897 147.250 C 361.060 147.718,360.947 148.872,361.769 148.557 C 362.297 148.354,362.962 147.229,362.706 146.973 C 362.644 146.911,362.280 147.035,361.897 147.250 M320.229 148.229 C 319.449 149.008,319.398 149.466,320.161 148.832 C 320.592 148.475,320.768 148.486,320.920 148.883 C 321.029 149.167,321.099 148.995,321.074 148.500 C 321.021 147.429,321.027 147.430,320.229 148.229 M346.000 152.200 C 346.578 152.897,347.200 152.988,347.200 152.376 C 347.200 152.143,347.020 152.064,346.800 152.200 C 346.580 152.336,346.400 152.257,346.400 152.024 C 346.400 151.791,346.198 151.600,345.951 151.600 C 345.641 151.600,345.656 151.785,346.000 152.200 M163.784 160.027 C 163.639 160.261,163.616 160.549,163.733 160.667 C 164.020 160.953,164.800 160.448,164.800 159.976 C 164.800 159.465,164.109 159.499,163.784 160.027 M322.182 161.340 C 321.326 162.282,321.143 162.797,321.748 162.564 C 322.073 162.440,322.446 162.056,322.578 161.712 C 322.886 160.911,322.716 160.753,322.182 161.340 M185.200 163.986 C 185.200 164.198,185.574 164.572,186.030 164.816 C 186.790 165.223,186.823 165.190,186.416 164.430 C 185.959 163.577,185.200 163.299,185.200 163.986 M109.784 180.027 C 109.639 180.261,109.616 180.549,109.733 180.667 C 110.020 180.953,110.800 180.448,110.800 179.976 C 110.800 179.465,110.109 179.499,109.784 180.027 M253.784 184.027 C 253.639 184.261,253.616 184.549,253.733 184.667 C 254.020 184.953,254.800 184.448,254.800 183.976 C 254.800 183.465,254.109 183.499,253.784 184.027 M191.200 189.601 C 191.200 190.005,191.966 190.542,192.700 190.653 C 192.975 190.695,193.200 190.565,193.200 190.365 C 193.200 190.164,193.009 190.000,192.776 190.000 C 192.543 190.000,192.441 189.857,192.549 189.683 C 192.656 189.509,192.397 189.340,191.972 189.308 C 191.548 189.276,191.200 189.408,191.200 189.601 M193.501 210.066 C 193.633 210.569,193.814 210.758,193.904 210.487 C 193.995 210.216,194.256 210.111,194.486 210.253 C 194.723 210.399,194.824 210.270,194.719 209.956 C 194.379 208.936,193.233 209.041,193.501 210.066 M241.592 223.810 C 240.819 224.741,241.371 224.917,242.198 224.002 C 242.597 223.561,242.738 223.200,242.511 223.200 C 242.284 223.200,241.870 223.474,241.592 223.810 M134.920 341.200 C 134.920 342.410,134.995 342.905,135.087 342.300 C 135.178 341.695,135.178 340.705,135.087 340.100 C 134.995 339.495,134.920 339.990,134.920 341.200 " stroke="none" fill="#555555" fill-rule="evenodd"></path><path id="path2" d="M35.272 42.290 L 35.400 43.400 40.593 43.513 C 43.449 43.575,45.934 43.774,46.115 43.955 C 46.296 44.136,46.541 79.815,46.659 123.242 C 46.778 166.669,47.013 202.347,47.183 202.526 C 48.787 204.220,48.802 203.812,48.898 154.868 C 49.092 55.783,49.084 43.423,48.818 42.428 L 48.543 41.400 41.844 41.290 L 35.145 41.180 35.272 42.290 M33.200 42.892 C 33.200 43.135,33.318 43.215,33.463 43.070 C 33.608 42.925,33.938 42.983,34.197 43.197 C 34.515 43.462,34.667 43.422,34.667 43.074 C 34.667 42.791,34.337 42.535,33.933 42.505 C 33.530 42.475,33.200 42.649,33.200 42.892 M33.200 43.957 C 33.200 44.201,33.581 44.400,34.046 44.400 C 34.848 44.400,34.859 44.450,34.261 45.363 C 33.670 46.264,33.934 46.800,34.968 46.800 C 35.024 46.800,35.094 46.170,35.123 45.400 C 35.152 44.630,35.016 44.000,34.821 44.000 C 34.625 44.000,34.181 43.891,33.833 43.757 C 33.485 43.624,33.200 43.714,33.200 43.957 M33.200 48.200 C 33.200 49.225,33.374 49.600,33.849 49.600 C 34.408 49.600,34.422 49.694,33.949 50.277 C 33.585 50.725,33.567 50.853,33.895 50.656 C 34.232 50.454,34.314 50.558,34.153 50.979 C 34.022 51.321,33.754 51.600,33.557 51.600 C 33.361 51.600,33.200 52.140,33.200 52.800 C 33.200 53.776,33.368 54.001,34.100 54.006 C 34.828 54.011,34.885 54.086,34.400 54.400 C 33.871 54.742,33.874 54.788,34.420 54.794 C 34.912 54.799,35.059 54.224,35.136 52.000 C 35.215 49.704,35.121 49.200,34.616 49.200 C 34.198 49.200,34.000 48.814,34.000 48.000 C 34.000 47.340,33.820 46.800,33.600 46.800 C 33.380 46.800,33.200 47.430,33.200 48.200 M331.600 126.253 C 331.600 127.562,331.790 128.074,332.400 128.400 C 332.868 128.650,333.200 129.238,333.200 129.814 C 333.200 131.242,335.025 131.230,335.298 129.800 C 335.485 128.819,335.221 128.636,333.700 128.693 C 333.372 128.705,333.200 128.099,333.200 126.932 C 333.200 125.675,333.063 125.238,332.732 125.442 C 332.428 125.630,332.344 125.522,332.494 125.132 C 332.631 124.776,332.497 124.533,332.162 124.533 C 331.767 124.533,331.600 125.043,331.600 126.253 M372.633 128.300 C 372.468 128.465,372.168 128.623,371.967 128.650 C 371.765 128.678,371.420 128.722,371.200 128.750 C 370.980 128.778,370.800 129.250,370.800 129.800 C 370.800 131.399,372.647 131.208,373.006 129.571 C 373.288 128.287,373.143 127.791,372.633 128.300 M335.600 132.834 C 335.600 132.999,335.500 133.396,335.377 133.716 C 335.226 134.108,335.485 134.361,336.168 134.492 C 337.157 134.681,338.064 133.531,337.428 132.895 C 337.067 132.534,335.600 132.485,335.600 132.834 M368.800 133.800 C 368.800 134.533,368.587 134.800,368.000 134.800 C 367.408 134.800,367.200 135.067,367.200 135.828 C 367.200 137.114,368.902 137.090,369.139 135.800 C 369.220 135.360,369.627 134.678,370.043 134.284 C 371.076 133.308,370.993 132.800,369.800 132.800 C 369.000 132.800,368.800 133.000,368.800 133.800 M365.344 139.402 C 365.206 139.760,365.296 140.223,365.544 140.430 C 365.791 140.637,365.906 140.687,365.800 140.540 C 365.694 140.394,365.794 140.048,366.023 139.772 C 366.311 139.425,366.309 139.191,366.017 139.010 C 365.784 138.867,365.482 139.043,365.344 139.402 M335.570 139.387 C 334.911 139.670,335.405 141.200,336.156 141.200 C 336.850 141.200,337.158 140.933,337.296 140.209 C 337.461 139.348,336.608 138.942,335.570 139.387 M331.770 141.796 C 330.972 142.735,331.214 143.200,332.500 143.200 C 333.590 143.200,333.800 143.051,333.800 142.280 C 333.800 141.285,332.473 140.968,331.770 141.796 M363.900 142.687 C 362.991 142.824,362.800 143.055,362.800 144.014 C 362.800 145.528,364.410 145.093,364.847 143.461 C 365.003 142.877,365.101 142.427,365.065 142.460 C 365.029 142.493,364.505 142.595,363.900 142.687 M327.680 143.680 C 327.416 143.944,327.199 144.439,327.199 144.780 C 327.198 145.221,326.774 145.410,325.726 145.433 C 324.683 145.456,324.086 145.719,323.678 146.333 C 323.361 146.810,322.854 147.200,322.551 147.200 C 322.248 147.200,321.997 147.425,321.994 147.700 C 321.989 148.061,321.906 148.073,321.694 147.743 C 321.497 147.437,321.164 147.601,320.681 148.243 C 320.286 148.769,320.136 149.200,320.348 149.200 C 320.560 149.200,320.824 148.975,320.935 148.700 C 321.096 148.300,321.143 148.300,321.168 148.700 C 321.235 149.752,323.200 149.269,323.200 148.200 C 323.200 147.269,323.335 147.200,325.172 147.200 C 326.913 147.200,327.159 147.094,327.272 146.300 C 327.369 145.618,327.704 145.370,328.658 145.278 C 330.391 145.109,330.912 143.200,329.225 143.200 C 328.639 143.200,327.944 143.416,327.680 143.680 M361.900 146.264 C 361.101 146.685,360.807 147.139,360.825 147.922 C 360.849 148.935,360.872 148.948,361.199 148.135 C 361.391 147.660,361.890 147.162,362.307 147.029 C 362.725 146.897,363.067 146.521,363.067 146.194 C 363.067 145.867,363.052 145.619,363.033 145.642 C 363.015 145.666,362.505 145.946,361.900 146.264 M342.000 149.200 C 342.000 149.420,342.180 149.600,342.400 149.600 C 342.620 149.600,342.800 149.898,342.800 150.262 C 342.800 150.857,342.881 150.851,343.600 150.200 C 344.713 149.193,344.600 148.800,343.200 148.800 C 342.540 148.800,342.000 148.980,342.000 149.200 M317.200 150.172 C 317.200 151.009,317.391 151.200,318.228 151.200 C 319.065 151.200,319.232 151.033,319.128 150.300 C 318.932 148.919,317.200 148.804,317.200 150.172 M346.200 150.800 C 346.336 151.020,346.249 151.200,346.008 151.200 C 345.725 151.200,345.752 151.399,346.084 151.758 C 346.723 152.450,347.200 152.201,347.200 151.176 C 347.200 150.740,346.927 150.400,346.576 150.400 C 346.233 150.400,346.064 150.580,346.200 150.800 M337.275 151.700 C 337.379 152.448,337.189 152.621,336.155 152.721 C 334.216 152.910,333.592 154.609,335.415 154.732 C 336.523 154.806,336.763 154.671,336.871 153.911 C 336.978 153.154,337.304 152.966,338.800 152.800 C 341.560 152.493,341.732 150.800,339.003 150.800 C 337.311 150.800,337.161 150.878,337.275 151.700 M313.467 151.467 C 312.713 152.220,313.241 153.200,314.400 153.200 C 315.413 153.200,315.600 153.044,315.600 152.200 C 315.600 151.220,314.196 150.737,313.467 151.467 M347.200 153.400 C 347.200 153.730,347.425 154.003,347.700 154.006 C 348.033 154.010,348.000 154.142,347.600 154.400 C 347.132 154.702,347.243 154.789,348.100 154.794 C 349.008 154.799,349.200 154.626,349.200 153.800 C 349.200 153.000,349.000 152.800,348.200 152.800 C 347.578 152.800,347.200 153.027,347.200 153.400 M356.800 153.796 C 356.800 154.605,356.982 154.776,357.771 154.711 C 358.305 154.666,358.662 154.501,358.565 154.343 C 358.467 154.185,358.570 153.942,358.793 153.804 C 359.588 153.313,359.182 152.800,358.000 152.800 C 356.988 152.800,356.800 152.956,356.800 153.796 M309.468 153.465 C 308.730 154.204,309.238 155.200,310.353 155.200 C 311.991 155.200,312.406 153.401,310.797 153.279 C 310.213 153.234,309.615 153.318,309.468 153.465 M330.400 155.800 C 330.400 156.644,330.587 156.800,331.600 156.800 C 332.260 156.800,332.800 156.635,332.800 156.433 C 332.800 156.231,332.909 155.781,333.043 155.433 C 333.237 154.928,332.994 154.800,331.843 154.800 C 330.570 154.800,330.400 154.918,330.400 155.800 M175.680 155.680 C 174.970 156.390,175.098 157.261,175.900 157.179 C 177.901 156.976,178.421 157.206,178.660 158.400 C 178.862 159.411,179.087 159.600,180.093 159.600 C 181.016 159.600,181.231 159.457,181.043 158.967 C 180.909 158.619,180.800 158.189,180.800 158.011 C 180.800 157.832,180.350 157.574,179.800 157.436 C 179.133 157.268,178.800 156.907,178.800 156.350 C 178.800 155.772,178.615 155.585,178.200 155.745 C 177.870 155.871,177.600 155.801,177.600 155.587 C 177.600 155.040,176.255 155.105,175.680 155.680 M305.680 155.680 C 304.826 156.534,305.142 157.200,306.400 157.200 C 307.413 157.200,307.600 157.044,307.600 156.200 C 307.600 155.105,306.541 154.819,305.680 155.680 M356.400 156.400 C 356.400 156.620,356.053 156.800,355.628 156.800 C 355.132 156.800,354.810 157.122,354.728 157.700 C 354.530 159.092,351.933 159.009,351.600 157.600 C 351.248 156.107,349.448 156.184,349.273 157.700 C 349.164 158.647,349.290 158.800,350.173 158.800 C 351.002 158.800,351.200 158.993,351.200 159.800 C 351.200 161.284,354.581 161.327,354.952 159.848 C 355.084 159.324,355.553 158.801,355.996 158.685 C 356.713 158.498,357.275 156.000,356.600 156.000 C 356.490 156.000,356.400 156.180,356.400 156.400 M326.702 157.800 C 326.536 158.671,326.653 158.800,327.613 158.800 C 328.616 158.800,329.200 158.199,329.200 157.167 C 329.200 156.226,326.891 156.811,326.702 157.800 M169.680 157.680 C 168.766 158.594,169.126 159.258,170.463 159.125 C 171.417 159.031,171.758 158.781,171.860 158.100 C 172.013 157.082,170.558 156.802,169.680 157.680 M301.758 157.899 C 301.447 158.210,301.295 158.630,301.420 158.832 C 301.654 159.211,301.126 159.346,299.900 159.221 C 299.268 159.157,299.005 159.623,299.163 160.530 C 299.194 160.711,299.048 160.753,298.838 160.623 C 298.627 160.493,298.342 160.570,298.204 160.793 C 298.050 161.043,298.569 161.200,299.549 161.200 C 300.899 161.200,301.164 161.062,301.272 160.300 C 301.375 159.577,301.695 159.376,302.900 159.276 C 304.346 159.156,304.715 158.689,304.094 157.761 C 303.685 157.148,302.435 157.222,301.758 157.899 M322.800 159.800 C 322.800 160.600,323.000 160.800,323.800 160.800 C 324.350 160.800,324.800 160.635,324.800 160.433 C 324.800 160.231,324.909 159.781,325.043 159.433 C 325.232 158.939,325.012 158.800,324.043 158.800 C 322.984 158.800,322.800 158.948,322.800 159.800 M164.508 160.249 L 163.661 161.200 164.807 161.200 C 166.176 161.200,166.660 160.602,165.903 159.846 C 165.439 159.382,165.225 159.444,164.508 160.249 M181.632 159.420 C 181.614 159.651,181.825 160.067,182.100 160.344 C 182.501 160.748,182.461 160.795,181.900 160.581 C 181.494 160.426,181.200 160.501,181.200 160.757 C 181.200 161.001,181.548 161.200,181.973 161.200 C 182.520 161.200,182.784 161.523,182.873 162.300 C 182.964 163.091,183.225 163.400,183.800 163.400 C 184.325 163.400,184.644 163.709,184.728 164.300 C 184.816 164.924,185.123 165.196,185.728 165.188 C 186.513 165.177,186.530 165.135,185.900 164.768 C 185.515 164.544,185.200 164.099,185.200 163.780 C 185.200 163.461,185.020 163.200,184.800 163.200 C 184.580 163.200,184.400 162.970,184.400 162.689 C 184.400 162.408,184.040 161.870,183.600 161.493 C 183.160 161.116,182.800 160.525,182.800 160.180 C 182.800 159.835,182.635 159.655,182.434 159.779 C 182.233 159.903,181.977 159.779,181.866 159.502 C 181.754 159.226,181.649 159.189,181.632 159.420 M318.800 161.773 C 318.800 162.538,318.564 162.774,317.700 162.873 C 316.906 162.965,316.588 163.234,316.557 163.843 C 316.498 165.007,318.070 164.897,318.595 163.700 C 318.855 163.106,319.336 162.800,320.006 162.800 C 320.865 162.800,322.400 161.643,322.400 160.995 C 322.400 160.888,321.590 160.800,320.600 160.800 C 318.960 160.800,318.800 160.886,318.800 161.773 M159.467 161.467 C 158.728 162.205,159.239 163.200,160.357 163.200 C 161.417 163.200,162.000 162.620,162.000 161.567 C 162.000 161.147,159.870 161.063,159.467 161.467 M295.200 162.173 C 295.200 163.053,295.376 163.200,296.428 163.200 C 297.472 163.200,297.637 163.066,297.528 162.300 C 297.327 160.885,295.200 160.770,295.200 162.173 M153.829 163.829 C 152.794 164.863,153.105 165.253,154.862 165.123 C 156.233 165.022,156.548 164.842,156.660 164.100 C 156.826 162.993,154.853 162.804,153.829 163.829 M291.467 163.467 C 291.320 163.613,291.200 164.063,291.200 164.467 C 291.200 165.675,293.061 165.439,293.298 164.200 C 293.486 163.215,292.223 162.710,291.467 163.467 M312.100 165.800 C 312.100 166.662,312.280 166.800,313.403 166.800 C 314.476 166.800,314.741 166.623,314.898 165.800 C 315.074 164.878,314.973 164.800,313.595 164.800 C 312.267 164.800,312.100 164.912,312.100 165.800 M148.495 165.466 C 146.684 166.196,147.200 167.200,149.386 167.200 C 151.481 167.200,151.600 167.146,151.600 166.200 C 151.600 165.201,150.059 164.836,148.495 165.466 M287.467 165.467 C 286.713 166.220,287.241 167.200,288.400 167.200 C 289.621 167.200,289.790 166.959,289.357 165.833 C 289.113 165.195,287.961 164.972,287.467 165.467 M308.800 167.800 C 308.800 168.600,309.000 168.800,309.800 168.800 C 310.350 168.800,310.800 168.635,310.800 168.433 C 310.800 168.231,310.909 167.781,311.043 167.433 C 311.232 166.939,311.012 166.800,310.043 166.800 C 308.984 166.800,308.800 166.948,308.800 167.800 M143.388 167.546 C 142.641 168.292,143.306 169.200,144.600 169.200 C 145.854 169.200,146.083 169.023,145.966 168.145 C 145.947 168.004,146.172 167.731,146.466 167.538 C 146.808 167.313,146.385 167.217,145.288 167.272 C 144.346 167.319,143.491 167.442,143.388 167.546 M283.467 167.467 C 283.320 167.613,283.200 168.063,283.200 168.467 C 283.200 169.692,285.747 169.474,286.327 168.200 C 286.778 167.210,284.347 166.586,283.467 167.467 M345.963 168.239 L 345.004 169.260 346.602 169.130 C 347.616 169.048,348.163 168.817,348.100 168.500 C 348.045 168.225,348.180 168.000,348.400 168.000 C 349.238 168.000,348.755 167.371,347.861 167.297 C 347.297 167.250,346.538 167.627,345.963 168.239 M171.102 169.800 C 170.917 170.766,170.984 170.800,173.055 170.800 C 175.076 170.800,175.200 170.742,175.200 169.800 C 175.200 168.870,175.064 168.800,173.247 168.800 C 171.481 168.800,171.275 168.896,171.102 169.800 M304.800 169.167 C 304.800 169.369,304.691 169.819,304.557 170.167 C 304.369 170.658,304.585 170.800,305.514 170.800 C 306.617 170.800,307.200 170.236,307.200 169.167 C 307.200 168.965,306.660 168.800,306.000 168.800 C 305.340 168.800,304.800 168.965,304.800 169.167 M137.467 169.467 C 136.497 170.437,137.260 171.200,139.200 171.200 C 141.067 171.200,141.200 171.133,141.200 170.200 C 141.200 169.210,138.294 168.639,137.467 169.467 M279.829 169.829 C 279.483 170.174,279.200 170.624,279.200 170.829 C 279.200 171.033,278.742 171.200,278.182 171.200 C 277.622 171.200,276.714 171.650,276.164 172.200 C 275.614 172.750,274.938 173.200,274.662 173.200 C 274.009 173.200,273.200 174.019,273.200 174.680 C 273.200 175.644,275.132 175.290,275.272 174.300 C 275.381 173.534,275.679 173.382,277.275 173.279 C 278.856 173.177,279.169 173.021,279.275 172.279 C 279.363 171.657,279.721 171.363,280.500 171.273 C 281.258 171.186,281.600 170.917,281.600 170.407 C 281.600 170.000,281.825 169.576,282.100 169.465 C 282.375 169.354,282.118 169.249,281.529 169.232 C 280.939 169.214,280.174 169.483,279.829 169.829 M341.484 169.450 C 340.734 170.199,341.227 171.200,342.345 171.200 C 343.280 171.200,343.482 171.034,343.445 170.300 C 343.400 169.406,342.094 168.840,341.484 169.450 M166.092 171.800 C 166.018 172.691,166.161 172.800,167.404 172.800 C 168.172 172.800,168.800 172.635,168.800 172.433 C 168.800 172.231,168.909 171.781,169.043 171.433 C 169.239 170.923,168.984 170.800,167.730 170.800 C 166.360 170.800,166.165 170.919,166.092 171.800 M175.329 171.440 C 175.072 172.111,175.915 172.900,176.502 172.537 C 176.689 172.421,177.052 172.883,177.309 173.563 C 177.808 174.887,178.952 175.224,179.357 174.167 C 179.790 173.041,179.621 172.800,178.400 172.800 C 177.387 172.800,177.200 172.644,177.200 171.800 C 177.200 170.639,175.744 170.359,175.329 171.440 M301.200 171.900 C 301.200 172.962,302.572 173.170,302.957 172.167 C 303.368 171.095,303.237 170.883,302.200 170.942 C 301.447 170.986,301.200 171.222,301.200 171.900 M131.680 171.680 C 130.658 172.702,131.156 173.200,133.200 173.200 C 135.067 173.200,135.200 173.133,135.200 172.200 C 135.200 171.079,132.657 170.703,131.680 171.680 M337.457 171.476 C 336.712 172.221,337.247 173.200,338.400 173.200 C 339.383 173.200,339.600 173.035,339.600 172.287 C 339.600 171.392,338.106 170.827,337.457 171.476 M160.800 173.800 C 160.800 174.649,160.985 174.800,162.024 174.800 C 162.728 174.800,163.144 174.632,163.003 174.405 C 162.865 174.182,163.017 174.108,163.349 174.236 C 163.699 174.370,164.119 174.124,164.383 173.631 C 164.806 172.841,164.729 172.800,162.814 172.800 C 160.932 172.800,160.800 172.866,160.800 173.800 M297.128 173.700 C 297.019 174.468,296.721 174.618,295.100 174.722 C 294.055 174.789,293.178 175.014,293.150 175.222 C 293.123 175.430,293.078 175.823,293.050 176.096 C 293.022 176.369,292.460 176.690,291.800 176.809 C 290.718 177.005,290.312 178.017,291.021 178.749 C 291.367 179.107,292.494 178.327,292.685 177.598 C 292.881 176.846,293.309 176.611,294.174 176.777 C 295.115 176.959,296.302 176.333,296.709 175.441 C 297.039 174.716,297.372 174.520,297.995 174.683 C 298.772 174.886,299.951 173.948,299.987 173.100 C 300.023 172.250,297.251 172.831,297.128 173.700 M127.600 174.000 C 127.600 174.480,127.333 174.800,126.933 174.800 C 126.567 174.800,126.373 174.906,126.503 175.037 C 126.633 175.167,127.127 175.150,127.600 175.000 C 128.073 174.850,128.358 174.625,128.234 174.500 C 128.109 174.376,128.207 174.032,128.452 173.737 C 128.794 173.325,128.747 173.200,128.249 173.200 C 127.867 173.200,127.600 173.529,127.600 174.000 M192.873 174.300 C 192.977 175.202,193.176 175.380,193.975 175.291 C 195.229 175.152,195.327 175.032,195.010 174.030 C 194.573 172.654,192.711 172.890,192.873 174.300 M333.710 173.947 C 332.947 174.710,333.610 175.296,335.051 175.131 C 336.693 174.944,336.996 173.160,335.364 173.295 C 334.763 173.344,334.019 173.638,333.710 173.947 M156.072 175.700 C 156.172 176.405,156.460 176.600,157.400 176.600 C 158.340 176.600,158.628 176.405,158.728 175.700 C 158.840 174.908,158.681 174.800,157.400 174.800 C 156.119 174.800,155.960 174.908,156.072 175.700 M121.372 175.645 C 121.221 175.889,121.321 176.228,121.594 176.396 C 121.980 176.635,121.970 176.751,121.545 176.920 C 121.245 177.039,121.542 177.151,122.204 177.168 C 123.355 177.199,124.797 175.864,124.228 175.294 C 124.102 175.169,123.997 175.322,123.994 175.633 C 123.989 176.100,123.918 176.094,123.594 175.600 C 123.244 175.067,123.156 175.067,122.806 175.600 C 122.543 176.001,122.410 176.034,122.406 175.700 C 122.399 175.080,121.743 175.045,121.372 175.645 M269.200 176.187 C 269.200 177.613,271.412 177.693,271.683 176.277 C 271.836 175.475,271.685 175.342,270.530 175.264 C 269.350 175.185,269.200 175.289,269.200 176.187 M331.200 176.200 C 331.200 177.317,331.784 177.541,332.157 176.567 C 332.541 175.566,332.446 175.200,331.800 175.200 C 331.427 175.200,331.200 175.578,331.200 176.200 M150.872 177.700 C 151.068 179.081,152.800 179.196,152.800 177.828 C 152.800 176.991,152.609 176.800,151.772 176.800 C 150.935 176.800,150.768 176.967,150.872 177.700 M181.200 177.372 C 181.200 177.717,181.425 178.003,181.700 178.006 C 182.033 178.010,182.000 178.142,181.600 178.400 C 181.119 178.711,181.187 178.789,181.942 178.794 C 182.466 178.797,183.235 179.245,183.671 179.800 C 184.104 180.350,184.625 180.800,184.829 180.800 C 185.033 180.800,185.200 180.350,185.200 179.800 C 185.200 179.000,185.000 178.800,184.200 178.800 C 183.650 178.800,183.178 178.620,183.150 178.400 C 183.123 178.180,183.078 177.775,183.050 177.500 C 182.973 176.734,181.200 176.611,181.200 177.372 M115.680 177.680 C 114.728 178.632,115.151 179.200,116.814 179.200 C 118.266 179.200,118.388 179.125,118.028 178.453 C 117.808 178.042,117.742 177.592,117.881 177.453 C 118.020 177.314,117.689 177.200,117.147 177.200 C 116.604 177.200,115.944 177.416,115.680 177.680 M197.067 177.467 C 196.460 178.073,196.853 179.127,197.772 179.357 C 198.369 179.507,198.794 179.941,198.872 180.482 C 198.964 181.115,199.295 181.377,200.048 181.417 C 200.988 181.465,201.068 181.364,200.819 180.435 C 200.667 179.866,200.288 179.400,199.977 179.400 C 199.665 179.400,199.174 178.905,198.884 178.300 C 198.378 177.245,197.631 176.902,197.067 177.467 M265.467 177.467 C 264.713 178.220,265.241 179.200,266.400 179.200 C 267.413 179.200,267.600 179.044,267.600 178.200 C 267.600 177.220,266.196 176.737,265.467 177.467 M327.200 178.173 C 327.200 179.053,327.376 179.200,328.428 179.200 C 329.472 179.200,329.637 179.066,329.528 178.300 C 329.327 176.885,327.200 176.770,327.200 178.173 M145.983 179.568 C 146.282 180.126,146.258 180.390,145.897 180.536 C 145.575 180.666,145.622 180.748,146.030 180.768 C 146.377 180.786,147.083 180.350,147.600 179.800 L 148.539 178.800 147.056 178.800 C 145.717 178.800,145.612 178.875,145.983 179.568 M286.100 179.800 C 286.100 180.662,286.280 180.800,287.403 180.800 C 288.476 180.800,288.741 180.623,288.898 179.800 C 289.074 178.878,288.973 178.800,287.595 178.800 C 286.267 178.800,286.100 178.912,286.100 179.800 M110.530 180.207 L 109.661 181.200 111.430 181.200 C 113.051 181.200,113.200 181.116,113.200 180.200 C 113.200 178.854,111.712 178.858,110.530 180.207 M261.387 179.800 C 261.284 180.130,261.130 180.631,261.045 180.914 C 260.934 181.285,261.280 181.383,262.280 181.267 C 263.393 181.137,263.630 180.959,263.477 180.371 C 263.371 179.968,263.491 179.554,263.742 179.451 C 263.994 179.348,263.609 179.249,262.887 179.232 C 262.050 179.211,261.507 179.417,261.387 179.800 M323.467 179.467 C 322.786 180.147,323.231 181.200,324.200 181.200 C 324.750 181.200,325.200 181.035,325.200 180.833 C 325.200 180.631,325.309 180.181,325.443 179.833 C 325.692 179.183,324.053 178.880,323.467 179.467 M138.712 181.748 C 138.540 182.650,138.631 182.694,140.565 182.648 C 142.353 182.606,142.615 182.491,142.728 181.700 C 142.929 180.284,138.983 180.331,138.712 181.748 M282.800 181.800 C 282.800 182.742,284.738 183.410,284.831 182.500 C 284.847 182.335,284.922 181.885,284.995 181.500 C 285.098 180.963,284.858 180.800,283.965 180.800 C 282.989 180.800,282.800 180.962,282.800 181.800 M105.467 181.467 C 104.649 182.284,105.248 183.200,106.600 183.200 C 107.827 183.200,108.000 183.076,108.000 182.200 C 108.000 181.215,106.231 180.702,105.467 181.467 M257.680 181.680 C 256.740 182.620,257.151 183.200,258.757 183.200 C 260.288 183.200,260.860 182.710,260.508 181.700 C 260.285 181.063,258.311 181.049,257.680 181.680 M319.467 181.467 C 319.320 181.613,319.200 182.051,319.200 182.439 C 319.200 182.866,318.845 183.195,318.300 183.272 L 317.400 183.400 317.299 263.273 L 317.198 343.145 318.039 343.412 C 318.502 343.559,319.042 343.518,319.239 343.321 C 319.448 343.112,319.640 309.568,319.699 263.181 L 319.800 183.400 320.700 183.272 C 322.015 183.085,321.985 181.200,320.667 181.200 C 320.153 181.200,319.613 181.320,319.467 181.467 M135.384 183.118 C 135.504 183.237,135.338 183.627,135.015 183.984 C 134.488 184.566,134.544 184.641,135.567 184.719 C 136.482 184.788,136.741 184.618,136.888 183.853 C 137.038 183.065,136.905 182.900,136.118 182.900 C 135.595 182.900,135.265 182.998,135.384 183.118 M279.169 183.100 C 279.153 183.265,279.078 183.715,279.005 184.100 C 278.909 184.602,279.130 184.800,279.789 184.800 C 280.450 184.800,280.760 184.521,280.898 183.800 C 281.058 182.962,280.936 182.800,280.145 182.800 C 279.625 182.800,279.186 182.935,279.169 183.100 M99.615 183.782 C 98.854 184.698,99.495 185.200,101.424 185.200 C 103.052 185.200,103.200 185.117,103.200 184.200 C 103.200 183.022,100.506 182.708,99.615 183.782 M254.530 184.207 L 253.661 185.200 254.654 185.200 C 255.214 185.200,255.539 185.026,255.400 184.800 C 255.264 184.580,255.313 184.400,255.510 184.400 C 255.706 184.400,255.867 184.130,255.867 183.800 C 255.867 182.959,255.535 183.060,254.530 184.207 M128.400 185.800 C 128.400 187.124,130.319 187.207,131.438 185.931 C 131.857 185.453,131.975 185.194,131.700 185.355 C 131.425 185.516,131.200 185.457,131.200 185.224 C 131.200 184.991,130.570 184.800,129.800 184.800 C 128.573 184.800,128.400 184.924,128.400 185.800 M274.800 185.800 C 274.800 186.624,274.607 186.800,273.700 186.800 C 272.809 186.801,272.589 186.990,272.542 187.800 C 272.468 189.093,272.992 189.066,274.246 187.712 C 274.801 187.114,275.647 186.619,276.127 186.612 C 276.723 186.604,277.041 186.314,277.128 185.700 C 277.237 184.934,277.072 184.800,276.028 184.800 C 274.985 184.800,274.800 184.951,274.800 185.800 M93.772 185.886 C 92.724 186.933,93.157 187.242,95.500 187.120 C 97.494 187.016,97.800 186.893,97.799 186.200 C 97.799 185.199,94.700 184.957,93.772 185.886 M251.268 186.068 C 251.356 186.689,251.711 187.044,252.332 187.132 C 253.108 187.242,253.242 187.108,253.132 186.332 C 253.044 185.711,252.689 185.356,252.068 185.268 C 251.292 185.158,251.158 185.292,251.268 186.068 M122.800 187.800 C 122.800 188.921,125.343 189.297,126.320 188.320 C 127.342 187.298,126.844 186.800,124.800 186.800 C 122.933 186.800,122.800 186.867,122.800 187.800 M89.200 188.261 C 89.200 189.062,89.400 189.200,90.557 189.200 C 91.914 189.200,92.576 188.531,92.054 187.688 C 91.491 186.777,89.200 187.237,89.200 188.261 M247.200 188.200 C 247.200 189.044,247.387 189.200,248.400 189.200 C 249.413 189.200,249.600 189.044,249.600 188.200 C 249.600 187.356,249.413 187.200,248.400 187.200 C 247.387 187.200,247.200 187.356,247.200 188.200 M190.374 188.366 C 192.627 190.098,193.547 190.484,193.316 189.601 C 193.184 189.096,192.771 188.800,192.196 188.800 C 191.695 188.800,191.182 188.530,191.055 188.200 C 190.929 187.870,190.504 187.604,190.113 187.609 C 189.520 187.616,189.563 187.743,190.374 188.366 M117.272 189.700 C 117.380 190.462,117.645 190.600,119.000 190.600 C 120.355 190.600,120.620 190.462,120.728 189.700 C 120.845 188.878,120.696 188.800,119.000 188.800 C 117.304 188.800,117.155 188.878,117.272 189.700 M267.870 189.063 C 267.725 189.208,267.830 189.603,268.103 189.940 C 268.510 190.443,268.499 190.492,268.038 190.215 C 267.657 189.985,267.568 190.025,267.762 190.338 C 268.411 191.388,270.800 190.588,270.800 189.320 C 270.800 188.780,268.366 188.567,267.870 189.063 M83.467 189.467 C 83.126 189.807,83.117 191.200,83.456 191.200 C 83.766 191.200,84.770 189.919,84.787 189.500 C 84.803 189.128,83.830 189.104,83.467 189.467 M171.798 189.765 C 170.794 190.940,171.198 191.200,174.028 191.200 C 176.732 191.200,176.850 191.161,176.728 190.300 C 176.582 189.275,172.588 188.841,171.798 189.765 M208.133 189.771 C 208.133 190.098,208.270 190.281,208.436 190.178 C 208.603 190.074,208.831 190.307,208.944 190.695 C 209.069 191.127,209.119 191.024,209.074 190.431 C 208.994 189.389,208.133 188.785,208.133 189.771 M243.467 189.467 C 242.786 190.147,243.231 191.200,244.200 191.200 C 245.000 191.200,245.200 191.000,245.200 190.200 C 245.200 189.231,244.147 188.786,243.467 189.467 M84.681 190.533 C 84.568 190.827,84.721 191.067,85.021 191.067 C 85.320 191.067,85.658 190.827,85.770 190.533 C 85.883 190.240,85.730 190.000,85.430 190.000 C 85.131 190.000,84.793 190.240,84.681 190.533 M112.302 191.800 C 112.129 192.706,112.237 192.800,113.455 192.800 C 114.195 192.800,114.800 192.635,114.800 192.433 C 114.800 192.231,114.909 191.781,115.043 191.433 C 115.236 190.930,114.998 190.800,113.889 190.800 C 112.718 190.800,112.463 190.961,112.302 191.800 M193.272 191.684 C 193.352 192.238,193.773 192.659,194.400 192.812 C 195.131 192.992,195.374 193.292,195.305 193.929 C 195.230 194.616,195.420 194.800,196.205 194.800 C 197.000 194.800,197.200 195.001,197.200 195.800 C 197.200 196.600,197.400 196.800,198.200 196.800 C 198.750 196.800,199.200 196.635,199.200 196.433 C 199.200 196.231,199.309 195.781,199.443 195.433 C 199.632 194.939,199.412 194.800,198.443 194.800 C 197.327 194.800,197.000 194.470,197.153 193.500 C 197.198 193.215,197.064 193.166,195.900 193.050 C 195.625 193.023,195.343 192.505,195.273 191.900 C 195.173 191.027,194.941 190.800,194.146 190.800 C 193.341 190.800,193.169 190.973,193.272 191.684 M264.800 191.800 C 264.800 192.587,265.003 192.800,265.753 192.800 C 266.453 192.800,266.758 192.533,266.898 191.800 C 267.066 190.922,266.950 190.800,265.945 190.800 C 264.990 190.800,264.800 190.966,264.800 191.800 M77.680 191.680 C 76.573 192.787,77.139 193.243,79.468 193.120 C 81.496 193.013,81.744 192.904,81.802 192.100 C 81.876 191.069,78.622 190.738,77.680 191.680 M166.482 191.900 C 166.563 192.377,166.377 192.563,165.900 192.482 C 165.515 192.418,165.200 192.508,165.200 192.682 C 165.200 193.319,169.094 193.254,169.339 192.614 C 169.602 191.930,168.501 191.200,167.209 191.200 C 166.627 191.200,166.401 191.417,166.482 191.900 M239.467 191.467 C 238.869 192.064,239.245 193.115,240.115 193.282 C 241.486 193.544,242.000 193.239,242.000 192.167 C 242.000 191.213,240.214 190.719,239.467 191.467 M301.200 192.073 C 301.200 192.912,301.996 193.027,302.779 192.300 C 303.210 191.900,303.261 191.900,303.033 192.303 C 302.863 192.605,303.039 192.913,303.475 193.074 C 303.874 193.221,304.332 193.535,304.494 193.771 C 304.656 194.007,304.791 227.725,304.794 268.700 L 304.800 343.200 306.000 343.200 L 307.200 343.200 307.195 268.100 C 307.192 226.795,307.084 192.609,306.956 192.132 C 306.631 190.918,301.200 190.862,301.200 192.073 M107.798 193.700 C 107.842 194.306,108.161 194.644,108.776 194.734 C 109.420 194.828,109.599 194.721,109.383 194.372 C 109.176 194.037,109.241 193.978,109.583 194.189 C 110.121 194.522,110.891 193.671,110.550 193.119 C 110.044 192.300,107.733 192.787,107.798 193.700 M260.800 193.167 C 260.800 193.369,260.691 193.819,260.557 194.167 C 260.368 194.661,260.588 194.800,261.557 194.800 C 262.241 194.800,262.800 194.635,262.800 194.433 C 262.800 194.231,262.909 193.781,263.043 193.433 C 263.232 192.939,263.012 192.800,262.043 192.800 C 261.359 192.800,260.800 192.965,260.800 193.167 M72.800 194.245 L 71.800 195.242 73.600 195.121 C 75.118 195.019,75.420 194.859,75.528 194.100 C 75.706 192.843,74.122 192.928,72.800 194.245 M161.200 194.203 C 161.200 195.162,163.935 195.836,164.031 194.900 C 164.047 194.735,164.117 194.314,164.186 193.964 C 164.281 193.478,163.944 193.313,162.755 193.267 C 161.348 193.212,161.200 193.301,161.200 194.203 M235.680 193.680 C 234.826 194.534,235.142 195.200,236.400 195.200 C 237.060 195.200,237.600 195.035,237.600 194.833 C 237.600 194.631,237.709 194.181,237.843 193.833 C 238.141 193.056,236.425 192.935,235.680 193.680 M297.467 193.467 C 296.728 194.205,297.239 195.200,298.357 195.200 C 299.519 195.200,300.032 194.630,299.708 193.700 C 299.525 193.175,297.925 193.009,297.467 193.467 M102.072 195.700 C 102.172 196.405,102.460 196.600,103.400 196.600 C 104.340 196.600,104.628 196.405,104.728 195.700 C 104.840 194.908,104.681 194.800,103.400 194.800 C 102.119 194.800,101.960 194.908,102.072 195.700 M257.167 194.900 C 256.985 195.444,256.986 196.797,257.167 196.787 C 257.510 196.767,259.200 195.311,259.200 195.036 C 259.200 194.815,257.239 194.684,257.167 194.900 M67.467 195.467 C 66.713 196.220,67.241 197.200,68.400 197.200 C 69.413 197.200,69.600 197.044,69.600 196.200 C 69.600 195.220,68.196 194.737,67.467 195.467 M155.467 195.467 C 154.497 196.437,155.260 197.200,157.200 197.200 C 158.300 197.200,159.200 197.035,159.200 196.833 C 159.200 196.631,159.309 196.181,159.443 195.833 C 159.695 195.176,156.089 194.844,155.467 195.467 M212.873 196.297 C 213.002 197.412,213.809 197.852,214.685 197.285 C 215.530 196.739,214.823 195.200,213.727 195.200 C 212.894 195.200,212.766 195.365,212.873 196.297 M231.859 196.174 C 231.336 196.738,230.560 197.200,230.134 197.200 C 229.575 197.200,229.360 197.478,229.360 198.200 C 229.360 198.977,229.565 199.200,230.280 199.200 C 230.995 199.200,231.200 198.977,231.200 198.200 C 231.200 197.265,231.331 197.200,233.228 197.200 C 235.102 197.200,235.246 197.132,235.128 196.300 C 234.934 194.937,233.072 194.865,231.859 196.174 M293.467 195.467 C 292.713 196.220,293.241 197.200,294.400 197.200 C 295.413 197.200,295.600 197.044,295.600 196.200 C 295.600 195.220,294.196 194.737,293.467 195.467 M96.993 197.464 C 96.334 198.123,96.199 198.571,96.766 198.221 C 96.967 198.097,97.223 198.221,97.334 198.498 C 97.461 198.812,97.549 198.748,97.568 198.328 C 97.586 197.951,97.995 197.596,98.500 197.520 L 99.400 197.384 98.493 197.127 C 97.928 196.968,97.363 197.095,96.993 197.464 M253.312 197.568 C 253.253 198.357,254.189 198.978,254.836 198.578 C 255.036 198.454,255.200 198.003,255.200 197.576 C 255.200 196.496,253.394 196.488,253.312 197.568 M61.742 197.786 C 61.013 198.567,61.641 199.200,63.146 199.200 C 64.440 199.200,64.636 199.073,64.709 198.188 C 64.800 197.095,62.659 196.805,61.742 197.786 M149.680 197.680 C 148.900 198.460,149.129 199.200,150.150 199.200 C 150.897 199.200,151.100 198.986,151.100 198.200 C 151.100 197.130,150.463 196.897,149.680 197.680 M289.680 197.680 C 288.749 198.611,289.150 199.200,290.713 199.200 C 292.038 199.200,292.236 199.076,292.308 198.200 C 292.401 197.083,290.628 196.732,289.680 197.680 M90.310 199.760 C 90.070 201.012,92.579 201.174,93.700 199.979 C 94.714 198.899,94.609 198.800,92.447 198.800 C 90.702 198.800,90.474 198.903,90.310 199.760 M201.200 199.800 C 201.200 200.600,201.400 200.800,202.200 200.800 C 202.750 200.800,203.200 200.635,203.200 200.433 C 203.200 200.231,203.309 199.781,203.443 199.433 C 203.632 198.939,203.412 198.800,202.443 198.800 C 201.384 198.800,201.200 198.948,201.200 199.800 M248.800 199.800 C 248.800 200.587,248.597 200.800,247.847 200.800 C 246.741 200.800,246.088 202.305,247.036 202.669 C 247.721 202.932,248.800 202.126,248.800 201.351 C 248.800 200.990,249.273 200.800,250.171 200.800 C 251.473 200.800,252.800 199.978,252.800 199.171 C 252.800 198.967,251.900 198.800,250.800 198.800 C 248.933 198.800,248.800 198.867,248.800 199.800 M56.489 199.823 C 55.101 200.795,55.428 201.200,57.600 201.200 C 59.467 201.200,59.600 201.133,59.600 200.200 C 59.600 198.998,57.952 198.798,56.489 199.823 M145.680 199.680 C 145.310 200.050,145.200 216.581,145.200 271.653 L 145.200 343.146 146.040 343.413 C 147.599 343.907,147.597 343.993,147.699 271.081 L 147.800 199.200 146.980 199.200 C 146.529 199.200,145.944 199.416,145.680 199.680 M216.880 200.367 C 216.964 201.087,217.272 201.439,217.900 201.528 C 218.478 201.610,218.800 201.932,218.800 202.428 C 218.800 202.933,219.076 203.200,219.600 203.200 C 220.040 203.200,220.400 203.020,220.400 202.800 C 220.400 202.580,220.253 202.400,220.074 202.400 C 219.894 202.400,219.360 201.710,218.886 200.867 C 217.876 199.071,216.695 198.777,216.880 200.367 M225.200 200.172 C 225.200 200.982,225.398 201.200,226.133 201.200 C 227.405 201.200,227.347 199.460,226.069 199.272 C 225.369 199.169,225.200 199.345,225.200 200.172 M286.498 199.816 C 286.004 200.162,285.600 200.615,285.600 200.823 C 285.600 201.435,287.205 201.253,287.450 200.613 C 287.867 199.527,287.432 199.162,286.498 199.816 M84.400 201.821 C 84.400 203.294,88.518 203.179,88.728 201.700 C 88.847 200.859,88.709 200.800,86.628 200.800 C 84.506 200.800,84.400 200.849,84.400 201.821 M51.680 201.680 C 50.929 202.431,51.113 203.090,52.127 203.284 C 53.662 203.577,54.350 203.133,53.963 202.100 C 53.597 201.124,52.448 200.912,51.680 201.680 M221.467 201.467 C 220.729 202.204,221.239 203.200,222.353 203.200 C 223.266 203.200,223.547 202.991,223.698 202.200 C 223.887 201.212,222.257 200.676,221.467 201.467 M283.200 202.200 C 283.200 203.000,283.400 203.200,284.200 203.200 C 285.000 203.200,285.200 203.000,285.200 202.200 C 285.200 201.400,285.000 201.200,284.200 201.200 C 283.400 201.200,283.200 201.400,283.200 202.200 M79.200 203.800 C 79.200 204.715,79.350 204.800,80.953 204.800 C 82.506 204.800,82.729 204.686,82.898 203.800 C 83.081 202.844,83.003 202.800,81.145 202.800 C 79.337 202.800,79.200 202.870,79.200 203.800 M242.370 202.900 C 241.877 204.561,242.023 204.848,243.299 204.725 C 245.174 204.545,245.472 202.800,243.628 202.800 C 242.953 202.800,242.387 202.845,242.370 202.900 M279.200 204.200 C 279.200 205.000,279.400 205.200,280.200 205.200 C 281.000 205.200,281.200 205.000,281.200 204.200 C 281.200 203.400,281.000 203.200,280.200 203.200 C 279.400 203.200,279.200 203.400,279.200 204.200 M75.352 205.381 C 75.047 206.176,75.467 206.749,76.268 206.631 C 77.473 206.454,77.750 204.800,76.575 204.800 C 76.025 204.800,75.475 205.061,75.352 205.381 M238.491 205.806 C 238.418 206.688,238.553 206.801,239.576 206.723 C 240.219 206.674,240.664 206.504,240.566 206.345 C 240.467 206.186,240.570 205.942,240.793 205.804 C 241.614 205.297,241.165 204.800,239.887 204.800 C 238.774 204.800,238.562 204.953,238.491 205.806 M128.556 205.592 C 126.825 206.291,127.069 207.200,128.987 207.200 C 129.955 207.200,131.209 207.375,131.773 207.590 L 132.798 207.979 132.899 275.490 L 133.000 343.000 133.893 343.127 L 134.786 343.254 134.893 275.727 C 135.003 205.993,135.010 206.641,134.255 207.063 C 133.939 207.239,133.944 207.162,134.269 206.810 C 135.552 205.420,131.250 204.503,128.556 205.592 M275.467 205.467 C 274.713 206.220,275.241 207.200,276.400 207.200 C 277.413 207.200,277.600 207.044,277.600 206.200 C 277.600 205.220,276.196 204.737,275.467 205.467 M69.916 207.727 C 69.721 208.749,71.456 209.113,72.223 208.212 C 73.038 207.254,72.788 206.800,71.447 206.800 C 70.349 206.800,70.060 206.975,69.916 207.727 M234.800 207.715 C 234.800 208.731,236.331 209.148,236.882 208.282 C 237.496 207.314,237.190 206.800,236.000 206.800 C 235.016 206.800,234.800 206.965,234.800 207.715 M123.372 207.645 C 123.221 207.889,123.321 208.228,123.594 208.396 C 123.980 208.635,123.970 208.751,123.545 208.920 C 123.245 209.039,123.726 209.151,124.613 209.168 C 126.061 209.197,126.234 209.096,126.310 208.183 C 126.396 207.140,125.371 206.895,124.706 207.800 C 124.524 208.048,124.410 208.010,124.406 207.700 C 124.399 207.080,123.743 207.045,123.372 207.645 M191.200 207.600 C 191.200 207.820,190.827 208.000,190.371 208.000 C 189.635 208.000,189.610 208.067,190.143 208.600 C 190.473 208.930,191.194 209.200,191.745 209.200 C 192.537 209.200,192.773 209.427,192.873 210.284 C 192.963 211.053,193.291 211.441,194.000 211.620 C 194.550 211.758,194.953 212.085,194.896 212.347 C 194.785 212.856,195.886 213.447,196.256 213.077 C 196.378 212.955,195.972 212.220,195.352 211.444 C 194.576 210.472,194.131 210.184,193.919 210.517 C 193.704 210.856,193.610 210.806,193.606 210.349 C 193.603 209.991,193.341 209.483,193.024 209.220 C 192.707 208.957,192.557 208.455,192.692 208.105 C 192.854 207.683,192.778 207.566,192.468 207.758 C 192.211 207.917,192.000 207.857,192.000 207.624 C 192.000 207.391,191.820 207.200,191.600 207.200 C 191.380 207.200,191.200 207.380,191.200 207.600 M64.072 209.700 C 64.172 210.405,64.460 210.600,65.400 210.600 C 66.340 210.600,66.628 210.405,66.728 209.700 C 66.840 208.908,66.681 208.800,65.400 208.800 C 64.119 208.800,63.960 208.908,64.072 209.700 M209.200 209.386 C 209.200 209.898,210.332 210.800,210.974 210.800 C 211.098 210.800,211.200 210.350,211.200 209.800 C 211.200 209.000,211.000 208.800,210.200 208.800 C 209.588 208.800,209.200 209.028,209.200 209.386 M230.800 209.576 C 230.800 210.485,230.427 210.774,229.112 210.882 C 228.259 210.953,228.199 211.066,228.576 211.892 L 229.000 212.821 229.881 211.811 C 230.373 211.246,231.193 210.800,231.738 210.800 C 232.620 210.800,233.200 210.153,233.200 209.167 C 233.200 208.965,232.660 208.800,232.000 208.800 C 231.079 208.800,230.800 208.980,230.800 209.576 M117.467 209.467 C 116.507 210.427,117.259 211.200,119.153 211.200 C 120.919 211.200,121.125 211.104,121.298 210.200 C 121.487 209.209,118.329 208.605,117.467 209.467 M211.756 211.029 C 211.876 211.343,211.790 211.600,211.564 211.600 C 211.338 211.600,211.266 211.783,211.404 212.007 C 211.542 212.230,211.810 212.317,212.000 212.200 C 212.190 212.083,212.460 212.173,212.600 212.400 C 213.003 213.052,213.546 212.480,213.325 211.637 C 213.216 211.217,212.768 210.780,212.331 210.666 C 211.759 210.517,211.598 210.618,211.756 211.029 M58.770 210.900 C 58.310 212.448,58.456 212.800,59.556 212.800 C 60.466 212.800,60.747 212.591,60.898 211.800 C 61.057 210.968,59.008 210.101,58.770 210.900 M111.829 211.829 C 110.771 212.886,111.110 213.200,113.313 213.200 C 115.278 213.200,115.431 213.130,115.508 212.200 C 115.609 210.988,112.939 210.718,111.829 211.829 M54.000 213.733 C 54.000 214.877,55.024 214.976,56.067 213.933 C 57.077 212.923,57.005 212.800,55.400 212.800 C 54.200 212.800,54.000 212.933,54.000 213.733 M223.902 213.300 C 223.602 214.115,224.014 214.800,224.805 214.800 C 225.580 214.800,226.800 213.805,226.800 213.171 C 226.800 212.608,224.112 212.727,223.902 213.300 M107.516 213.418 C 107.119 213.814,108.114 214.731,108.698 214.507 C 109.307 214.274,109.371 213.200,108.776 213.200 C 108.543 213.200,108.464 213.380,108.600 213.600 C 108.736 213.820,108.672 214.000,108.457 214.000 C 108.242 214.000,108.003 213.809,107.925 213.575 C 107.847 213.341,107.663 213.270,107.516 213.418 M261.962 214.646 C 261.498 215.205,261.527 215.273,262.180 215.146 C 262.594 215.066,263.009 214.775,263.100 214.500 C 263.338 213.786,262.596 213.882,261.962 214.646 M47.600 215.224 C 47.600 215.457,47.825 215.533,48.100 215.394 C 48.375 215.255,48.285 215.399,47.900 215.714 C 46.875 216.555,47.015 216.685,48.900 216.640 C 51.356 216.582,51.593 214.800,49.145 214.800 C 48.295 214.800,47.600 214.991,47.600 215.224 M215.200 215.825 C 215.200 217.253,217.724 217.137,217.928 215.700 C 218.040 214.911,217.880 214.800,216.628 214.800 C 215.362 214.800,215.200 214.916,215.200 215.825 M220.298 215.822 C 220.119 216.758,220.206 216.833,221.351 216.722 C 222.296 216.630,222.631 216.381,222.728 215.700 C 222.930 214.276,220.571 214.394,220.298 215.822 M263.206 215.300 C 263.220 216.442,263.988 217.026,263.994 215.900 C 263.997 215.295,263.820 214.800,263.600 214.800 C 263.380 214.800,263.203 215.025,263.206 215.300 M102.700 215.757 C 102.315 216.049,102.000 216.478,102.000 216.711 C 102.000 216.943,101.865 217.209,101.700 217.301 C 101.535 217.393,101.640 217.408,101.933 217.334 C 102.226 217.260,102.821 217.200,103.256 217.200 C 103.691 217.200,103.936 217.020,103.800 216.800 C 103.664 216.580,103.844 216.400,104.200 216.400 C 104.556 216.400,104.736 216.580,104.600 216.800 C 104.464 217.020,104.543 217.200,104.776 217.200 C 105.260 217.200,105.313 216.760,104.944 215.799 C 104.740 215.268,104.620 215.241,104.350 215.666 C 104.097 216.066,104.011 216.074,104.006 215.700 C 103.998 215.065,103.588 215.083,102.700 215.757 M257.200 216.173 C 257.200 217.047,257.379 217.200,258.397 217.200 C 259.413 217.200,259.574 217.063,259.460 216.300 C 259.249 214.891,257.200 214.777,257.200 216.173 M46.998 218.100 C 46.239 221.247,47.021 343.000,47.800 343.000 C 48.869 343.000,49.298 218.841,48.233 217.776 C 47.452 216.995,47.252 217.047,46.998 218.100 M253.467 217.467 C 252.713 218.220,253.241 219.200,254.400 219.200 C 255.060 219.200,255.614 219.065,255.631 218.900 C 255.647 218.735,255.722 218.285,255.795 217.900 C 255.931 217.191,254.085 216.848,253.467 217.467 M249.387 219.800 C 249.284 220.130,249.129 220.636,249.041 220.925 C 248.930 221.295,249.213 221.401,250.005 221.285 C 251.044 221.132,251.842 219.976,251.290 219.423 C 250.835 218.969,249.569 219.220,249.387 219.800 M85.467 221.467 C 84.649 222.284,85.248 223.200,86.600 223.200 C 87.827 223.200,88.000 223.076,88.000 222.200 C 88.000 221.215,86.231 220.702,85.467 221.467 M202.873 222.300 C 202.977 223.202,203.176 223.380,203.975 223.291 C 205.229 223.152,205.327 223.032,205.010 222.030 C 204.573 220.654,202.711 220.890,202.873 222.300 M245.631 221.762 C 244.905 222.637,245.449 223.200,247.021 223.200 C 248.219 223.200,248.378 223.085,248.260 222.300 C 248.096 221.208,246.382 220.858,245.631 221.762 M79.691 223.669 C 78.658 224.702,79.149 225.200,81.200 225.200 C 83.021 225.200,83.200 225.118,83.200 224.278 C 83.200 223.214,80.598 222.762,79.691 223.669 M242.000 224.200 C 241.483 224.750,240.642 225.200,240.130 225.200 C 239.290 225.200,239.001 225.597,239.163 226.530 C 239.194 226.711,239.048 226.753,238.838 226.623 C 238.627 226.493,238.342 226.570,238.204 226.793 C 238.050 227.043,238.569 227.200,239.549 227.200 C 240.899 227.200,241.164 227.062,241.272 226.300 C 241.369 225.616,241.704 225.371,242.666 225.277 C 243.795 225.168,244.982 224.000,243.964 224.000 C 243.738 224.000,243.664 223.820,243.800 223.600 C 244.312 222.771,242.900 223.241,242.000 224.200 M74.421 225.671 C 72.756 226.287,73.460 227.200,75.600 227.200 C 77.470 227.200,77.600 227.135,77.600 226.194 C 77.600 225.130,76.410 224.935,74.421 225.671 M206.800 226.157 C 206.800 226.843,207.082 227.184,207.800 227.364 C 208.420 227.520,208.800 227.899,208.800 228.362 C 208.800 228.880,209.154 229.161,209.953 229.278 C 211.060 229.441,211.090 229.404,210.713 228.324 C 210.498 227.706,210.065 227.200,209.751 227.200 C 209.437 227.200,209.009 226.750,208.800 226.200 C 208.287 224.851,206.800 224.819,206.800 226.157 M69.480 227.454 C 68.582 228.351,69.235 229.245,70.700 229.124 C 71.874 229.027,72.200 228.832,72.200 228.226 C 72.200 227.436,70.095 226.838,69.480 227.454 M235.200 228.172 C 235.200 229.009,235.391 229.200,236.228 229.200 C 237.065 229.200,237.232 229.033,237.128 228.300 C 236.932 226.919,235.200 226.804,235.200 228.172 M63.611 229.787 C 62.854 230.698,63.498 231.200,65.424 231.200 C 67.019 231.200,67.200 231.105,67.200 230.266 C 67.200 229.136,64.455 228.770,63.611 229.787 M231.467 229.467 C 231.320 229.613,231.200 255.242,231.200 286.420 L 231.200 343.107 232.069 343.334 C 232.548 343.459,233.085 343.471,233.264 343.360 C 233.443 343.250,233.593 317.518,233.597 286.180 L 233.605 229.200 232.669 229.200 C 232.154 229.200,231.613 229.320,231.467 229.467 M212.043 230.268 C 212.351 230.647,212.389 230.827,212.128 230.670 C 211.868 230.514,211.555 230.549,211.432 230.748 C 211.310 230.946,211.633 231.189,212.150 231.288 C 213.238 231.496,213.199 230.239,212.104 229.819 C 211.569 229.613,211.561 229.673,212.043 230.268 M59.467 231.467 C 58.667 232.266,59.192 343.143,59.996 343.399 C 60.434 343.538,60.972 343.541,61.191 343.406 C 61.452 343.244,61.588 324.340,61.587 288.480 C 61.585 255.108,61.732 233.293,61.964 232.500 C 62.336 231.229,60.475 230.459,59.467 231.467 M218.313 237.420 C 218.192 237.541,218.248 238.306,218.437 239.120 C 218.626 239.934,218.783 263.280,218.786 291.000 C 218.789 318.720,218.793 341.805,218.795 342.300 C 218.799 343.034,219.023 343.200,220.008 343.200 L 221.217 343.200 221.191 291.810 C 221.165 240.442,221.113 238.371,219.834 237.506 C 219.316 237.155,218.618 237.116,218.313 237.420 M378.708 354.075 C 378.564 354.507,348.134 354.618,206.867 354.704 L 35.200 354.807 35.200 355.804 L 35.200 356.801 206.875 356.700 L 378.549 356.600 378.897 355.256 C 379.230 353.971,379.072 352.983,378.708 354.075 " stroke="none" fill="#adadad" fill-rule="evenodd"></path><path id="path3" d="M33.372 41.645 C 33.093 42.096,33.952 42.877,34.414 42.591 C 34.553 42.505,34.667 42.694,34.667 43.011 C 34.667 43.425,34.527 43.471,34.169 43.174 C 33.832 42.894,33.590 42.893,33.419 43.169 C 33.281 43.393,33.618 43.690,34.170 43.828 C 35.012 44.040,35.164 44.300,35.121 45.458 C 35.083 46.470,34.919 46.778,34.502 46.618 C 34.190 46.498,33.855 46.400,33.758 46.400 C 33.661 46.400,33.876 45.950,34.237 45.400 C 34.872 44.430,34.863 44.400,33.946 44.406 C 33.168 44.411,33.107 44.488,33.600 44.837 C 34.052 45.156,34.076 45.311,33.700 45.464 C 33.106 45.705,33.024 46.800,33.600 46.800 C 33.820 46.800,34.000 47.340,34.000 48.000 C 34.000 48.797,34.200 49.200,34.597 49.200 C 35.507 49.200,35.514 350.107,34.604 351.851 C 33.836 353.324,33.834 354.965,34.600 355.600 C 35.091 356.008,35.200 355.981,35.200 355.453 C 35.200 354.860,49.220 354.799,206.815 354.704 C 358.845 354.612,378.474 354.532,378.819 354.000 C 379.289 353.276,379.243 345.369,378.761 344.100 L 378.420 343.200 363.810 343.200 L 349.200 343.200 349.200 258.096 C 349.200 173.426,349.204 172.990,350.000 172.493 C 350.556 172.146,350.800 171.560,350.800 170.573 C 350.800 169.705,350.641 169.251,350.390 169.406 C 349.897 169.711,350.049 168.710,350.551 168.345 C 351.038 167.991,350.483 167.200,349.748 167.200 C 349.100 167.200,347.958 168.167,347.992 168.686 C 348.004 168.859,346.975 169.090,345.707 169.200 C 343.623 169.381,343.404 169.487,343.445 170.300 C 343.483 171.053,343.284 171.200,342.225 171.200 C 341.529 171.200,340.718 171.425,340.421 171.700 C 339.990 172.100,339.939 172.100,340.165 171.700 C 340.320 171.425,340.257 171.200,340.024 171.200 C 339.791 171.200,339.600 171.650,339.600 172.200 C 339.600 173.097,339.438 173.200,338.028 173.200 C 336.702 173.200,336.436 173.341,336.328 174.100 C 336.219 174.865,335.920 175.018,334.338 175.120 C 332.743 175.223,332.441 175.381,332.231 176.220 C 332.067 176.871,331.703 177.200,331.143 177.200 C 330.403 177.200,330.368 177.118,330.851 176.519 C 331.291 175.972,331.196 175.988,330.371 176.601 C 329.644 177.140,329.394 177.633,329.518 178.282 C 329.682 179.142,329.565 179.200,327.654 179.200 C 325.813 179.200,325.591 179.297,325.364 180.200 C 325.144 181.077,324.897 181.200,323.357 181.200 C 321.763 181.200,321.600 181.290,321.600 182.172 C 321.600 182.876,321.351 183.180,320.700 183.272 L 319.800 183.400 319.600 263.400 C 319.410 339.264,319.364 343.398,318.700 343.367 C 318.315 343.348,315.030 343.303,311.400 343.267 L 304.800 343.200 304.794 268.700 C 304.791 227.725,304.656 194.007,304.494 193.771 C 304.332 193.535,303.874 193.221,303.475 193.074 C 303.076 192.926,302.857 192.632,302.988 192.420 C 303.119 192.207,302.725 192.295,302.113 192.614 C 301.501 192.934,300.677 193.196,300.282 193.198 C 299.888 193.199,299.594 193.425,299.630 193.700 C 299.801 195.017,299.554 195.200,297.600 195.200 C 295.733 195.200,295.600 195.267,295.600 196.200 C 295.600 197.100,295.440 197.200,294.000 197.200 C 292.457 197.200,292.136 197.531,292.353 198.900 C 292.379 199.065,291.333 199.200,290.028 199.200 C 287.872 199.200,287.644 199.282,287.528 200.100 C 287.436 200.744,287.088 201.036,286.300 201.127 C 285.436 201.226,285.200 201.462,285.200 202.227 C 285.200 203.128,285.052 203.200,283.200 203.200 C 281.333 203.200,281.200 203.267,281.200 204.200 C 281.200 205.119,281.053 205.200,279.400 205.200 C 277.747 205.200,277.600 205.281,277.600 206.200 C 277.600 207.076,277.427 207.200,276.200 207.200 C 272.895 207.200,273.200 200.413,273.200 274.026 C 273.200 339.861,273.220 340.800,274.614 340.800 C 274.998 340.800,275.200 341.213,275.200 342.000 L 275.200 343.200 269.200 343.200 L 263.200 343.200 263.200 281.096 C 263.200 220.513,263.219 218.981,263.960 218.518 C 265.321 217.668,264.608 213.237,263.105 213.206 C 262.942 213.203,262.852 213.605,262.905 214.100 C 263.002 215.021,262.921 215.055,260.326 215.157 C 259.414 215.194,259.280 215.347,259.430 216.178 C 259.596 217.090,259.480 217.164,257.704 217.278 C 256.548 217.352,255.780 217.596,255.750 217.900 C 255.722 218.175,255.678 218.580,255.650 218.800 C 255.623 219.020,254.648 219.200,253.485 219.200 C 251.619 219.200,251.363 219.300,251.307 220.045 C 251.222 221.162,251.149 221.211,249.495 221.273 C 248.233 221.321,248.095 221.431,248.247 222.271 C 248.410 223.169,248.319 223.212,246.393 223.144 C 245.279 223.104,244.159 223.281,243.904 223.536 C 243.552 223.888,243.553 224.000,243.907 224.000 C 244.965 224.000,243.834 225.164,242.666 225.277 C 241.704 225.371,241.369 225.616,241.272 226.300 C 241.158 227.104,240.918 227.200,239.028 227.200 C 236.986 227.200,236.918 227.235,237.102 228.200 C 237.284 229.150,237.201 229.200,235.447 229.200 L 233.600 229.200 233.572 284.100 C 233.557 314.295,233.512 339.968,233.472 341.151 L 233.400 343.302 226.209 343.227 C 222.254 343.185,218.968 343.101,218.907 343.040 C 218.846 342.980,218.734 319.365,218.658 290.565 C 218.510 235.027,218.548 237.200,217.733 237.200 C 217.431 237.200,217.200 236.767,217.200 236.200 C 217.200 235.400,217.000 235.200,216.200 235.200 C 215.400 235.200,215.200 235.000,215.200 234.200 C 215.200 233.400,215.000 233.200,214.200 233.200 C 213.277 233.200,212.967 232.607,213.133 231.159 C 213.148 231.027,212.693 231.008,212.121 231.117 C 211.397 231.256,211.168 231.175,211.368 230.851 C 211.526 230.596,211.868 230.514,212.128 230.670 C 212.387 230.826,212.330 230.614,212.000 230.200 C 211.650 229.761,211.609 229.572,211.900 229.747 C 212.181 229.916,212.400 229.851,212.400 229.598 C 212.400 229.352,212.085 229.182,211.700 229.221 C 209.666 229.428,208.800 229.185,208.800 228.408 C 208.800 227.897,208.446 227.526,207.805 227.365 C 206.951 227.151,206.817 226.902,206.868 225.622 C 206.950 223.507,206.585 223.118,204.658 223.270 L 203.000 223.400 203.028 221.324 C 203.043 220.182,202.953 219.259,202.828 219.271 C 201.646 219.392,201.200 219.099,201.200 218.200 C 201.200 217.400,201.000 217.200,200.200 217.200 C 199.400 217.200,199.200 217.000,199.200 216.200 C 199.200 215.407,198.998 215.200,198.227 215.200 C 197.463 215.200,197.226 214.964,197.127 214.106 C 197.027 213.241,196.790 213.010,196.002 213.006 C 195.398 213.002,195.003 212.770,195.002 212.418 C 195.001 212.098,194.550 211.728,194.000 211.595 C 193.129 211.385,193.003 211.142,193.022 209.702 C 193.034 208.793,192.896 208.141,192.715 208.252 C 192.535 208.364,192.491 208.623,192.617 208.828 C 193.000 209.448,190.787 209.244,190.143 208.600 C 189.610 208.067,189.635 208.000,190.371 208.000 C 190.827 208.000,191.200 207.820,191.200 207.600 C 191.200 207.380,190.660 207.200,190.000 207.200 C 189.310 207.200,188.797 207.412,188.794 207.700 C 188.789 208.060,188.706 208.072,188.494 207.744 C 188.281 207.414,188.058 207.442,187.684 207.844 C 187.263 208.298,187.263 208.401,187.684 208.406 C 188.093 208.411,188.096 208.478,187.699 208.730 C 187.300 208.984,187.218 222.664,187.299 275.806 L 187.400 342.564 188.400 342.842 C 188.950 342.995,186.655 343.138,183.300 343.160 L 177.200 343.200 177.153 267.500 C 177.127 225.865,177.124 191.620,177.148 191.400 C 177.175 191.148,175.530 191.047,172.695 191.127 C 169.565 191.216,168.407 191.371,168.883 191.638 C 170.179 192.365,169.259 193.286,167.421 193.102 C 165.546 192.915,164.225 193.254,164.150 193.940 C 164.123 194.193,164.078 194.580,164.050 194.800 C 164.023 195.020,163.168 195.200,162.151 195.200 C 160.467 195.200,160.346 195.138,160.801 194.500 C 161.075 194.115,160.827 194.305,160.250 194.922 C 159.672 195.540,159.200 196.305,159.200 196.622 C 159.200 197.081,158.490 197.200,155.744 197.200 C 152.927 197.200,152.187 197.329,151.743 197.900 C 151.236 198.551,151.215 198.544,151.437 197.800 C 151.619 197.190,151.580 197.134,151.275 197.564 C 151.054 197.874,150.967 198.369,151.080 198.664 C 151.231 199.057,150.860 199.200,149.689 199.200 C 147.478 199.200,147.639 193.517,147.623 272.176 C 147.615 311.102,147.472 343.054,147.304 343.180 C 147.137 343.306,143.850 343.317,140.000 343.205 L 133.000 343.000 132.899 275.490 L 132.798 207.979 131.773 207.590 C 131.209 207.375,129.770 207.200,128.574 207.200 C 126.416 207.200,126.374 207.229,126.407 208.700 C 126.411 208.865,125.286 209.090,123.907 209.200 C 121.684 209.377,121.386 209.502,121.272 210.300 C 121.154 211.134,120.942 211.200,118.372 211.200 C 115.583 211.200,115.310 211.365,115.553 212.900 C 115.579 213.065,114.160 213.200,112.400 213.200 C 109.931 213.200,109.200 213.327,109.200 213.757 C 109.200 214.064,108.930 214.418,108.600 214.545 C 108.270 214.671,108.000 214.601,108.000 214.387 C 108.000 214.174,108.191 214.000,108.424 214.000 C 108.657 214.000,108.737 213.822,108.602 213.604 C 108.263 213.054,107.247 214.056,107.493 214.698 C 107.626 215.044,107.234 215.200,106.235 215.200 C 104.888 215.200,104.803 215.271,105.036 216.200 C 105.196 216.839,105.118 217.200,104.820 217.200 C 104.563 217.200,104.464 217.020,104.600 216.800 C 104.736 216.580,104.556 216.400,104.200 216.400 C 103.844 216.400,103.664 216.580,103.800 216.800 C 103.936 217.020,103.691 217.200,103.256 217.200 C 101.036 217.200,101.200 212.141,101.200 280.443 L 101.200 343.200 96.200 343.200 L 91.200 343.200 91.200 282.443 C 91.200 215.862,91.395 221.200,88.967 221.200 C 88.202 221.200,88.000 221.409,88.000 222.200 C 88.000 223.156,87.893 223.200,85.600 223.200 C 83.307 223.200,83.200 223.244,83.200 224.200 C 83.200 225.171,83.120 225.200,80.400 225.200 C 77.659 225.200,77.600 225.222,77.600 226.229 C 77.600 227.212,77.505 227.255,75.500 227.195 C 72.227 227.097,72.134 227.122,72.168 228.100 C 72.197 228.929,72.002 229.009,69.700 229.119 C 67.331 229.232,67.200 229.291,67.200 230.240 C 67.200 231.194,67.099 231.237,65.068 231.155 C 62.486 231.050,62.177 231.217,61.840 232.892 C 61.695 233.611,61.537 258.760,61.488 288.777 L 61.400 343.354 55.200 343.229 C 51.790 343.161,48.550 343.081,48.000 343.052 L 47.000 343.000 47.000 279.717 C 47.000 216.917,47.006 216.429,47.800 215.788 C 48.240 215.432,48.375 215.255,48.100 215.394 C 47.825 215.533,47.600 215.457,47.600 215.224 C 47.600 214.961,48.814 214.800,50.800 214.800 C 53.947 214.800,54.000 214.783,54.000 213.800 C 54.000 212.855,54.120 212.800,56.200 212.800 C 57.410 212.800,58.423 212.620,58.450 212.400 C 58.477 212.180,58.523 211.775,58.550 211.500 C 58.584 211.164,59.531 210.962,61.441 210.884 C 64.208 210.770,64.278 210.742,64.098 209.798 C 63.918 208.857,63.986 208.828,66.456 208.798 C 70.358 208.751,70.284 208.773,70.085 207.733 C 69.912 206.828,69.990 206.800,72.685 206.800 C 75.309 206.800,75.462 206.750,75.432 205.900 C 75.406 205.169,75.644 204.976,76.700 204.875 C 77.973 204.752,78.299 205.060,77.700 205.821 C 77.535 206.030,77.805 205.804,78.300 205.318 C 78.795 204.832,79.200 204.067,79.200 203.617 C 79.200 202.878,79.448 202.800,81.800 202.800 C 84.294 202.800,84.400 202.760,84.400 201.818 C 84.400 200.875,84.519 200.830,87.300 200.718 C 89.988 200.609,90.210 200.532,90.331 199.672 C 90.451 198.829,90.651 198.751,92.531 198.807 C 96.112 198.913,97.200 198.813,97.200 198.376 C 97.200 198.143,97.022 198.063,96.805 198.197 C 96.578 198.337,96.511 198.177,96.647 197.821 C 96.778 197.479,97.091 197.181,97.343 197.157 C 97.594 197.134,98.070 197.075,98.400 197.026 C 98.730 196.977,99.740 196.906,100.645 196.868 C 102.170 196.805,102.275 196.728,102.098 195.800 C 101.908 194.805,101.923 194.800,104.899 194.800 C 107.748 194.800,107.889 194.757,107.845 193.900 C 107.804 193.093,108.026 192.979,110.000 192.800 C 111.904 192.627,112.217 192.479,112.328 191.700 C 112.445 190.876,112.667 190.800,114.972 190.800 C 117.462 190.800,117.487 190.789,117.292 189.768 C 117.100 188.765,117.151 188.737,119.047 188.803 C 122.663 188.929,122.800 188.891,122.800 187.771 C 122.800 186.788,122.895 186.745,124.900 186.805 C 128.332 186.908,128.400 186.889,128.400 185.800 C 128.400 184.924,128.573 184.800,129.800 184.800 C 130.570 184.800,131.200 184.974,131.200 185.187 C 131.200 185.401,131.515 185.475,131.900 185.354 C 132.407 185.194,132.339 185.363,131.656 185.967 C 131.136 186.425,130.898 186.800,131.127 186.800 C 131.355 186.800,131.896 186.350,132.329 185.799 C 132.762 185.248,133.573 184.760,134.130 184.714 C 134.687 184.668,135.062 184.501,134.965 184.343 C 134.867 184.185,134.973 183.940,135.200 183.800 C 135.427 183.660,135.527 183.406,135.423 183.237 C 135.318 183.067,135.900 182.886,136.716 182.835 C 137.532 182.784,138.394 182.725,138.632 182.704 C 138.869 182.684,138.983 182.247,138.885 181.733 C 138.710 180.818,138.769 180.800,141.921 180.800 C 145.875 180.800,146.534 180.598,145.979 179.560 C 145.615 178.880,145.721 178.800,146.986 178.800 C 148.608 178.800,148.791 179.281,147.511 180.177 C 147.022 180.520,146.829 180.800,147.082 180.800 C 147.335 180.800,147.896 180.350,148.329 179.800 C 148.788 179.216,149.526 178.800,150.102 178.800 C 150.939 178.800,151.060 178.648,150.898 177.800 C 150.709 176.811,150.736 176.800,153.498 176.800 C 156.259 176.800,156.287 176.789,156.098 175.800 C 155.911 174.821,155.959 174.800,158.353 174.800 C 160.696 174.800,160.800 174.758,160.800 173.800 C 160.800 172.836,160.893 172.800,163.400 172.800 C 166.008 172.800,166.027 172.789,165.993 171.300 C 165.989 171.135,167.114 170.910,168.493 170.800 C 170.716 170.623,171.014 170.498,171.128 169.700 C 171.351 168.131,175.200 168.362,175.200 169.945 C 175.200 170.950,175.322 171.066,176.200 170.898 C 177.061 170.733,177.200 170.853,177.200 171.753 C 177.200 172.646,177.374 172.800,178.381 172.800 C 179.562 172.800,179.562 172.801,179.328 174.776 L 179.094 176.752 181.047 176.876 C 182.241 176.952,183.019 177.194,183.050 177.500 C 183.078 177.775,183.123 178.180,183.150 178.400 C 183.178 178.620,183.650 178.800,184.200 178.800 C 185.133 178.800,185.200 178.933,185.200 180.800 C 185.200 182.765,185.221 182.800,186.427 182.800 C 187.472 182.800,187.616 182.919,187.400 183.600 C 187.257 184.051,187.333 184.422,187.573 184.450 C 187.808 184.478,188.225 184.523,188.500 184.550 C 188.789 184.579,189.051 185.298,189.121 186.257 C 189.224 187.672,189.355 187.885,190.016 187.712 C 190.498 187.586,190.884 187.753,191.038 188.155 C 191.174 188.510,191.716 188.800,192.243 188.800 C 193.113 188.800,193.431 189.338,193.247 190.500 C 193.221 190.665,193.650 190.800,194.200 190.800 C 195.013 190.800,195.209 191.006,195.246 191.900 C 195.334 193.991,195.403 194.187,196.099 194.323 C 196.608 194.421,196.728 194.278,196.543 193.796 C 196.340 193.266,196.221 193.240,195.950 193.666 C 195.720 194.030,195.610 194.049,195.606 193.724 C 195.603 193.462,195.744 193.158,195.919 193.050 C 196.282 192.826,197.286 193.357,197.234 193.745 C 197.119 194.609,197.319 194.800,198.341 194.800 C 199.470 194.800,199.480 194.822,199.290 196.800 L 199.098 198.800 201.290 198.800 L 203.483 198.800 203.290 200.800 C 203.104 202.741,203.129 202.800,204.149 202.800 C 205.003 202.800,205.200 202.987,205.200 203.800 C 205.200 204.600,205.400 204.800,206.200 204.800 C 206.985 204.800,207.200 205.004,207.200 205.745 C 207.200 206.265,207.675 207.165,208.255 207.745 C 208.835 208.325,209.735 208.800,210.255 208.800 C 210.973 208.800,211.200 209.020,211.200 209.715 C 211.200 210.359,211.450 210.649,212.045 210.693 C 213.213 210.781,213.338 210.984,213.274 212.680 C 213.206 214.477,213.626 214.786,216.147 214.794 C 218.017 214.800,218.086 214.840,217.898 215.822 C 217.719 216.758,217.806 216.833,218.951 216.722 C 219.908 216.628,220.231 216.383,220.331 215.672 C 220.440 214.906,220.685 214.756,221.731 214.813 C 223.694 214.918,224.040 214.839,223.970 214.300 C 223.790 212.912,224.012 212.717,225.600 212.869 C 226.480 212.952,227.200 212.871,227.200 212.687 C 227.200 212.503,227.380 212.464,227.600 212.600 C 227.820 212.736,228.003 212.612,228.006 212.324 C 228.011 211.943,228.118 211.964,228.400 212.400 C 228.742 212.929,228.788 212.926,228.794 212.380 C 228.797 212.039,228.623 211.583,228.407 211.367 C 228.149 211.109,228.368 210.944,229.042 210.888 C 230.429 210.773,230.800 210.496,230.800 209.576 C 230.800 208.911,231.087 208.800,232.800 208.800 C 234.667 208.800,234.800 208.733,234.800 207.800 C 234.800 206.881,234.947 206.800,236.600 206.800 C 238.354 206.800,238.670 206.509,238.447 205.100 C 238.421 204.935,239.210 204.800,240.200 204.800 C 241.190 204.800,242.023 204.620,242.050 204.400 C 242.078 204.180,242.123 203.775,242.150 203.500 C 242.181 203.186,242.908 202.979,244.100 202.943 C 246.658 202.866,247.183 202.621,246.922 201.624 C 246.675 200.681,248.566 200.375,248.930 201.300 C 249.038 201.575,249.030 201.125,248.911 200.300 L 248.695 198.800 251.448 198.794 C 253.053 198.790,253.983 198.650,253.679 198.457 C 252.647 197.803,253.382 197.002,255.200 196.800 C 256.667 196.637,257.000 196.452,257.000 195.800 C 257.000 195.145,257.308 194.978,258.698 194.877 C 260.116 194.774,260.437 194.593,260.641 193.777 C 260.860 192.908,261.102 192.800,262.843 192.800 C 264.664 192.800,264.800 192.730,264.800 191.800 C 264.800 190.902,264.962 190.800,266.376 190.800 C 267.948 190.800,268.784 190.285,268.000 189.800 C 267.128 189.261,268.134 188.800,270.181 188.800 C 272.276 188.800,273.199 188.170,272.578 187.164 C 272.454 186.964,272.903 186.800,273.576 186.800 C 274.615 186.800,274.800 186.649,274.800 185.800 C 274.800 184.926,274.974 184.800,276.187 184.800 C 277.336 184.800,277.532 184.921,277.328 185.500 C 277.154 185.995,277.363 185.910,278.041 185.209 C 278.568 184.665,279.022 184.080,279.050 183.909 C 279.078 183.739,279.123 183.420,279.150 183.200 C 279.178 182.980,280.010 182.800,281.000 182.800 C 282.653 182.800,282.800 182.719,282.800 181.800 C 282.800 180.900,282.960 180.800,284.400 180.800 C 285.942 180.800,286.194 180.568,286.030 179.300 C 285.984 178.947,286.686 178.800,288.408 178.800 C 290.705 178.800,290.843 178.747,290.725 177.908 C 290.625 177.192,290.836 176.975,291.800 176.804 C 292.460 176.688,293.022 176.369,293.050 176.096 C 293.078 175.823,293.123 175.407,293.150 175.170 C 293.180 174.909,294.024 174.784,295.300 174.850 C 297.384 174.959,297.399 174.952,297.267 173.848 C 297.136 172.753,297.165 172.737,299.066 172.854 C 300.840 172.963,301.013 172.893,301.198 171.987 C 301.309 171.444,301.625 170.982,301.900 170.960 C 302.175 170.938,302.847 170.893,303.392 170.860 C 304.092 170.818,304.459 170.505,304.636 169.800 C 304.861 168.904,305.090 168.800,306.843 168.800 C 308.664 168.800,308.800 168.730,308.800 167.800 C 308.800 166.900,308.960 166.800,310.400 166.800 C 311.942 166.800,312.194 166.568,312.030 165.300 C 311.973 164.866,315.483 164.493,316.968 164.775 C 317.170 164.814,317.109 164.573,316.833 164.240 C 316.125 163.386,316.701 162.695,317.966 162.880 C 318.940 163.023,319.023 162.935,318.873 161.919 C 318.712 160.818,318.742 160.800,320.755 160.800 C 322.657 160.800,322.800 160.732,322.800 159.822 C 322.800 158.939,322.985 158.832,324.700 158.722 C 326.321 158.618,326.619 158.468,326.728 157.700 C 326.838 156.921,327.095 156.800,328.628 156.800 C 330.251 156.800,330.400 156.716,330.400 155.800 C 330.400 154.862,332.179 154.404,334.486 154.748 C 334.643 154.771,334.690 154.568,334.590 154.295 C 334.294 153.488,334.922 152.881,336.201 152.736 C 337.184 152.625,337.377 152.438,337.275 151.700 C 337.160 150.873,337.307 150.800,339.095 150.800 C 340.165 150.800,341.263 150.577,341.537 150.303 C 341.932 149.908,342.110 149.928,342.411 150.403 C 342.731 150.910,342.789 150.894,342.794 150.300 C 342.797 149.915,342.620 149.600,342.400 149.600 C 342.180 149.600,342.000 149.420,342.000 149.200 C 342.000 148.980,342.720 148.800,343.600 148.800 C 345.145 148.800,345.468 149.136,345.245 150.508 C 345.217 150.678,345.646 150.703,346.197 150.565 C 347.107 150.337,347.200 150.429,347.200 151.557 C 347.200 152.616,347.348 152.800,348.200 152.800 C 349.127 152.800,349.200 152.939,349.200 154.716 C 349.200 156.533,349.255 156.631,350.276 156.616 C 351.100 156.604,351.410 156.835,351.594 157.600 C 351.935 159.008,354.530 159.091,354.728 157.700 C 354.807 157.142,355.133 156.800,355.585 156.800 C 356.448 156.800,356.800 156.037,356.800 154.167 C 356.800 152.915,356.901 152.800,358.000 152.800 C 358.990 152.800,359.200 152.637,359.200 151.868 C 359.200 151.297,359.566 150.739,360.143 150.430 C 360.946 150.001,361.060 149.693,360.906 148.364 C 360.735 146.885,361.849 145.657,362.838 146.232 C 362.970 146.309,362.997 145.568,362.899 144.586 C 362.730 142.893,362.774 142.800,363.737 142.800 C 364.956 142.800,365.245 142.405,365.280 140.695 C 365.311 139.151,365.518 138.702,366.047 139.029 C 366.294 139.181,366.265 139.480,365.970 139.836 C 365.713 140.146,365.569 140.414,365.651 140.431 C 366.890 140.685,367.200 140.672,367.200 140.365 C 367.200 140.164,367.050 140.000,366.867 140.000 C 366.683 140.000,366.533 139.730,366.533 139.400 C 366.533 139.070,366.683 138.800,366.867 138.800 C 367.050 138.800,367.200 137.900,367.200 136.800 C 367.200 135.067,367.307 134.800,368.000 134.800 C 368.587 134.800,368.800 134.533,368.800 133.800 C 368.800 132.961,368.989 132.800,369.969 132.800 C 371.131 132.800,371.137 132.786,370.953 130.800 C 370.791 129.058,371.059 128.410,371.739 128.900 C 372.141 129.190,373.229 127.753,373.069 127.143 C 372.841 126.269,373.814 125.297,374.130 126.083 C 374.244 126.367,374.351 126.202,374.368 125.716 C 374.459 123.170,374.719 123.200,352.405 123.200 C 332.385 123.200,331.200 123.270,331.200 124.457 C 331.200 124.620,331.550 124.687,331.977 124.604 C 332.552 124.494,332.690 124.620,332.509 125.093 C 332.346 125.517,332.421 125.634,332.732 125.442 C 333.063 125.238,333.200 125.675,333.200 126.932 C 333.200 128.099,333.372 128.705,333.700 128.693 C 335.290 128.633,335.401 128.779,335.265 130.747 C 335.132 132.659,335.150 132.693,336.265 132.647 C 337.387 132.601,337.398 132.624,337.267 134.656 C 337.190 135.843,337.317 136.825,337.567 136.980 C 337.805 137.127,338.000 137.062,338.000 136.836 C 338.000 136.610,338.270 136.529,338.600 136.655 C 339.606 137.041,339.367 139.121,338.300 139.272 C 337.722 139.354,337.354 139.722,337.272 140.300 C 337.155 141.127,335.486 141.549,333.511 141.251 C 333.353 141.227,333.389 141.646,333.593 142.183 C 333.951 143.122,333.895 143.162,332.082 143.279 C 330.479 143.382,330.181 143.533,330.072 144.300 C 329.956 145.120,328.908 145.468,327.159 145.267 C 327.027 145.252,327.003 145.681,327.106 146.220 C 327.285 147.157,327.203 147.200,325.247 147.200 C 323.330 147.200,323.200 147.264,323.200 148.200 C 323.200 149.135,323.068 149.200,321.174 149.200 C 319.085 149.200,317.600 149.716,317.600 150.443 C 317.600 150.671,317.883 150.574,318.229 150.229 C 319.048 149.409,319.200 149.435,319.200 150.400 C 319.200 151.081,318.933 151.200,317.400 151.200 C 315.747 151.200,315.600 151.281,315.600 152.200 C 315.600 153.139,314.039 153.552,311.559 153.267 C 311.427 153.252,311.403 153.681,311.506 154.220 C 311.685 155.157,311.603 155.200,309.647 155.200 C 307.730 155.200,307.600 155.264,307.600 156.200 C 307.600 157.119,307.454 157.200,305.792 157.200 C 304.077 157.200,303.997 157.250,304.229 158.174 C 304.453 159.065,304.344 159.158,302.937 159.274 C 301.694 159.376,301.376 159.572,301.272 160.300 C 301.160 161.090,300.911 161.200,299.228 161.200 C 297.411 161.200,297.321 161.251,297.498 162.178 C 297.675 163.105,297.574 163.162,295.542 163.278 C 293.669 163.385,293.384 163.513,293.272 164.300 C 293.159 165.095,292.913 165.200,291.165 165.200 C 289.253 165.200,289.193 165.234,289.436 166.200 C 289.669 167.129,289.584 167.200,288.235 167.200 C 287.074 167.200,286.691 167.401,286.327 168.200 C 285.959 169.008,285.584 169.200,284.369 169.200 C 282.364 169.200,281.600 169.535,281.600 170.416 C 281.600 170.916,281.252 171.187,280.500 171.273 C 279.721 171.363,279.363 171.657,279.275 172.279 C 279.169 173.021,278.856 173.177,277.275 173.279 C 275.679 173.382,275.381 173.534,275.272 174.300 C 275.155 175.125,273.677 175.510,271.559 175.267 C 271.427 175.252,271.403 175.681,271.506 176.220 C 271.685 177.157,271.603 177.200,269.647 177.200 C 267.730 177.200,267.600 177.264,267.600 178.200 C 267.600 179.097,267.438 179.200,266.033 179.200 C 263.876 179.200,263.249 179.502,263.491 180.426 C 263.679 181.145,262.368 181.525,260.681 181.241 C 260.506 181.212,260.392 181.415,260.428 181.694 C 260.597 182.978,260.324 183.164,258.100 183.280 C 256.522 183.362,255.831 183.557,255.900 183.900 C 255.955 184.175,255.809 184.400,255.576 184.400 C 255.343 184.400,255.274 184.596,255.422 184.835 C 255.600 185.124,255.239 185.225,254.345 185.135 C 253.078 185.008,253.008 185.066,253.133 186.133 C 253.247 187.108,253.136 187.255,252.333 187.189 C 250.064 187.001,249.600 187.173,249.600 188.200 C 249.600 189.145,249.480 189.200,247.400 189.200 C 245.320 189.200,245.200 189.255,245.200 190.200 C 245.200 191.100,245.040 191.200,243.600 191.200 C 242.160 191.200,242.000 191.300,242.000 192.200 C 242.000 193.259,241.857 193.317,239.515 193.209 C 238.228 193.150,237.996 193.278,237.772 194.170 C 237.560 195.013,237.276 195.200,236.212 195.200 C 235.040 195.200,234.930 195.299,235.102 196.200 C 235.286 197.161,235.214 197.200,233.247 197.200 C 231.330 197.200,231.200 197.264,231.200 198.200 C 231.200 199.079,231.028 199.200,229.776 199.200 C 228.914 199.200,228.452 199.040,228.604 198.793 C 228.742 198.570,228.993 198.472,229.161 198.576 C 229.329 198.680,229.467 198.500,229.467 198.175 C 229.467 197.724,229.266 197.774,228.608 198.393 C 228.135 198.837,227.560 199.200,227.329 199.200 C 227.098 199.200,226.930 199.605,226.956 200.100 C 226.995 200.861,226.754 201.031,225.401 201.200 C 224.120 201.360,223.774 201.580,223.672 202.300 C 223.491 203.577,218.800 203.700,218.800 202.428 C 218.800 201.932,218.478 201.610,217.900 201.528 C 217.104 201.415,217.000 201.170,217.000 199.400 L 217.000 197.400 215.000 197.400 L 213.000 197.400 213.076 195.291 C 213.118 194.131,213.028 193.255,212.876 193.344 C 212.188 193.748,210.844 192.808,210.995 192.028 C 211.081 191.582,211.027 191.234,210.875 191.256 C 209.740 191.417,208.800 191.109,208.800 190.576 C 208.800 190.207,208.612 190.069,208.338 190.238 C 208.051 190.416,207.985 190.348,208.164 190.059 C 208.324 189.799,208.175 189.489,207.825 189.354 C 207.481 189.222,207.200 188.684,207.200 188.157 C 207.200 187.403,206.988 187.200,206.200 187.200 C 205.400 187.200,205.200 187.000,205.200 186.200 C 205.200 185.400,205.000 185.200,204.200 185.200 C 203.233 185.200,202.979 184.718,203.179 183.260 C 203.220 182.963,203.061 182.838,202.827 182.983 C 202.568 183.144,202.400 182.853,202.400 182.243 C 202.400 181.316,202.270 181.246,200.700 181.320 C 199.213 181.390,198.984 181.287,198.872 180.501 C 198.791 179.929,198.377 179.509,197.736 179.348 C 196.909 179.141,196.762 178.909,196.923 178.068 C 197.314 176.023,196.593 175.116,194.697 175.266 L 193.000 175.400 193.112 173.300 C 193.219 171.291,193.180 171.200,192.212 171.200 C 191.242 171.200,191.014 170.855,191.183 169.645 C 191.236 169.262,190.991 169.161,190.386 169.320 C 189.687 169.502,189.422 169.312,189.068 168.374 C 188.806 167.681,188.333 167.200,187.912 167.200 C 187.419 167.200,187.200 166.892,187.200 166.200 C 187.200 165.361,187.011 165.200,186.028 165.200 C 185.117 165.200,184.827 165.000,184.728 164.300 C 184.644 163.709,184.325 163.400,183.800 163.400 C 183.225 163.400,182.964 163.091,182.873 162.300 C 182.784 161.523,182.520 161.200,181.973 161.200 C 181.548 161.200,181.200 161.001,181.200 160.757 C 181.200 160.514,181.433 160.404,181.718 160.513 C 182.033 160.634,182.262 160.378,182.300 159.861 C 182.352 159.184,182.288 159.131,181.988 159.605 C 181.782 159.932,181.609 160.011,181.606 159.780 C 181.603 159.537,181.012 159.429,180.200 159.524 C 179.045 159.659,178.799 159.557,178.794 158.944 C 178.781 157.376,178.209 157.094,175.163 157.157 C 172.452 157.213,171.335 157.647,171.833 158.453 C 172.159 158.981,171.365 159.167,168.464 159.240 C 165.875 159.305,164.830 159.677,166.071 160.090 C 166.998 160.399,165.899 161.253,164.660 161.187 C 162.419 161.066,162.091 161.184,161.836 162.200 C 161.603 163.127,161.411 163.200,159.192 163.200 C 157.877 163.200,156.778 163.380,156.750 163.600 C 156.722 163.820,156.678 164.225,156.650 164.500 C 156.617 164.827,155.735 165.041,154.100 165.119 C 151.745 165.231,151.600 165.295,151.600 166.219 C 151.600 167.146,151.473 167.200,149.300 167.206 C 147.136 167.212,145.888 167.563,145.966 168.145 C 146.087 169.053,145.759 169.200,143.600 169.200 C 141.307 169.200,141.200 169.244,141.200 170.200 C 141.200 171.178,141.133 171.200,138.200 171.200 C 135.267 171.200,135.200 171.222,135.200 172.200 C 135.200 173.182,135.143 173.200,132.049 173.200 C 129.736 173.200,128.766 173.360,128.400 173.800 C 128.126 174.130,128.059 174.403,128.251 174.406 C 128.443 174.409,128.330 174.587,128.000 174.800 C 127.224 175.302,125.882 175.315,126.189 174.817 C 126.319 174.607,126.690 174.536,127.013 174.660 C 127.424 174.818,127.600 174.610,127.600 173.964 C 127.600 173.076,127.553 173.089,126.274 174.329 C 125.544 175.036,124.855 175.521,124.741 175.408 C 124.627 175.294,124.294 175.651,124.000 176.201 C 123.529 177.080,123.185 177.206,121.132 177.250 C 119.850 177.278,118.620 177.345,118.400 177.400 C 118.180 177.455,117.904 177.523,117.786 177.550 C 117.668 177.578,117.765 177.960,118.000 178.400 C 118.408 179.162,118.304 179.200,115.814 179.200 C 113.272 179.200,113.200 179.228,113.200 180.230 C 113.200 181.201,113.091 181.256,111.300 181.194 C 108.112 181.085,108.000 181.119,108.000 182.200 C 108.000 183.156,107.893 183.200,105.600 183.200 C 103.288 183.200,103.200 183.238,103.200 184.230 C 103.200 185.201,103.091 185.256,101.300 185.194 C 97.888 185.077,97.700 185.125,97.752 186.100 C 97.797 186.945,97.623 187.007,94.887 187.118 C 92.902 187.198,91.992 187.389,92.034 187.718 C 92.196 189.001,91.943 189.200,90.151 189.200 C 88.455 189.200,88.348 189.143,88.851 188.511 C 89.254 188.005,89.118 188.039,88.340 188.636 C 87.722 189.112,86.783 189.417,86.085 189.369 C 85.191 189.307,84.763 189.522,84.388 190.222 C 84.100 190.761,83.445 191.209,82.844 191.279 C 82.107 191.364,81.800 191.635,81.800 192.200 C 81.800 192.921,81.495 193.012,78.726 193.116 C 75.901 193.223,75.641 193.304,75.526 194.116 C 75.411 194.922,75.144 195.010,72.500 195.118 C 69.719 195.230,69.600 195.275,69.600 196.218 C 69.600 197.152,69.482 197.200,67.200 197.200 C 64.808 197.200,64.516 197.403,64.753 198.900 C 64.779 199.065,63.630 199.200,62.200 199.200 C 59.693 199.200,59.600 199.236,59.600 200.200 C 59.600 201.177,59.533 201.200,56.610 201.200 L 53.620 201.200 53.990 202.174 C 54.446 203.374,54.188 203.448,50.156 203.268 C 47.498 203.150,47.181 203.049,47.014 202.268 C 46.913 201.791,46.743 166.049,46.636 122.842 C 46.530 79.634,46.295 44.135,46.114 43.954 C 45.933 43.773,43.449 43.575,40.593 43.513 L 35.400 43.400 35.267 42.230 C 35.167 41.356,35.042 41.205,34.773 41.630 C 34.520 42.029,34.410 42.050,34.406 41.700 C 34.399 41.080,33.743 41.045,33.372 41.645 M33.200 50.600 C 33.200 51.711,33.783 51.943,34.153 50.979 C 34.314 50.558,34.232 50.454,33.895 50.656 C 33.567 50.853,33.585 50.725,33.949 50.277 C 34.422 49.694,34.408 49.600,33.849 49.600 C 33.423 49.600,33.200 49.944,33.200 50.600 M33.200 54.400 C 33.200 54.901,33.624 54.901,34.400 54.400 C 34.885 54.086,34.828 54.011,34.100 54.006 C 33.605 54.003,33.200 54.180,33.200 54.400 M48.993 156.000 C 48.993 180.970,49.041 191.185,49.100 178.700 C 49.159 166.215,49.159 145.785,49.100 133.300 C 49.041 120.815,48.993 131.030,48.993 156.000 M345.200 168.062 C 345.200 168.849,345.261 168.871,345.900 168.314 C 346.285 167.979,346.870 167.785,347.200 167.883 C 347.733 168.041,347.733 168.014,347.200 167.637 C 346.175 166.912,345.200 167.119,345.200 168.062 M85.770 190.533 C 85.658 190.827,85.320 191.067,85.021 191.067 C 84.721 191.067,84.568 190.827,84.681 190.533 C 84.793 190.240,85.131 190.000,85.430 190.000 C 85.730 190.000,85.883 190.240,85.770 190.533 M165.372 191.645 C 165.077 192.123,165.965 192.869,166.463 192.561 C 166.838 192.329,166.437 191.200,165.981 191.200 C 165.797 191.200,165.524 191.400,165.372 191.645 M257.949 196.300 C 257.458 196.925,257.470 196.945,258.061 196.483 C 258.601 196.061,258.760 196.061,258.930 196.483 C 259.061 196.812,259.148 196.745,259.168 196.300 C 259.186 195.915,259.042 195.600,258.849 195.600 C 258.656 195.600,258.251 195.915,257.949 196.300 M97.632 198.300 C 97.650 198.718,97.744 198.799,97.865 198.500 C 97.976 198.225,98.242 198.000,98.457 198.000 C 98.672 198.000,98.719 198.208,98.562 198.462 C 98.385 198.748,98.452 198.815,98.738 198.638 C 99.468 198.187,99.277 197.600,98.400 197.600 C 97.893 197.600,97.612 197.856,97.632 198.300 M93.600 200.249 C 93.600 200.780,93.709 200.808,94.200 200.400 C 94.530 200.126,94.800 199.834,94.800 199.751 C 94.800 199.668,94.530 199.600,94.200 199.600 C 93.870 199.600,93.600 199.892,93.600 200.249 M134.531 205.651 C 134.645 206.009,134.527 206.531,134.269 206.810 C 133.910 207.198,133.911 207.255,134.270 207.054 C 134.535 206.905,134.820 207.097,134.923 207.495 C 135.049 207.975,135.120 207.881,135.147 207.200 C 135.170 206.650,134.994 205.930,134.756 205.600 C 134.383 205.081,134.353 205.088,134.531 205.651 M209.200 207.447 C 209.200 208.179,209.057 208.146,208.225 207.228 C 207.555 206.487,207.560 206.464,208.363 206.674 C 208.823 206.795,209.200 207.142,209.200 207.447 M134.995 276.000 C 134.995 310.870,135.042 325.135,135.100 307.700 C 135.158 290.265,135.158 261.735,135.100 244.300 C 135.042 226.865,134.995 241.130,134.995 276.000 M263.994 215.900 C 263.989 216.757,263.902 216.868,263.600 216.400 C 263.094 215.617,263.094 214.800,263.600 214.800 C 263.820 214.800,263.997 215.295,263.994 215.900 M48.995 279.000 C 48.995 312.220,49.042 325.869,49.100 309.331 C 49.158 292.794,49.158 265.614,49.100 248.931 C 49.042 232.249,48.995 245.780,48.995 279.000 M63.200 229.551 C 63.200 230.072,64.233 230.834,64.533 230.533 C 64.834 230.233,64.072 229.200,63.551 229.200 C 63.358 229.200,63.200 229.358,63.200 229.551 " stroke="none" fill="#ffffff" fill-rule="evenodd"></path><path id="path4" d="" stroke="none" fill="#ff5555" fill-rule="evenodd"></path></g></svg>